{
.appVersion = "3436";
copyright = "Copyright 2023 Amir Mahdi Moslehi. Published by Rosetta Type Foundry.";
customParameters = (
{
name = glyphOrder;
value = (
.notdef,
NULL,
CR,
space,
nbspace,
enspace,
emspace,
figurespace,
punctuationspace,
thinspace,
hairspace,
"a-avestan",
"aa-avestan",
"aan-avestan",
"aao-avestan",
"ae-avestan",
"aee-avestan",
"an-avestan",
"ao-avestan",
"be-avestan",
"be-avestan.calt",
"bhe-avestan",
"ce-avestan",
"de-avestan",
"de-avestan.calt",
"dhe-avestan",
"e-avestan",
"ee-avestan",
"fe-avestan",
"ge-avestan",
"gge-avestan",
"ghe-avestan",
"he-avestan",
"hme-avestan",
"i-avestan",
"ii-avestan",
"je-avestan",
"ke-avestan",
"le-avestan",
"me-avestan",
"ne-avestan",
"nge-avestan",
"ngve-avestan",
"ngye-avestan",
"nne-avestan",
"nye-avestan",
"o-avestan",
"oo-avestan",
"pe-avestan",
"re-avestan",
"se-avestan",
"she-avestan",
"shye-avestan",
"sshe-avestan",
"te-avestan",
"the-avestan",
"tte-avestan",
"u-avestan",
"uu-avestan",
"ve-avestan",
"xe-avestan",
"xve-avestan",
"xye-avestan",
"ye-avestan",
"yye-avestan",
"ze-avestan",
"ze-avestan.calt",
"zhe-avestan",
"abbreviation-avestan",
"largethreedotsdown-avestan",
"largethreedotsup-avestan",
"largethreeringsdown-avestan",
"largethreeringsup-avestan",
"smallthreedotsdown-avestan",
"tinythreedotsdown-avestan",
ringpoint,
wordseparatormiddledot,
lefttorightembedding,
lefttorightmark,
lefttorightoverride,
popdirectionalformatting,
righttoleftembedding,
righttoleftmark,
righttoleftoverride
);
},
{
name = "Use Typo Metrics";
value = 1;
},
{
name = "Use Typo Metrics";
value = 1;
},
{
name = "Disable Last Change";
value = 1;
},
{
name = "Use Line Breaks";
value = 1;
},
{
name = "Use Extension Kerning";
value = 1;
},
{
name = fsType;
value = (
);
},
{
name = licenseURL;
value = "http://rosettatype.com/licence";
},
{
name = vendorID;
value = " RST";
}
);
date = "2023-06-21 17:36:04 +0000";
designer = "Amir Mahdi Moslehi";
designerURL = "http://rosettatype.com";
familyName = "Mehraban Avestan";

glyphs = (
{
glyphname = .notdef;
layers = (
{
layerId = m01;
paths = (
{
closed = 1;
nodes = (
"64 0 LINE",
"579 0 LINE",
"579 515 LINE",
"64 515 LINE"
);
},
{
closed = 1;
nodes = (
"442 94 LINE",
"321 222 LINE",
"200 94 LINE",
"157 137 LINE",
"285 258 LINE",
"159 381 LINE",
"201 422 LINE",
"322 294 LINE",
"443 422 LINE",
"486 379 LINE",
"358 258 LINE",
"484 135 LINE"
);
}
);
width = 643;
}
);
rightMetricsKey = "=|";
userData = {
com.typemytype.robofont.layerData = {
background = {
anchors = (
);
components = (
);
contours = (
{
points = (
{
segmentType = line;
smooth = 0;
x = 440;
y = 387;
},
{
segmentType = line;
smooth = 0;
x = 783;
y = 705;
},
{
segmentType = line;
smooth = 0;
x = 439;
y = 1043;
},
{
segmentType = line;
smooth = 0;
x = 553;
y = 1159;
},
{
segmentType = line;
smooth = 0;
x = 886;
y = 807;
},
{
segmentType = line;
smooth = 0;
x = 1214;
y = 1158;
},
{
segmentType = line;
smooth = 0;
x = 1333;
y = 1042;
},
{
segmentType = line;
smooth = 0;
x = 985;
y = 708;
},
{
segmentType = line;
smooth = 0;
x = 1333;
y = 365;
},
{
segmentType = line;
smooth = 0;
x = 1220;
y = 252;
},
{
segmentType = line;
smooth = 0;
x = 883;
y = 605;
},
{
segmentType = line;
smooth = 0;
x = 559;
y = 252;
}
);
},
{
points = (
{
segmentType = line;
smooth = 0;
x = 177;
y = 0;
},
{
segmentType = line;
smooth = 0;
x = 1593;
y = 0;
},
{
segmentType = line;
smooth = 0;
x = 1593;
y = 1416;
},
{
segmentType = line;
smooth = 0;
x = 177;
y = 1416;
}
);
}
);
lib = {
};
name = .notdef;
unicodes = (
);
width = 1770;
};
};
};
},
{
glyphname = "a-avestan";
layers = (
{
background = {
paths = (
{
closed = 1;
nodes = (
"458 78 OFFCURVE",
"455 29 OFFCURVE",
"455 0 CURVE",
"596 0 OFFCURVE",
"682 142 OFFCURVE",
"682 245 CURVE SMOOTH",
"682 297 OFFCURVE",
"662 348 OFFCURVE",
"634 416 CURVE",
"622 416 LINE",
"574 323 LINE",
"597 277 OFFCURVE",
"633 189 OFFCURVE",
"623 150 CURVE",
"589 129 OFFCURVE",
"534 117 OFFCURVE",
"490 117 CURVE"
);
},
{
closed = 1;
nodes = (
"327 87 LINE",
"349 25 OFFCURVE",
"399 0 OFFCURVE",
"455 0 CURVE",
"487 39 OFFCURVE",
"498 78 OFFCURVE",
"490 117 CURVE",
"432 117 OFFCURVE",
"392 129 OFFCURVE",
"374 158 CURVE"
);
},
{
closed = 1;
nodes = (
"149 78 OFFCURVE",
"146 29 OFFCURVE",
"146 0 CURVE",
"239 0 OFFCURVE",
"333 38 OFFCURVE",
"372 96 CURVE SMOOTH",
"403 143 OFFCURVE",
"423 198 OFFCURVE",
"423 245 CURVE SMOOTH",
"423 297 OFFCURVE",
"403 348 OFFCURVE",
"375 416 CURVE",
"363 416 LINE",
"315 323 LINE",
"338 277 OFFCURVE",
"374 189 OFFCURVE",
"364 150 CURVE",
"313 128 OFFCURVE",
"235 117 OFFCURVE",
"181 117 CURVE"
);
},
{
closed = 1;
nodes = (
"168 39 OFFCURVE",
"179 78 OFFCURVE",
"181 117 CURVE",
"144 117 OFFCURVE",
"115 124 OFFCURVE",
"98 137 CURVE",
"50 43 LINE",
"58 15 OFFCURVE",
"91 0 OFFCURVE",
"146 0 CURVE"
);
},
{
closed = 1;
nodes = (
"0 -495 LINE",
"0 818 LINE",
"732 818 LINE",
"732 -495 LINE"
);
}
);
};
components = (
{
alignment = -1;
name = _part.avst.alef.head;
transform = "{1, 0, 0, 1, 455, 0}";
},
{
alignment = -1;
name = _part.avst.right.connector;
transform = "{1, 0, 0, 1, 2, 0}";
},
{
alignment = -1;
name = _part.avst.ee.avestan;
transform = "{1, 0, 0, 1, -32, 0}";
},
{
alignment = -1;
name = _part.avst.keheh_ending;
transform = "{1, 0, 0, 1, 2, 0}";
}
);
layerId = m01;
width = 732;
}
);
unicode = 10B00;
},
{
glyphname = "aa-avestan";
layers = (
{
background = {
paths = (
{
closed = 1;
nodes = (
"327 87 LINE",
"349 25 OFFCURVE",
"399 0 OFFCURVE",
"455 0 CURVE",
"487 39 OFFCURVE",
"498 78 OFFCURVE",
"490 117 CURVE",
"432 117 OFFCURVE",
"392 129 OFFCURVE",
"374 158 CURVE"
);
},
{
closed = 1;
nodes = (
"458 78 OFFCURVE",
"455 29 OFFCURVE",
"455 0 CURVE",
"596 0 OFFCURVE",
"682 142 OFFCURVE",
"682 245 CURVE SMOOTH",
"682 297 OFFCURVE",
"662 348 OFFCURVE",
"634 416 CURVE",
"622 416 LINE",
"574 323 LINE",
"597 277 OFFCURVE",
"633 189 OFFCURVE",
"623 150 CURVE",
"589 129 OFFCURVE",
"534 117 OFFCURVE",
"490 117 CURVE"
);
},
{
closed = 1;
nodes = (
"717 78 OFFCURVE",
"714 29 OFFCURVE",
"714 0 CURVE",
"855 0 OFFCURVE",
"941 142 OFFCURVE",
"941 245 CURVE SMOOTH",
"941 297 OFFCURVE",
"921 348 OFFCURVE",
"893 416 CURVE",
"881 416 LINE",
"833 323 LINE",
"856 277 OFFCURVE",
"892 189 OFFCURVE",
"882 150 CURVE",
"848 129 OFFCURVE",
"793 117 OFFCURVE",
"749 117 CURVE"
);
},
{
closed = 1;
nodes = (
"586 87 LINE",
"608 25 OFFCURVE",
"658 0 OFFCURVE",
"714 0 CURVE",
"746 39 OFFCURVE",
"757 78 OFFCURVE",
"749 117 CURVE",
"691 117 OFFCURVE",
"651 129 OFFCURVE",
"633 158 CURVE"
);
},
{
closed = 1;
nodes = (
"149 78 OFFCURVE",
"146 29 OFFCURVE",
"146 0 CURVE",
"239 0 OFFCURVE",
"333 38 OFFCURVE",
"372 96 CURVE SMOOTH",
"403 143 OFFCURVE",
"423 198 OFFCURVE",
"423 245 CURVE SMOOTH",
"423 297 OFFCURVE",
"403 348 OFFCURVE",
"375 416 CURVE",
"363 416 LINE",
"315 323 LINE",
"338 277 OFFCURVE",
"374 189 OFFCURVE",
"364 150 CURVE",
"313 128 OFFCURVE",
"235 117 OFFCURVE",
"181 117 CURVE"
);
},
{
closed = 1;
nodes = (
"168 39 OFFCURVE",
"179 78 OFFCURVE",
"181 117 CURVE",
"144 117 OFFCURVE",
"115 124 OFFCURVE",
"98 137 CURVE",
"50 43 LINE",
"58 15 OFFCURVE",
"91 0 OFFCURVE",
"146 0 CURVE"
);
},
{
closed = 1;
nodes = (
"0 -495 LINE",
"0 818 LINE",
"991 818 LINE",
"991 -495 LINE"
);
}
);
};
components = (
{
alignment = -1;
name = _part.avst.right.connector;
transform = "{1, 0, 0, 1, 2, 0}";
},
{
alignment = -1;
name = _part.avst.alef.head;
transform = "{1, 0, 0, 1, 455, 0}";
},
{
alignment = -1;
name = _part.avst.alef.head;
transform = "{1, 0, 0, 1, 714, 0}";
},
{
alignment = -1;
name = _part.avst.right.connector;
transform = "{1, 0, 0, 1, 261, 0}";
},
{
alignment = -1;
name = _part.avst.ee.avestan;
transform = "{1, 0, 0, 1, -32, 0}";
},
{
alignment = -1;
name = _part.avst.keheh_ending;
transform = "{1, 0, 0, 1, 2, 0}";
}
);
layerId = m01;
width = 991;
}
);
unicode = 10B01;
},
{
glyphname = "aan-avestan";
layers = (
{
background = {
paths = (
{
closed = 1;
nodes = (
"509 -225 OFFCURVE",
"456 -289 OFFCURVE",
"456 -366 CURVE SMOOTH",
"456 -430 OFFCURVE",
"496 -461 OFFCURVE",
"565 -461 CURVE SMOOTH",
"658 -461 OFFCURVE",
"751 -404 OFFCURVE",
"832 -356 CURVE",
"832 -290 LINE",
"752 -316 OFFCURVE",
"665 -344 OFFCURVE",
"597 -344 CURVE SMOOTH",
"558 -344 OFFCURVE",
"509 -332 OFFCURVE",
"509 -294 CURVE",
"586 -141 OFFCURVE",
"590 -41 OFFCURVE",
"555 67 CURVE",
"535 47 LINE",
"550 20 OFFCURVE",
"580 0 OFFCURVE",
"622 0 CURVE",
"654 29 OFFCURVE",
"665 78 OFFCURVE",
"657 117 CURVE",
"536 117 OFFCURVE",
"515 208 OFFCURVE",
"456 362 CURVE",
"444 362 LINE",
"396 269 LINE",
"460 128 OFFCURVE",
"509 14 OFFCURVE",
"509 -105 CURVE SMOOTH"
);
},
{
closed = 1;
nodes = (
"497 -100 LINE",
"417 -100 OFFCURVE",
"392 -60 OFFCURVE",
"356 37 CURVE SMOOTH",
"340 80 LINE",
"328 80 LINE",
"280 -13 LINE",
"322 -112 OFFCURVE",
"327 -153 OFFCURVE",
"318 -185 CURVE",
"285 -214 OFFCURVE",
"228 -233 OFFCURVE",
"181 -233 CURVE",
"146 -350 LINE",
"266 -350 OFFCURVE",
"345 -246 OFFCURVE",
"362 -132 CURVE",
"347 -142 LINE",
"379 -192 OFFCURVE",
"429 -217 OFFCURVE",
"512 -217 CURVE"
);
},
{
closed = 1;
nodes = (
"625 78 OFFCURVE",
"622 29 OFFCURVE",
"622 0 CURVE",
"763 0 OFFCURVE",
"849 142 OFFCURVE",
"849 245 CURVE SMOOTH",
"849 297 OFFCURVE",
"829 348 OFFCURVE",
"801 416 CURVE",
"789 416 LINE",
"741 323 LINE",
"764 277 OFFCURVE",
"800 189 OFFCURVE",
"790 150 CURVE",
"756 129 OFFCURVE",
"701 117 OFFCURVE",
"657 117 CURVE"
);
},
{
closed = 1;
nodes = (
"168 -311 OFFCURVE",
"179 -272 OFFCURVE",
"181 -233 CURVE",
"144 -233 OFFCURVE",
"115 -226 OFFCURVE",
"98 -213 CURVE",
"50 -307 LINE",
"58 -335 OFFCURVE",
"91 -350 OFFCURVE",
"146 -350 CURVE"
);
},
{
closed = 1;
nodes = (
"492 -139 OFFCURVE",
"497 -178 OFFCURVE",
"512 -217 CURVE",
"598 -217 OFFCURVE",
"704 -182 OFFCURVE",
"832 -139 CURVE",
"832 -81 LINE",
"702 -94 OFFCURVE",
"574 -100 OFFCURVE",
"497 -100 CURVE"
);
},
{
closed = 1;
nodes = (
"0 -495 LINE",
"0 818 LINE",
"899 818 LINE",
"899 -495 LINE"
);
}
);
};
components = (
{
name = _part.avst.huzw.first;
transform = "{1, 0, 0, 1, 8, -217}";
}
);
layerId = m01;
paths = (
{
closed = 1;
nodes = (
"492 -139 OFFCURVE",
"497 -178 OFFCURVE",
"512 -217 CURVE",
"598 -217 OFFCURVE",
"704 -182 OFFCURVE",
"832 -139 CURVE",
"832 -81 LINE",
"702 -94 OFFCURVE",
"574 -100 OFFCURVE",
"497 -100 CURVE"
);
}
);
width = 899;
}
);
unicode = 10B05;
},
{
glyphname = "aao-avestan";
layers = (
{
background = {
paths = (
{
closed = 1;
nodes = (
"964 78 OFFCURVE",
"961 29 OFFCURVE",
"961 0 CURVE",
"1102 0 OFFCURVE",
"1188 142 OFFCURVE",
"1188 245 CURVE SMOOTH",
"1188 297 OFFCURVE",
"1168 348 OFFCURVE",
"1140 416 CURVE",
"1128 416 LINE",
"1080 323 LINE",
"1103 277 OFFCURVE",
"1139 189 OFFCURVE",
"1129 150 CURVE",
"1095 129 OFFCURVE",
"1040 117 OFFCURVE",
"996 117 CURVE"
);
},
{
closed = 1;
nodes = (
"833 87 LINE",
"855 25 OFFCURVE",
"905 0 OFFCURVE",
"961 0 CURVE",
"993 39 OFFCURVE",
"1004 78 OFFCURVE",
"996 117 CURVE",
"938 117 OFFCURVE",
"898 129 OFFCURVE",
"880 158 CURVE"
);
},
{
closed = 1;
nodes = (
"574 87 LINE",
"596 25 OFFCURVE",
"646 0 OFFCURVE",
"702 0 CURVE",
"734 39 OFFCURVE",
"745 78 OFFCURVE",
"737 117 CURVE",
"679 117 OFFCURVE",
"639 129 OFFCURVE",
"621 158 CURVE"
);
},
{
closed = 1;
nodes = (
"705 78 OFFCURVE",
"702 29 OFFCURVE",
"702 0 CURVE",
"843 0 OFFCURVE",
"929 142 OFFCURVE",
"929 245 CURVE SMOOTH",
"929 297 OFFCURVE",
"909 348 OFFCURVE",
"881 416 CURVE",
"869 416 LINE",
"821 323 LINE",
"844 277 OFFCURVE",
"880 189 OFFCURVE",
"870 150 CURVE",
"836 129 OFFCURVE",
"781 117 OFFCURVE",
"737 117 CURVE"
);
},
{
closed = 1;
nodes = (
"329 -246 LINE",
"324 -235 LINE",
"176 -203 OFFCURVE",
"105 -149 OFFCURVE",
"105 -92 CURVE SMOOTH",
"105 -31 OFFCURVE",
"201 30 OFFCURVE",
"275 73 CURVE",
"207 120 LINE",
"117 36 OFFCURVE",
"50 -48 OFFCURVE",
"50 -140 CURVE SMOOTH",
"50 -245 OFFCURVE",
"155 -312 OFFCURVE",
"281 -339 CURVE"
);
},
{
closed = 1;
nodes = (
"329 153 OFFCURVE",
"315 169 OFFCURVE",
"297 177 CURVE",
"218 161 OFFCURVE",
"140 183 OFFCURVE",
"118 221 CURVE",
"99 221 OFFCURVE",
"85 214 OFFCURVE",
"75 182 CURVE",
"75 85 OFFCURVE",
"198 73 OFFCURVE",
"275 73 CURVE"
);
},
{
closed = 1;
nodes = (
"118 221 LINE",
"145 260 OFFCURVE",
"208 299 OFFCURVE",
"258 299 CURVE SMOOTH",
"286 299 OFFCURVE",
"293 286 OFFCURVE",
"293 265 CURVE",
"305 265 LINE",
"340 330 OFFCURVE",
"353 416 OFFCURVE",
"285 416 CURVE SMOOTH",
"195 416 OFFCURVE",
"75 260 OFFCURVE",
"75 182 CURVE"
);
},
{
closed = 1;
nodes = (
"396 78 OFFCURVE",
"393 29 OFFCURVE",
"393 0 CURVE",
"486 0 OFFCURVE",
"580 38 OFFCURVE",
"619 96 CURVE SMOOTH",
"650 143 OFFCURVE",
"670 198 OFFCURVE",
"670 245 CURVE SMOOTH",
"670 297 OFFCURVE",
"650 348 OFFCURVE",
"622 416 CURVE",
"610 416 LINE",
"562 323 LINE",
"585 277 OFFCURVE",
"621 189 OFFCURVE",
"611 150 CURVE",
"560 128 OFFCURVE",
"482 117 OFFCURVE",
"428 117 CURVE"
);
},
{
closed = 1;
nodes = (
"265 87 LINE",
"287 25 OFFCURVE",
"337 0 OFFCURVE",
"393 0 CURVE",
"425 39 OFFCURVE",
"436 78 OFFCURVE",
"428 117 CURVE",
"370 117 OFFCURVE",
"330 129 OFFCURVE",
"312 158 CURVE"
);
},
{
closed = 1;
nodes = (
"0 -495 LINE",
"0 818 LINE",
"1238 818 LINE",
"1238 -495 LINE"
);
}
);
};
components = (
{
alignment = -1;
name = "_part.avst.ao-avestan.part";
transform = "{1, 0, 0, 1, 961, 0}";
},
{
alignment = -1;
name = "ao-avestan";
}
);
layerId = m01;
width = 1238;
}
);
unicode = 10B03;
},
{
glyphname = "ae-avestan";
layers = (
{
anchors = (
{
name = "#entry";
position = "{266, 0}";
}
);
background = {
paths = (
{
closed = 1;
nodes = (
"329 -246 LINE",
"324 -235 LINE",
"176 -203 OFFCURVE",
"105 -149 OFFCURVE",
"105 -92 CURVE SMOOTH",
"105 -31 OFFCURVE",
"201 30 OFFCURVE",
"275 73 CURVE",
"207 120 LINE",
"117 36 OFFCURVE",
"50 -48 OFFCURVE",
"50 -140 CURVE SMOOTH",
"50 -245 OFFCURVE",
"155 -312 OFFCURVE",
"281 -339 CURVE"
);
},
{
closed = 1;
nodes = (
"329 153 OFFCURVE",
"315 169 OFFCURVE",
"297 177 CURVE",
"218 161 OFFCURVE",
"140 183 OFFCURVE",
"118 221 CURVE",
"99 221 OFFCURVE",
"85 214 OFFCURVE",
"75 182 CURVE",
"75 85 OFFCURVE",
"198 73 OFFCURVE",
"275 73 CURVE"
);
},
{
closed = 1;
nodes = (
"118 221 LINE",
"145 260 OFFCURVE",
"208 299 OFFCURVE",
"258 299 CURVE SMOOTH",
"286 299 OFFCURVE",
"293 286 OFFCURVE",
"293 265 CURVE",
"305 265 LINE",
"340 330 OFFCURVE",
"353 416 OFFCURVE",
"285 416 CURVE SMOOTH",
"195 416 OFFCURVE",
"75 260 OFFCURVE",
"75 182 CURVE"
);
},
{
closed = 1;
nodes = (
"0 -495 LINE",
"0 818 LINE",
"384 818 LINE",
"384 -495 LINE"
);
}
);
};
components = (
{
name = _part.avst.head.ain;
},
{
name = _part.avst.ain.curve;
}
);
layerId = m01;
width = 384;
}
);
unicode = 10B06;
},
{
glyphname = "aee-avestan";
layers = (
{
background = {
paths = (
{
closed = 1;
nodes = (
"329 153 OFFCURVE",
"315 169 OFFCURVE",
"297 177 CURVE",
"218 161 OFFCURVE",
"140 183 OFFCURVE",
"118 221 CURVE",
"99 221 OFFCURVE",
"85 214 OFFCURVE",
"75 182 CURVE",
"75 85 OFFCURVE",
"198 73 OFFCURVE",
"275 73 CURVE"
);
},
{
closed = 1;
nodes = (
"118 221 LINE",
"145 260 OFFCURVE",
"208 299 OFFCURVE",
"258 299 CURVE SMOOTH",
"286 299 OFFCURVE",
"293 286 OFFCURVE",
"293 265 CURVE",
"305 265 LINE",
"340 330 OFFCURVE",
"353 416 OFFCURVE",
"285 416 CURVE SMOOTH",
"195 416 OFFCURVE",
"75 260 OFFCURVE",
"75 182 CURVE"
);
},
{
closed = 1;
nodes = (
"347 -511 OFFCURVE",
"368 -450 OFFCURVE",
"368 -406 CURVE SMOOTH",
"368 -254 OFFCURVE",
"91 -227 OFFCURVE",
"91 -109 CURVE SMOOTH",
"91 -48 OFFCURVE",
"186 19 OFFCURVE",
"275 73 CURVE",
"207 120 LINE",
"119 41 OFFCURVE",
"50 -48 OFFCURVE",
"50 -140 CURVE SMOOTH",
"50 -330 OFFCURVE",
"314 -342 OFFCURVE",
"317 -482 CURVE SMOOTH",
"317 -494 OFFCURVE",
"313 -511 OFFCURVE",
"310 -524 CURVE",
"339 -533 LINE"
);
},
{
closed = 1;
nodes = (
"0 -495 LINE",
"0 818 LINE",
"418 818 LINE",
"418 -495 LINE"
);
}
);
};
components = (
{
alignment = -1;
name = _part.avst.head.ain;
},
{
name = _part.avst.tail.ain;
}
);
layerId = m01;
width = 418;
}
);
unicode = 10B07;
},
{
glyphname = "an-avestan";
layers = (
{
background = {
paths = (
{
closed = 1;
nodes = (
"574 78 OFFCURVE",
"571 29 OFFCURVE",
"571 0 CURVE",
"712 0 OFFCURVE",
"798 142 OFFCURVE",
"798 245 CURVE SMOOTH",
"798 297 OFFCURVE",
"778 348 OFFCURVE",
"750 416 CURVE",
"738 416 LINE",
"690 323 LINE",
"713 277 OFFCURVE",
"749 189 OFFCURVE",
"739 150 CURVE",
"705 129 OFFCURVE",
"650 117 OFFCURVE",
"606 117 CURVE"
);
},
{
closed = 1;
nodes = (
"833 78 OFFCURVE",
"830 29 OFFCURVE",
"830 0 CURVE",
"971 0 OFFCURVE",
"1057 142 OFFCURVE",
"1057 245 CURVE SMOOTH",
"1057 297 OFFCURVE",
"1037 348 OFFCURVE",
"1009 416 CURVE",
"997 416 LINE",
"949 323 LINE",
"972 277 OFFCURVE",
"1008 189 OFFCURVE",
"998 150 CURVE",
"964 129 OFFCURVE",
"909 117 OFFCURVE",
"865 117 CURVE"
);
},
{
closed = 1;
nodes = (
"702 87 LINE",
"724 25 OFFCURVE",
"774 0 OFFCURVE",
"830 0 CURVE",
"862 39 OFFCURVE",
"873 78 OFFCURVE",
"865 117 CURVE",
"807 117 OFFCURVE",
"767 129 OFFCURVE",
"749 158 CURVE"
);
},
{
closed = 1;
nodes = (
"458 -184 OFFCURVE",
"421 -240 OFFCURVE",
"421 -306 CURVE SMOOTH",
"421 -380 OFFCURVE",
"486 -441 OFFCURVE",
"567 -441 CURVE SMOOTH",
"664 -441 OFFCURVE",
"788 -383 OFFCURVE",
"883 -383 CURVE SMOOTH",
"924 -383 OFFCURVE",
"947 -395 OFFCURVE",
"966 -401 CURVE",
"1000 -336 LINE",
"960 -312 OFFCURVE",
"924 -295 OFFCURVE",
"855 -295 CURVE SMOOTH",
"787 -295 OFFCURVE",
"686 -324 OFFCURVE",
"599 -324 CURVE SMOOTH",
"519 -324 OFFCURVE",
"481 -285 OFFCURVE",
"476 -228 CURVE",
"515 -132 OFFCURVE",
"529 -59 OFFCURVE",
"517 14 CURVE",
"532 5 OFFCURVE",
"550 0 OFFCURVE",
"571 0 CURVE",
"603 29 OFFCURVE",
"614 78 OFFCURVE",
"606 117 CURVE",
"485 117 OFFCURVE",
"464 208 OFFCURVE",
"405 362 CURVE",
"393 362 LINE",
"345 269 LINE",
"409 128 OFFCURVE",
"458 14 OFFCURVE",
"458 -105 CURVE SMOOTH"
);
},
{
closed = 1;
nodes = (
"432 -5 OFFCURVE",
"415 -25 OFFCURVE",
"399 -56 CURVE",
"399 -139 OFFCURVE",
"302 -249 OFFCURVE",
"95 -387 CURVE",
"95 -421 LINE",
"126 -421 OFFCURVE",
"206 -418 OFFCURVE",
"269 -376 CURVE SMOOTH",
"383 -299 OFFCURVE",
"448 -113 OFFCURVE",
"448 6 CURVE"
);
},
{
closed = 1;
nodes = (
"448 6 LINE",
"448 108 OFFCURVE",
"219 286 OFFCURVE",
"138 286 CURVE SMOOTH",
"92 286 OFFCURVE",
"66 234 OFFCURVE",
"50 173 CURVE",
"61 161 LINE",
"79 188 OFFCURVE",
"92 195 OFFCURVE",
"111 195 CURVE SMOOTH",
"175 195 OFFCURVE",
"399 45 OFFCURVE",
"399 -56 CURVE"
);
},
{
closed = 1;
nodes = (
"0 -495 LINE",
"0 818 LINE",
"1107 818 LINE",
"1107 -495 LINE"
);
}
);
};
components = (
{
alignment = -1;
name = _part.avst.alef.head;
transform = "{1, 0, 0, 1, 830, 0}";
},
{
alignment = -1;
name = _part.avst.right.connector;
transform = "{1, 0, 0, 1, 377, 0}";
},
{
alignment = -1;
name = _part.avst.alef.head;
transform = "{1, 0, 0, 1, 571, 0}";
},
{
alignment = -1;
name = _part.avst.reh.tail;
transform = "{1, 0, 0, 1, 296, 0}";
},
{
alignment = -1;
name = "_part.avst.an-avestan.end";
}
);
layerId = m01;
width = 1107;
}
);
unicode = 10B04;
},
{
glyphname = "ao-avestan";
layers = (
{
anchors = (
{
name = "#entry";
position = "{848, 0}";
}
);
background = {
paths = (
{
closed = 1;
nodes = (
"574 87 LINE",
"596 25 OFFCURVE",
"646 0 OFFCURVE",
"702 0 CURVE",
"734 39 OFFCURVE",
"745 78 OFFCURVE",
"737 117 CURVE",
"679 117 OFFCURVE",
"639 129 OFFCURVE",
"621 158 CURVE"
);
},
{
closed = 1;
nodes = (
"705 78 OFFCURVE",
"702 29 OFFCURVE",
"702 0 CURVE",
"843 0 OFFCURVE",
"929 142 OFFCURVE",
"929 245 CURVE SMOOTH",
"929 297 OFFCURVE",
"909 348 OFFCURVE",
"881 416 CURVE",
"869 416 LINE",
"821 323 LINE",
"844 277 OFFCURVE",
"880 189 OFFCURVE",
"870 150 CURVE",
"836 129 OFFCURVE",
"781 117 OFFCURVE",
"737 117 CURVE"
);
},
{
closed = 1;
nodes = (
"329 -246 LINE",
"324 -235 LINE",
"176 -203 OFFCURVE",
"105 -149 OFFCURVE",
"105 -92 CURVE SMOOTH",
"105 -31 OFFCURVE",
"201 30 OFFCURVE",
"275 73 CURVE",
"207 120 LINE",
"117 36 OFFCURVE",
"50 -48 OFFCURVE",
"50 -140 CURVE SMOOTH",
"50 -245 OFFCURVE",
"155 -312 OFFCURVE",
"281 -339 CURVE"
);
},
{
closed = 1;
nodes = (
"329 153 OFFCURVE",
"315 169 OFFCURVE",
"297 177 CURVE",
"218 161 OFFCURVE",
"140 183 OFFCURVE",
"118 221 CURVE",
"99 221 OFFCURVE",
"85 214 OFFCURVE",
"75 182 CURVE",
"75 85 OFFCURVE",
"198 73 OFFCURVE",
"275 73 CURVE"
);
},
{
closed = 1;
nodes = (
"118 221 LINE",
"145 260 OFFCURVE",
"208 299 OFFCURVE",
"258 299 CURVE SMOOTH",
"286 299 OFFCURVE",
"293 286 OFFCURVE",
"293 265 CURVE",
"305 265 LINE",
"340 330 OFFCURVE",
"353 416 OFFCURVE",
"285 416 CURVE SMOOTH",
"195 416 OFFCURVE",
"75 260 OFFCURVE",
"75 182 CURVE"
);
},
{
closed = 1;
nodes = (
"396 78 OFFCURVE",
"393 29 OFFCURVE",
"393 0 CURVE",
"486 0 OFFCURVE",
"580 38 OFFCURVE",
"619 96 CURVE SMOOTH",
"650 143 OFFCURVE",
"670 198 OFFCURVE",
"670 245 CURVE SMOOTH",
"670 297 OFFCURVE",
"650 348 OFFCURVE",
"622 416 CURVE",
"610 416 LINE",
"562 323 LINE",
"585 277 OFFCURVE",
"621 189 OFFCURVE",
"611 150 CURVE",
"560 128 OFFCURVE",
"482 117 OFFCURVE",
"428 117 CURVE"
);
},
{
closed = 1;
nodes = (
"265 87 LINE",
"287 25 OFFCURVE",
"337 0 OFFCURVE",
"393 0 CURVE",
"425 39 OFFCURVE",
"436 78 OFFCURVE",
"428 117 CURVE",
"370 117 OFFCURVE",
"330 129 OFFCURVE",
"312 158 CURVE"
);
},
{
closed = 1;
nodes = (
"0 -495 LINE",
"0 818 LINE",
"979 818 LINE",
"979 -495 LINE"
);
}
);
};
components = (
{
alignment = -1;
name = "_part.avst.ao-avestan.part";
transform = "{1, 0, 0, 1, 702, 0}";
},
{
alignment = -1;
name = _part.avst.ee.avestan;
transform = "{1, 0, 0, 1, 215, 0}";
},
{
alignment = -1;
name = _part.avst.right.connector;
transform = "{1, 0, 0, 1, -60, 0}";
},
{
alignment = -1;
name = "ae-avestan";
}
);
layerId = m01;
width = 979;
}
);
unicode = 10B02;
},
{
glyphname = "be-avestan";
layers = (
{
background = {
paths = (
{
closed = 1;
nodes = (
"193 -118 OFFCURVE",
"219 -94 OFFCURVE",
"226 -61 CURVE",
"226 18 OFFCURVE",
"201 122 OFFCURVE",
"175 235 CURVE SMOOTH",
"133 416 LINE",
"121 416 LINE",
"66 307 LINE",
"102 174 LINE SMOOTH",
"145 16 OFFCURVE",
"176 -79 OFFCURVE",
"176 -131 CURVE"
);
},
{
closed = 1;
nodes = (
"-84 -378 OFFCURVE",
"81 -357 OFFCURVE",
"163 -251 CURVE SMOOTH",
"180 -229 OFFCURVE",
"192 -206 OFFCURVE",
"204 -178 CURVE SMOOTH",
"217 -148 OFFCURVE",
"226 -111 OFFCURVE",
"226 -61 CURVE",
"176 -131 LINE",
"176 -188 OFFCURVE",
"125 -245 OFFCURVE",
"-75 -261 CURVE SMOOTH",
"-332 -281 OFFCURVE",
"-825 -267 OFFCURVE",
"-1062 -256 CURVE",
"-1100 -331 LINE",
"-953 -363 OFFCURVE",
"-606 -378 OFFCURVE",
"-433 -378 CURVE SMOOTH"
);
},
{
closed = 1;
nodes = (
"0 -495 LINE",
"0 818 LINE",
"276 818 LINE",
"276 -495 LINE"
);
}
);
};
components = (
{
name = _part.avst.beh.madd;
transform = "{1, 0, 0, 1, 150, -39}";
}
);
layerId = m01;
paths = (
{
closed = 1;
nodes = (
"343 -158 OFFCURVE",
"369 -134 OFFCURVE",
"376 -101 CURVE",
"376 -2 OFFCURVE",
"351 122 OFFCURVE",
"325 235 CURVE SMOOTH",
"283 416 LINE",
"271 416 LINE",
"216 307 LINE",
"252 174 LINE SMOOTH",
"295 16 OFFCURVE",
"326 -99 OFFCURVE",
"326 -171 CURVE"
);
}
);
width = 426;
}
);
unicode = 10B20;
},
{
glyphname = "be-avestan.calt";
layers = (
{
layerId = m01;
paths = (
{
closed = 1;
nodes = (
"325 -478 OFFCURVE",
"228 -524 OFFCURVE",
"45 -539 CURVE SMOOTH",
"-49 -547 OFFCURVE",
"-226 -549 OFFCURVE",
"-360 -549 CURVE SMOOTH",
"-590 -549 OFFCURVE",
"-912 -541 OFFCURVE",
"-1062 -534 CURVE",
"-1100 -609 LINE",
"-953 -641 OFFCURVE",
"-536 -656 OFFCURVE",
"-363 -656 CURVE SMOOTH",
"-14 -656 OFFCURVE",
"191 -632 OFFCURVE",
"288 -526 CURVE SMOOTH",
"356 -451 OFFCURVE",
"377 -375 OFFCURVE",
"377 -254 CURVE SMOOTH",
"377 -94 OFFCURVE",
"332 155 OFFCURVE",
"283 416 CURVE",
"271 416 LINE",
"216 307 LINE",
"258 109 OFFCURVE",
"325 -197 OFFCURVE",
"325 -339 CURVE SMOOTH"
);
}
);
width = 427;
}
);
rightMetricsKey = "be-avestan";
},
{
glyphname = "bhe-avestan";
layers = (
{
background = {
paths = (
{
closed = 1;
nodes = (
"50 -136 OFFCURVE",
"116 -231 OFFCURVE",
"282 -231 CURVE",
"304 -192 OFFCURVE",
"315 -153 OFFCURVE",
"317 -114 CURVE",
"174 -114 OFFCURVE",
"102 -56 OFFCURVE",
"102 41 CURVE",
"85 33 OFFCURVE",
"67 15 OFFCURVE",
"50 -13 CURVE"
);
},
{
closed = 1;
nodes = (
"102 41 LINE",
"102 142 OFFCURVE",
"202 279 OFFCURVE",
"263 279 CURVE SMOOTH",
"310 279 OFFCURVE",
"340 214 OFFCURVE",
"349 191 CURVE",
"326 168 OFFCURVE",
"264 144 OFFCURVE",
"197 144 CURVE SMOOTH",
"163 144 OFFCURVE",
"139 151 OFFCURVE",
"122 164 CURVE",
"74 70 LINE",
"82 42 OFFCURVE",
"122 27 OFFCURVE",
"162 27 CURVE SMOOTH",
"238 27 OFFCURVE",
"292 66 OFFCURVE",
"322 100 CURVE SMOOTH",
"351 134 OFFCURVE",
"391 194 OFFCURVE",
"391 248 CURVE SMOOTH",
"391 307 OFFCURVE",
"360 396 OFFCURVE",
"308 396 CURVE SMOOTH",
"234 396 OFFCURVE",
"50 134 OFFCURVE",
"50 -13 CURVE"
);
},
{
closed = 1;
nodes = (
"295 -153 OFFCURVE",
"284 -192 OFFCURVE",
"282 -231 CURVE",
"436 -231 OFFCURVE",
"560 -176 OFFCURVE",
"606 -96 CURVE SMOOTH",
"676 26 OFFCURVE",
"666 149 OFFCURVE",
"637 270 CURVE SMOOTH",
"602 416 LINE",
"590 416 LINE",
"535 307 LINE",
"571 174 LINE SMOOTH",
"599 71 OFFCURVE",
"613 4 OFFCURVE",
"590 -54 CURVE",
"518 -92 OFFCURVE",
"408 -114 OFFCURVE",
"317 -114 CURVE"
);
},
{
closed = 1;
nodes = (
"503 -134 LINE",
"536 -193 OFFCURVE",
"601 -231 OFFCURVE",
"706 -231 CURVE",
"742 -192 OFFCURVE",
"750 -153 OFFCURVE",
"741 -114 CURVE",
"663 -114 OFFCURVE",
"606 -97 OFFCURVE",
"570 -65 CURVE"
);
},
{
closed = 1;
nodes = (
"1035 17 OFFCURVE",
"1023 156 OFFCURVE",
"977 266 CURVE",
"1010 289 OFFCURVE",
"1062 306 OFFCURVE",
"1109 305 CURVE",
"1164 414 LINE",
"1156 424 LINE",
"1081 435 OFFCURVE",
"977 390 OFFCURVE",
"935 316 CURVE SMOOTH",
"918 286 OFFCURVE",
"904 257 OFFCURVE",
"891 227 CURVE",
"923 168 OFFCURVE",
"974 45 OFFCURVE",
"948 -54 CURVE",
"964 -94 LINE"
);
},
{
closed = 1;
nodes = (
"965 -79 OFFCURVE",
"963 -67 OFFCURVE",
"948 -54 CURVE",
"897 -95 OFFCURVE",
"812 -114 OFFCURVE",
"741 -114 CURVE",
"719 -153 OFFCURVE",
"708 -192 OFFCURVE",
"706 -231 CURVE",
"826 -231 OFFCURVE",
"913 -174 OFFCURVE",
"964 -94 CURVE"
);
},
{
closed = 1;
nodes = (
"0 -495 LINE",
"0 818 LINE",
"1214 818 LINE",
"1214 -495 LINE"
);
}
);
};
components = (
{
alignment = -1;
name = _part.avst.head.peh;
},
{
alignment = -1;
name = _part.avst.peh.ending;
},
{
alignment = -1;
name = _part.avst.head.bhe;
}
);
layerId = m01;
paths = (
{
closed = 1;
nodes = (
"503 -134 LINE",
"536 -193 OFFCURVE",
"601 -231 OFFCURVE",
"706 -231 CURVE",
"742 -192 OFFCURVE",
"750 -153 OFFCURVE",
"741 -114 CURVE",
"663 -114 OFFCURVE",
"606 -97 OFFCURVE",
"570 -65 CURVE"
);
},
{
closed = 1;
nodes = (
"965 -79 OFFCURVE",
"963 -67 OFFCURVE",
"948 -54 CURVE",
"897 -95 OFFCURVE",
"812 -114 OFFCURVE",
"741 -114 CURVE",
"719 -153 OFFCURVE",
"708 -192 OFFCURVE",
"706 -231 CURVE",
"826 -231 OFFCURVE",
"913 -174 OFFCURVE",
"964 -94 CURVE"
);
}
);
width = 1214;
}
);
unicode = 10B21;
},
{
glyphname = "ce-avestan";
layers = (
{
background = {
paths = (
{
closed = 1;
nodes = (
"251 117 OFFCURVE",
"212 146 OFFCURVE",
"171 226 CURVE",
"197 27 LINE",
"212 7 OFFCURVE",
"240 0 OFFCURVE",
"274 0 CURVE",
"306 39 OFFCURVE",
"317 78 OFFCURVE",
"309 117 CURVE"
);
},
{
closed = 1;
nodes = (
"171 226 LINE",
"153 261 OFFCURVE",
"133 306 OFFCURVE",
"110 362 CURVE",
"98 362 LINE",
"50 269 LINE",
"118 140 LINE SMOOTH",
"154 71 OFFCURVE",
"161 20 OFFCURVE",
"161 -45 CURVE SMOOTH",
"161 -100 OFFCURVE",
"150 -165 OFFCURVE",
"137 -235 CURVE",
"166 -244 LINE",
"199 -149 OFFCURVE",
"220 -70 OFFCURVE",
"218 0 CURVE SMOOTH",
"216 57 LINE"
);
},
{
closed = 1;
nodes = (
"277 78 OFFCURVE",
"274 29 OFFCURVE",
"274 0 CURVE",
"415 0 OFFCURVE",
"501 142 OFFCURVE",
"501 245 CURVE SMOOTH",
"501 297 OFFCURVE",
"481 348 OFFCURVE",
"453 416 CURVE",
"441 416 LINE",
"393 323 LINE",
"416 277 OFFCURVE",
"452 189 OFFCURVE",
"442 150 CURVE",
"408 129 OFFCURVE",
"353 117 OFFCURVE",
"309 117 CURVE"
);
},
{
closed = 1;
nodes = (
"0 -495 LINE",
"0 818 LINE",
"551 818 LINE",
"551 -495 LINE"
);
}
);
};
components = (
{
name = _part.avst.reh.last;
},
{
alignment = -1;
name = _part.avst.alef.head;
transform = "{1, 0, 0, 1, 274, 0}";
}
);
layerId = m01;
paths = (
{
closed = 1;
nodes = (
"251 117 OFFCURVE",
"212 146 OFFCURVE",
"171 226 CURVE",
"197 27 LINE",
"212 7 OFFCURVE",
"240 0 OFFCURVE",
"274 0 CURVE",
"306 39 OFFCURVE",
"317 78 OFFCURVE",
"309 117 CURVE"
);
}
);
width = 551;
}
);
unicode = 10B17;
},
{
glyphname = "de-avestan";
layers = (
{
background = {
paths = (
{
closed = 1;
nodes = (
"166 -378 OFFCURVE",
"331 -357 OFFCURVE",
"413 -251 CURVE SMOOTH",
"430 -229 OFFCURVE",
"442 -206 OFFCURVE",
"454 -178 CURVE SMOOTH",
"467 -148 OFFCURVE",
"476 -111 OFFCURVE",
"476 -61 CURVE",
"426 -131 LINE",
"426 -188 OFFCURVE",
"375 -245 OFFCURVE",
"175 -261 CURVE SMOOTH",
"-82 -281 OFFCURVE",
"-575 -267 OFFCURVE",
"-812 -256 CURVE",
"-850 -331 LINE",
"-703 -363 OFFCURVE",
"-356 -378 OFFCURVE",
"-183 -378 CURVE SMOOTH"
);
},
{
closed = 1;
nodes = (
"426 -46 OFFCURVE",
"426 -131 CURVE",
"443 -118 OFFCURVE",
"459 -94 OFFCURVE",
"476 -61 CURVE",
"476 49 OFFCURVE",
"431 416 OFFCURVE",
"311 416 CURVE SMOOTH",
"233 416 OFFCURVE",
"144 229 OFFCURVE",
"144 140 CURVE SMOOTH",
"144 53 OFFCURVE",
"186 7 OFFCURVE",
"268 7 CURVE SMOOTH",
"322 7 OFFCURVE",
"373 27 OFFCURVE",
"414 56 CURVE",
"405 149 LINE",
"368 135 OFFCURVE",
"319 124 OFFCURVE",
"276 124 CURVE SMOOTH",
"222 124 OFFCURVE",
"195 138 OFFCURVE",
"183 170 CURVE",
"193 217 OFFCURVE",
"243 299 OFFCURVE",
"284 299 CURVE SMOOTH",
"369 299 OFFCURVE"
);
},
{
closed = 1;
nodes = (
"100 -495 LINE",
"100 818 LINE",
"526 818 LINE",
"526 -495 LINE"
);
}
);
};
components = (
{
name = _part.avst.beh.madd;
transform = "{1, 0, 0, 1, 250, -39}";
}
);
layerId = m01;
paths = (
{
closed = 1;
nodes = (
"369 299 OFFCURVE",
"426 -66 OFFCURVE",
"426 -171 CURVE",
"443 -158 OFFCURVE",
"459 -134 OFFCURVE",
"476 -101 CURVE",
"476 49 OFFCURVE",
"431 416 OFFCURVE",
"311 416 CURVE SMOOTH",
"233 416 OFFCURVE",
"144 229 OFFCURVE",
"144 140 CURVE SMOOTH",
"144 53 OFFCURVE",
"186 7 OFFCURVE",
"268 7 CURVE SMOOTH",
"322 7 OFFCURVE",
"373 27 OFFCURVE",
"414 56 CURVE",
"405 149 LINE",
"368 135 OFFCURVE",
"319 124 OFFCURVE",
"276 124 CURVE SMOOTH",
"222 124 OFFCURVE",
"195 138 OFFCURVE",
"183 170 CURVE",
"193 217 OFFCURVE",
"243 299 OFFCURVE",
"284 299 CURVE SMOOTH"
);
}
);
width = 526;
}
);
unicode = 10B1B;
},
{
glyphname = "de-avestan.calt";
layers = (
{
layerId = m01;
paths = (
{
closed = 1;
nodes = (
"436 142 LINE",
"403 132 OFFCURVE",
"363 124 OFFCURVE",
"327 124 CURVE SMOOTH",
"273 124 OFFCURVE",
"246 138 OFFCURVE",
"234 170 CURVE",
"244 217 OFFCURVE",
"294 299 OFFCURVE",
"335 299 CURVE SMOOTH",
"433 299 OFFCURVE",
"485 -228 OFFCURVE",
"485 -339 CURVE SMOOTH",
"485 -478 OFFCURVE",
"378 -524 OFFCURVE",
"195 -539 CURVE SMOOTH",
"101 -547 OFFCURVE",
"-76 -549 OFFCURVE",
"-210 -549 CURVE SMOOTH",
"-440 -549 OFFCURVE",
"-912 -541 OFFCURVE",
"-1062 -534 CURVE",
"-1100 -609 LINE",
"-953 -641 OFFCURVE",
"-386 -656 OFFCURVE",
"-213 -656 CURVE SMOOTH",
"136 -656 OFFCURVE",
"351 -632 OFFCURVE",
"448 -526 CURVE SMOOTH",
"516 -451 OFFCURVE",
"537 -375 OFFCURVE",
"537 -254 CURVE SMOOTH",
"537 -115 OFFCURVE",
"496 416 OFFCURVE",
"362 416 CURVE SMOOTH",
"284 416 OFFCURVE",
"195 229 OFFCURVE",
"195 140 CURVE SMOOTH",
"195 53 OFFCURVE",
"237 7 OFFCURVE",
"319 7 CURVE SMOOTH",
"368 7 OFFCURVE",
"415 24 OFFCURVE",
"454 49 CURVE"
);
}
);
width = 587;
}
);
rightMetricsKey = "de-avestan";
},
{
glyphname = "dhe-avestan";
layers = (
{
anchors = (
{
name = "#entry";
position = "{446, 0}";
}
);
background = {
paths = (
{
closed = 1;
nodes = (
"50 78 LINE",
"50 42 OFFCURVE",
"56 -10 OFFCURVE",
"119 -67 CURVE SMOOTH",
"229 -167 OFFCURVE",
"302 -222 OFFCURVE",
"303 -288 CURVE SMOOTH",
"303 -300 OFFCURVE",
"299 -317 OFFCURVE",
"296 -330 CURVE",
"325 -339 LINE",
"333 -317 OFFCURVE",
"354 -256 OFFCURVE",
"354 -212 CURVE SMOOTH",
"354 -133 OFFCURVE",
"285 -86 OFFCURVE",
"197 -14 CURVE SMOOTH",
"145 28 OFFCURVE",
"82 79 OFFCURVE",
"93 128 CURVE"
);
},
{
closed = 1;
nodes = (
"87 109 LINE",
"123 177 OFFCURVE",
"292 299 OFFCURVE",
"395 299 CURVE SMOOTH",
"465 299 OFFCURVE",
"481 242 OFFCURVE",
"481 212 CURVE",
"467 184 OFFCURVE",
"431 149 OFFCURVE",
"378 149 CURVE SMOOTH",
"318 149 OFFCURVE",
"280 204 OFFCURVE",
"280 271 CURVE",
"224 250 LINE",
"224 108 OFFCURVE",
"271 32 OFFCURVE",
"343 32 CURVE SMOOTH",
"440 32 OFFCURVE",
"526 183 OFFCURVE",
"526 288 CURVE SMOOTH",
"526 347 OFFCURVE",
"494 416 OFFCURVE",
"424 416 CURVE SMOOTH",
"327 416 OFFCURVE",
"197 315 OFFCURVE",
"125 242 CURVE SMOOTH",
"81 198 OFFCURVE",
"50 119 OFFCURVE",
"50 78 CURVE"
);
},
{
closed = 1;
nodes = (
"0 -495 LINE",
"0 818 LINE",
"576 818 LINE",
"576 -495 LINE"
);
}
);
};
layerId = m01;
paths = (
{
closed = 1;
nodes = (
"50 78 LINE",
"50 42 OFFCURVE",
"56 -10 OFFCURVE",
"119 -67 CURVE SMOOTH",
"229 -167 OFFCURVE",
"302 -222 OFFCURVE",
"303 -288 CURVE SMOOTH",
"303 -300 OFFCURVE",
"299 -317 OFFCURVE",
"296 -330 CURVE",
"325 -339 LINE",
"333 -317 OFFCURVE",
"354 -256 OFFCURVE",
"354 -212 CURVE SMOOTH",
"354 -133 OFFCURVE",
"285 -86 OFFCURVE",
"197 -14 CURVE SMOOTH",
"145 28 OFFCURVE",
"82 79 OFFCURVE",
"93 128 CURVE"
);
},
{
closed = 1;
nodes = (
"87 109 LINE",
"123 177 OFFCURVE",
"292 299 OFFCURVE",
"395 299 CURVE SMOOTH",
"465 299 OFFCURVE",
"481 242 OFFCURVE",
"481 212 CURVE",
"467 184 OFFCURVE",
"431 149 OFFCURVE",
"378 149 CURVE SMOOTH",
"318 149 OFFCURVE",
"280 204 OFFCURVE",
"280 271 CURVE",
"224 250 LINE",
"224 108 OFFCURVE",
"271 32 OFFCURVE",
"343 32 CURVE SMOOTH",
"440 32 OFFCURVE",
"526 183 OFFCURVE",
"526 288 CURVE SMOOTH",
"526 347 OFFCURVE",
"494 416 OFFCURVE",
"424 416 CURVE SMOOTH",
"327 416 OFFCURVE",
"197 315 OFFCURVE",
"125 242 CURVE SMOOTH",
"81 198 OFFCURVE",
"50 119 OFFCURVE",
"50 78 CURVE"
);
}
);
width = 576;
}
);
unicode = 10B1C;
},
{
glyphname = "e-avestan";
layers = (
{
background = {
paths = (
{
closed = 1;
nodes = (
"251 117 OFFCURVE",
"212 146 OFFCURVE",
"171 226 CURVE",
"197 27 LINE",
"212 7 OFFCURVE",
"240 0 OFFCURVE",
"274 0 CURVE",
"306 39 OFFCURVE",
"317 78 OFFCURVE",
"309 117 CURVE"
);
},
{
closed = 1;
nodes = (
"171 226 LINE",
"153 261 OFFCURVE",
"133 306 OFFCURVE",
"110 362 CURVE",
"98 362 LINE",
"50 269 LINE",
"118 140 LINE SMOOTH",
"154 71 OFFCURVE",
"161 20 OFFCURVE",
"161 -45 CURVE SMOOTH",
"161 -100 OFFCURVE",
"150 -165 OFFCURVE",
"137 -235 CURVE",
"166 -244 LINE",
"199 -149 OFFCURVE",
"220 -70 OFFCURVE",
"218 0 CURVE SMOOTH",
"216 57 LINE"
);
},
{
closed = 1;
nodes = (
"277 78 OFFCURVE",
"274 29 OFFCURVE",
"274 0 CURVE",
"415 0 OFFCURVE",
"501 142 OFFCURVE",
"501 245 CURVE SMOOTH",
"501 297 OFFCURVE",
"481 348 OFFCURVE",
"453 416 CURVE",
"441 416 LINE",
"393 323 LINE",
"416 277 OFFCURVE",
"452 189 OFFCURVE",
"442 150 CURVE",
"408 129 OFFCURVE",
"353 117 OFFCURVE",
"309 117 CURVE"
);
},
{
closed = 1;
nodes = (
"729 -147 OFFCURVE",
"903 -54 OFFCURVE",
"903 151 CURVE SMOOTH",
"903 201 OFFCURVE",
"894 250 OFFCURVE",
"878 293 CURVE SMOOTH",
"850 365 OFFCURVE",
"803 416 OFFCURVE",
"764 416 CURVE SMOOTH",
"730 416 OFFCURVE",
"716 401 OFFCURVE",
"679 301 CURVE SMOOTH",
"666 266 OFFCURVE",
"679 208 OFFCURVE",
"732 208 CURVE SMOOTH",
"761 208 OFFCURVE",
"783 222 OFFCURVE",
"798 243 CURVE",
"848 174 OFFCURVE",
"855 115 OFFCURVE",
"845 43 CURVE",
"777 -9 OFFCURVE",
"705 -30 OFFCURVE",
"609 -30 CURVE SMOOTH",
"449 -30 OFFCURVE",
"427 48 OFFCURVE",
"447 115 CURVE",
"391 37 LINE",
"391 -76 OFFCURVE",
"458 -147 OFFCURVE",
"574 -147 CURVE SMOOTH"
);
},
{
closed = 1;
nodes = (
"0 -495 LINE",
"0 818 LINE",
"953 818 LINE",
"953 -495 LINE"
);
}
);
};
components = (
{
name = _part.avst.eh.halghe;
transform = "{1, 0, 0, 1, 391, 0}";
},
{
name = _part.avst.alef.head;
transform = "{1, 0, 0, 1, 274, 0}";
},
{
name = _part.avst.reh.last;
}
);
layerId = m01;
paths = (
{
closed = 1;
nodes = (
"251 117 OFFCURVE",
"212 146 OFFCURVE",
"171 226 CURVE",
"197 27 LINE",
"212 7 OFFCURVE",
"240 0 OFFCURVE",
"274 0 CURVE",
"306 39 OFFCURVE",
"317 78 OFFCURVE",
"309 117 CURVE"
);
}
);
width = 953;
}
);
unicode = 10B08;
},
{
glyphname = "ee-avestan";
layers = (
{
background = {
paths = (
{
closed = 1;
nodes = (
"279 78 OFFCURVE",
"276 29 OFFCURVE",
"276 0 CURVE",
"417 0 OFFCURVE",
"503 142 OFFCURVE",
"503 245 CURVE SMOOTH",
"503 297 OFFCURVE",
"483 348 OFFCURVE",
"455 416 CURVE",
"443 416 LINE",
"395 323 LINE",
"418 277 OFFCURVE",
"454 189 OFFCURVE",
"444 150 CURVE",
"410 129 OFFCURVE",
"355 117 OFFCURVE",
"311 117 CURVE"
);
},
{
closed = 1;
nodes = (
"731 -147 OFFCURVE",
"905 -54 OFFCURVE",
"905 151 CURVE SMOOTH",
"905 201 OFFCURVE",
"896 250 OFFCURVE",
"880 293 CURVE SMOOTH",
"852 365 OFFCURVE",
"805 416 OFFCURVE",
"766 416 CURVE SMOOTH",
"732 416 OFFCURVE",
"718 401 OFFCURVE",
"681 301 CURVE SMOOTH",
"668 266 OFFCURVE",
"681 208 OFFCURVE",
"734 208 CURVE SMOOTH",
"763 208 OFFCURVE",
"785 222 OFFCURVE",
"800 243 CURVE",
"850 174 OFFCURVE",
"857 115 OFFCURVE",
"847 43 CURVE",
"779 -9 OFFCURVE",
"707 -30 OFFCURVE",
"611 -30 CURVE SMOOTH",
"451 -30 OFFCURVE",
"429 48 OFFCURVE",
"449 115 CURVE",
"393 37 LINE",
"393 -76 OFFCURVE",
"460 -147 OFFCURVE",
"576 -147 CURVE SMOOTH"
);
},
{
closed = 1;
nodes = (
"163 -184 OFFCURVE",
"126 -240 OFFCURVE",
"126 -306 CURVE SMOOTH",
"126 -380 OFFCURVE",
"191 -441 OFFCURVE",
"272 -441 CURVE SMOOTH",
"369 -441 OFFCURVE",
"493 -383 OFFCURVE",
"588 -383 CURVE SMOOTH",
"629 -383 OFFCURVE",
"652 -395 OFFCURVE",
"671 -401 CURVE",
"705 -336 LINE",
"665 -312 OFFCURVE",
"629 -295 OFFCURVE",
"560 -295 CURVE SMOOTH",
"492 -295 OFFCURVE",
"391 -324 OFFCURVE",
"304 -324 CURVE SMOOTH",
"224 -324 OFFCURVE",
"186 -285 OFFCURVE",
"181 -228 CURVE",
"220 -132 OFFCURVE",
"234 -59 OFFCURVE",
"222 14 CURVE",
"237 5 OFFCURVE",
"255 0 OFFCURVE",
"276 0 CURVE",
"308 29 OFFCURVE",
"319 78 OFFCURVE",
"311 117 CURVE",
"190 117 OFFCURVE",
"169 208 OFFCURVE",
"110 362 CURVE",
"98 362 LINE",
"50 269 LINE",
"114 128 OFFCURVE",
"163 14 OFFCURVE",
"163 -105 CURVE SMOOTH"
);
},
{
closed = 1;
nodes = (
"446 -321 OFFCURVE",
"508 -195 OFFCURVE",
"585 -106 CURVE",
"531 -106 LINE",
"464 -200 OFFCURVE",
"399 -350 OFFCURVE",
"388 -514 CURVE",
"422 -531 LINE"
);
},
{
closed = 1;
nodes = (
"0 -495 LINE",
"0 818 LINE",
"955 818 LINE",
"955 -495 LINE"
);
}
);
};
components = (
{
name = "_part.avst.huzwaresh-x1-phlv.ss09";
}
);
layerId = m01;
paths = (
{
closed = 1;
nodes = (
"446 -321 OFFCURVE",
"508 -195 OFFCURVE",
"585 -106 CURVE",
"531 -106 LINE",
"464 -200 OFFCURVE",
"399 -350 OFFCURVE",
"388 -514 CURVE",
"422 -531 LINE"
);
}
);
width = 955;
}
);
unicode = 10B09;
},
{
glyphname = "fe-avestan";
layers = (
{
background = {
paths = (
{
closed = 1;
nodes = (
"50 -136 OFFCURVE",
"116 -231 OFFCURVE",
"282 -231 CURVE",
"304 -192 OFFCURVE",
"315 -153 OFFCURVE",
"317 -114 CURVE",
"174 -114 OFFCURVE",
"102 -56 OFFCURVE",
"102 41 CURVE",
"85 33 OFFCURVE",
"67 15 OFFCURVE",
"50 -13 CURVE"
);
},
{
closed = 1;
nodes = (
"102 41 LINE",
"102 142 OFFCURVE",
"202 279 OFFCURVE",
"263 279 CURVE SMOOTH",
"310 279 OFFCURVE",
"340 214 OFFCURVE",
"349 191 CURVE",
"326 168 OFFCURVE",
"264 144 OFFCURVE",
"197 144 CURVE SMOOTH",
"163 144 OFFCURVE",
"139 151 OFFCURVE",
"122 164 CURVE",
"74 70 LINE",
"82 42 OFFCURVE",
"122 27 OFFCURVE",
"162 27 CURVE SMOOTH",
"238 27 OFFCURVE",
"292 66 OFFCURVE",
"322 100 CURVE SMOOTH",
"351 134 OFFCURVE",
"391 194 OFFCURVE",
"391 248 CURVE SMOOTH",
"391 307 OFFCURVE",
"360 396 OFFCURVE",
"308 396 CURVE SMOOTH",
"234 396 OFFCURVE",
"50 134 OFFCURVE",
"50 -13 CURVE"
);
},
{
closed = 1;
nodes = (
"295 -153 OFFCURVE",
"284 -192 OFFCURVE",
"282 -231 CURVE",
"434 -231 OFFCURVE",
"588 -176 OFFCURVE",
"656 -99 CURVE SMOOTH",
"692 -58 OFFCURVE",
"734 18 OFFCURVE",
"734 87 CURVE SMOOTH",
"734 229 OFFCURVE",
"649 323 OFFCURVE",
"529 479 CURVE SMOOTH",
"452 579 OFFCURVE",
"367 704 OFFCURVE",
"367 818 CURVE",
"339 818 LINE",
"330 741 LINE SMOOTH",
"317 628 OFFCURVE",
"369 545 OFFCURVE",
"447 442 CURVE SMOOTH",
"579 266 OFFCURVE",
"709 122 OFFCURVE",
"660 -31 CURVE",
"572 -85 OFFCURVE",
"436 -114 OFFCURVE",
"317 -114 CURVE"
);
},
{
closed = 1;
nodes = (
"0 -495 LINE",
"0 818 LINE",
"784 818 LINE",
"784 -495 LINE"
);
}
);
};
components = (
{
alignment = -1;
name = _part.avst.peh.ending;
}
);
layerId = m01;
paths = (
{
closed = 1;
nodes = (
"295 -153 OFFCURVE",
"284 -192 OFFCURVE",
"282 -231 CURVE",
"434 -231 OFFCURVE",
"588 -176 OFFCURVE",
"656 -99 CURVE SMOOTH",
"692 -58 OFFCURVE",
"734 18 OFFCURVE",
"734 87 CURVE SMOOTH",
"734 229 OFFCURVE",
"649 323 OFFCURVE",
"529 479 CURVE SMOOTH",
"452 579 OFFCURVE",
"367 704 OFFCURVE",
"367 818 CURVE",
"339 818 LINE",
"330 741 LINE SMOOTH",
"317 628 OFFCURVE",
"369 545 OFFCURVE",
"447 442 CURVE SMOOTH",
"579 266 OFFCURVE",
"709 122 OFFCURVE",
"660 -31 CURVE",
"572 -85 OFFCURVE",
"436 -114 OFFCURVE",
"317 -114 CURVE"
);
}
);
width = 784;
}
);
unicode = 10B1F;
},
{
glyphname = "ge-avestan";
layers = (
{
background = {
paths = (
{
closed = 1;
nodes = (
"235 297 OFFCURVE",
"50 163 OFFCURVE",
"50 -59 CURVE SMOOTH",
"50 -178 OFFCURVE",
"162 -244 OFFCURVE",
"259 -244 CURVE SMOOTH",
"352 -244 OFFCURVE",
"435 -202 OFFCURVE",
"526 -159 CURVE",
"526 -93 LINE",
"436 -111 OFFCURVE",
"359 -127 OFFCURVE",
"291 -127 CURVE SMOOTH",
"195 -127 OFFCURVE",
"105 -78 OFFCURVE",
"105 19 CURVE SMOOTH",
"105 114 OFFCURVE",
"262 211 OFFCURVE",
"374 235 CURVE",
"358 266 LINE",
"314 130 OFFCURVE",
"365 -20 OFFCURVE",
"511 -20 CURVE SMOOTH",
"596 -20 OFFCURVE",
"689 35 OFFCURVE",
"732 102 CURVE SMOOTH",
"759 144 OFFCURVE",
"773 193 OFFCURVE",
"773 247 CURVE SMOOTH",
"773 337 OFFCURVE",
"714 436 OFFCURVE",
"658 436 CURVE SMOOTH",
"624 436 OFFCURVE",
"610 421 OFFCURVE",
"573 321 CURVE SMOOTH",
"560 286 OFFCURVE",
"573 228 OFFCURVE",
"626 228 CURVE SMOOTH",
"655 228 OFFCURVE",
"677 242 OFFCURVE",
"692 263 CURVE",
"716 242 OFFCURVE",
"736 211 OFFCURVE",
"728 170 CURVE",
"679 119 OFFCURVE",
"599 97 OFFCURVE",
"546 97 CURVE SMOOTH",
"435 97 OFFCURVE",
"378 169 OFFCURVE",
"392 242 CURVE SMOOTH",
"410 337 LINE",
"388 355 LINE"
);
},
{
closed = 1;
nodes = (
"0 -495 LINE",
"0 818 LINE",
"823 818 LINE",
"823 -495 LINE"
);
}
);
};
layerId = m01;
paths = (
{
closed = 1;
nodes = (
"235 297 OFFCURVE",
"50 163 OFFCURVE",
"50 -59 CURVE SMOOTH",
"50 -178 OFFCURVE",
"162 -244 OFFCURVE",
"259 -244 CURVE SMOOTH",
"352 -244 OFFCURVE",
"435 -202 OFFCURVE",
"526 -159 CURVE",
"526 -93 LINE",
"436 -111 OFFCURVE",
"359 -127 OFFCURVE",
"291 -127 CURVE SMOOTH",
"195 -127 OFFCURVE",
"105 -78 OFFCURVE",
"105 19 CURVE SMOOTH",
"105 114 OFFCURVE",
"262 211 OFFCURVE",
"374 235 CURVE",
"358 266 LINE",
"314 130 OFFCURVE",
"365 -20 OFFCURVE",
"511 -20 CURVE SMOOTH",
"596 -20 OFFCURVE",
"689 35 OFFCURVE",
"732 102 CURVE SMOOTH",
"759 144 OFFCURVE",
"773 193 OFFCURVE",
"773 247 CURVE SMOOTH",
"773 337 OFFCURVE",
"714 436 OFFCURVE",
"658 436 CURVE SMOOTH",
"624 436 OFFCURVE",
"610 421 OFFCURVE",
"573 321 CURVE SMOOTH",
"560 286 OFFCURVE",
"573 228 OFFCURVE",
"626 228 CURVE SMOOTH",
"655 228 OFFCURVE",
"677 242 OFFCURVE",
"692 263 CURVE",
"716 242 OFFCURVE",
"736 211 OFFCURVE",
"728 170 CURVE",
"679 119 OFFCURVE",
"599 97 OFFCURVE",
"546 97 CURVE SMOOTH",
"435 97 OFFCURVE",
"378 169 OFFCURVE",
"392 242 CURVE SMOOTH",
"410 337 LINE",
"388 355 LINE"
);
}
);
width = 823;
}
);
unicode = 10B14;
},
{
glyphname = "gge-avestan";
layers = (
{
anchors = (
{
name = "#entry";
position = "{433, 0}";
},
{
name = "#exit";
position = "{122, 0}";
}
);
background = {
paths = (
{
closed = 1;
nodes = (
"168 -192 OFFCURVE",
"179 -153 OFFCURVE",
"181 -114 CURVE",
"144 -114 OFFCURVE",
"115 -107 OFFCURVE",
"98 -94 CURVE",
"50 -188 LINE",
"58 -216 OFFCURVE",
"91 -231 OFFCURVE",
"146 -231 CURVE"
);
},
{
closed = 1;
nodes = (
"386 -35 LINE",
"325 -87 OFFCURVE",
"252 -114 OFFCURVE",
"181 -114 CURVE",
"146 -231 LINE",
"219 -231 OFFCURVE",
"322 -196 OFFCURVE",
"369 -123 CURVE"
);
},
{
closed = 1;
nodes = (
"369 -123 LINE",
"403 -71 OFFCURVE",
"430 1 OFFCURVE",
"430 88 CURVE",
"381 26 LINE",
"381 -10 OFFCURVE",
"376 -40 OFFCURVE",
"370 -53 CURVE"
);
},
{
closed = 1;
nodes = (
"397 37 OFFCURVE",
"414 57 OFFCURVE",
"430 88 CURVE",
"430 236 OFFCURVE",
"373 416 OFFCURVE",
"286 416 CURVE SMOOTH",
"208 416 OFFCURVE",
"119 229 OFFCURVE",
"119 140 CURVE SMOOTH",
"119 53 OFFCURVE",
"161 7 OFFCURVE",
"243 7 CURVE SMOOTH",
"297 7 OFFCURVE",
"348 27 OFFCURVE",
"389 56 CURVE",
"380 149 LINE",
"343 135 OFFCURVE",
"294 124 OFFCURVE",
"251 124 CURVE SMOOTH",
"197 124 OFFCURVE",
"170 138 OFFCURVE",
"158 170 CURVE",
"168 217 OFFCURVE",
"218 299 OFFCURVE",
"259 299 CURVE SMOOTH",
"337 299 OFFCURVE",
"381 120 OFFCURVE",
"381 26 CURVE"
);
},
{
closed = 1;
nodes = (
"297 -134 LINE",
"330 -193 OFFCURVE",
"395 -231 OFFCURVE",
"500 -231 CURVE",
"536 -192 OFFCURVE",
"544 -153 OFFCURVE",
"535 -114 CURVE",
"457 -114 OFFCURVE",
"400 -97 OFFCURVE",
"364 -65 CURVE"
);
},
{
closed = 1;
nodes = (
"513 -153 OFFCURVE",
"502 -192 OFFCURVE",
"500 -231 CURVE",
"620 -231 OFFCURVE",
"707 -174 OFFCURVE",
"758 -94 CURVE SMOOTH",
"829 17 OFFCURVE",
"820 149 OFFCURVE",
"789 270 CURVE SMOOTH",
"752 416 LINE",
"740 416 LINE",
"685 307 LINE",
"753 79 OFFCURVE",
"762 1 OFFCURVE",
"742 -54 CURVE",
"691 -95 OFFCURVE",
"606 -114 OFFCURVE",
"535 -114 CURVE"
);
},
{
closed = 1;
nodes = (
"0 -495 LINE",
"0 818 LINE",
"862 818 LINE",
"862 -495 LINE"
);
}
);
};
components = (
{
alignment = -1;
name = _part.avst.gge.head;
transform = "{1, 0, 0, 1, 500, 0}";
},
{
alignment = -1;
name = _part.avst.lower.connector.alt;
transform = "{1, 0, 0, 1, 434, 0}";
},
{
alignment = -1;
name = _part.avst.kaf.halgheh;
},
{
alignment = -1;
name = _part.avst.keheh_ending;
transform = "{1, 0, 0, 1, 2, -231}";
}
);
layerId = m01;
paths = (
{
closed = 1;
nodes = (
"369 -123 LINE",
"403 -71 OFFCURVE",
"430 1 OFFCURVE",
"430 88 CURVE",
"381 26 LINE",
"381 -10 OFFCURVE",
"376 -40 OFFCURVE",
"370 -53 CURVE"
);
},
{
closed = 1;
nodes = (
"386 -35 LINE",
"325 -87 OFFCURVE",
"252 -114 OFFCURVE",
"181 -114 CURVE",
"146 -231 LINE",
"219 -231 OFFCURVE",
"322 -196 OFFCURVE",
"369 -123 CURVE"
);
}
);
width = 862;
}
);
unicode = 10B15;
},
{
glyphname = "ghe-avestan";
layers = (
{
background = {
paths = (
{
closed = 1;
nodes = (
"76 170 OFFCURVE",
"63 160 OFFCURVE",
"50 140 CURVE",
"50 53 OFFCURVE",
"92 7 OFFCURVE",
"174 7 CURVE SMOOTH",
"228 7 OFFCURVE",
"279 27 OFFCURVE",
"320 56 CURVE",
"311 149 LINE",
"274 135 OFFCURVE",
"225 124 OFFCURVE",
"182 124 CURVE SMOOTH",
"128 124 OFFCURVE",
"101 138 OFFCURVE",
"89 170 CURVE"
);
},
{
closed = 1;
nodes = (
"190 299 LINE",
"239 299 OFFCURVE",
"278 164 OFFCURVE",
"265 69 CURVE SMOOTH",
"246 -73 OFFCURVE",
"123 -176 OFFCURVE",
"123 -273 CURVE SMOOTH",
"123 -347 OFFCURVE",
"193 -378 OFFCURVE",
"272 -378 CURVE SMOOTH",
"356 -378 OFFCURVE",
"430 -347 OFFCURVE",
"476 -346 CURVE SMOOTH",
"539 -345 OFFCURVE",
"525 -418 OFFCURVE",
"453 -486 CURVE",
"482 -495 LINE",
"525 -460 OFFCURVE",
"575 -382 OFFCURVE",
"577 -316 CURVE SMOOTH",
"578 -268 OFFCURVE",
"557 -229 OFFCURVE",
"503 -229 CURVE SMOOTH",
"461 -229 OFFCURVE",
"386 -261 OFFCURVE",
"299 -261 CURVE SMOOTH",
"230 -261 OFFCURVE",
"186 -245 OFFCURVE",
"176 -211 CURVE",
"222 -136 OFFCURVE",
"340 -8 OFFCURVE",
"340 158 CURVE SMOOTH",
"340 272 OFFCURVE",
"304 416 OFFCURVE",
"217 416 CURVE"
);
},
{
closed = 1;
nodes = (
"219 338 OFFCURVE",
"228 377 OFFCURVE",
"217 416 CURVE",
"139 416 OFFCURVE",
"50 229 OFFCURVE",
"50 140 CURVE",
"89 170 LINE",
"99 217 OFFCURVE",
"149 299 OFFCURVE",
"190 299 CURVE"
);
},
{
closed = 1;
nodes = (
"0 -495 LINE",
"0 818 LINE",
"527 818 LINE",
"527 -495 LINE"
);
}
);
};
components = (
{
name = _part.avst.secondpart.kafalter;
}
);
layerId = m01;
paths = (
{
closed = 1;
nodes = (
"76 170 OFFCURVE",
"63 160 OFFCURVE",
"50 140 CURVE",
"50 53 OFFCURVE",
"92 7 OFFCURVE",
"174 7 CURVE SMOOTH",
"228 7 OFFCURVE",
"279 27 OFFCURVE",
"320 56 CURVE",
"311 149 LINE",
"274 135 OFFCURVE",
"225 124 OFFCURVE",
"182 124 CURVE SMOOTH",
"128 124 OFFCURVE",
"101 138 OFFCURVE",
"89 170 CURVE"
);
}
);
width = 527;
}
);
unicode = 10B16;
},
{
glyphname = "he-avestan";
layers = (
{
background = {
paths = (
{
closed = 1;
nodes = (
"50 -136 OFFCURVE",
"116 -231 OFFCURVE",
"282 -231 CURVE",
"304 -192 OFFCURVE",
"315 -153 OFFCURVE",
"317 -114 CURVE",
"174 -114 OFFCURVE",
"102 -56 OFFCURVE",
"102 41 CURVE",
"85 33 OFFCURVE",
"67 15 OFFCURVE",
"50 -13 CURVE"
);
},
{
closed = 1;
nodes = (
"102 41 LINE",
"102 142 OFFCURVE",
"202 279 OFFCURVE",
"263 279 CURVE SMOOTH",
"310 279 OFFCURVE",
"340 214 OFFCURVE",
"349 191 CURVE",
"326 168 OFFCURVE",
"264 144 OFFCURVE",
"197 144 CURVE SMOOTH",
"163 144 OFFCURVE",
"139 151 OFFCURVE",
"122 164 CURVE",
"74 70 LINE",
"82 42 OFFCURVE",
"122 27 OFFCURVE",
"162 27 CURVE SMOOTH",
"238 27 OFFCURVE",
"292 66 OFFCURVE",
"322 100 CURVE SMOOTH",
"351 134 OFFCURVE",
"391 194 OFFCURVE",
"391 248 CURVE SMOOTH",
"391 307 OFFCURVE",
"360 396 OFFCURVE",
"308 396 CURVE SMOOTH",
"234 396 OFFCURVE",
"50 134 OFFCURVE",
"50 -13 CURVE"
);
},
{
closed = 1;
nodes = (
"575 121 OFFCURVE",
"617 30 OFFCURVE",
"590 -54 CURVE",
"518 -92 OFFCURVE",
"408 -114 OFFCURVE",
"317 -114 CURVE",
"282 -231 LINE",
"436 -231 OFFCURVE",
"559 -175 OFFCURVE",
"606 -96 CURVE SMOOTH",
"639 -41 OFFCURVE",
"650 20 OFFCURVE",
"658 66 CURVE",
"620 51 LINE",
"637 21 OFFCURVE",
"667 0 OFFCURVE",
"712 0 CURVE",
"744 39 OFFCURVE",
"755 78 OFFCURVE",
"747 117 CURVE",
"663 117 OFFCURVE",
"643 181 OFFCURVE",
"606 271 CURVE SMOOTH",
"568 362 LINE",
"556 362 LINE",
"508 269 LINE"
);
},
{
closed = 1;
nodes = (
"715 78 OFFCURVE",
"712 29 OFFCURVE",
"712 0 CURVE",
"853 0 OFFCURVE",
"939 142 OFFCURVE",
"939 245 CURVE SMOOTH",
"939 297 OFFCURVE",
"919 348 OFFCURVE",
"891 416 CURVE",
"879 416 LINE",
"831 323 LINE",
"854 277 OFFCURVE",
"890 189 OFFCURVE",
"880 150 CURVE",
"846 129 OFFCURVE",
"791 117 OFFCURVE",
"747 117 CURVE"
);
},
{
closed = 1;
nodes = (
"0 -495 LINE",
"0 818 LINE",
"989 818 LINE",
"989 -495 LINE"
);
}
);
};
components = (
{
alignment = -1;
name = _part.avst.peh.vasl;
transform = "{1, 0, 0, 1, 282, 0}";
},
{
alignment = -1;
name = _part.avst.peh.ending;
},
{
alignment = -1;
name = _part.avst.alef.head;
transform = "{1, 0, 0, 1, 712, 0}";
}
);
layerId = m01;
width = 989;
}
);
unicode = 10B35;
},
{
glyphname = "hme-avestan";
layers = (
{
background = {
paths = (
{
closed = 1;
nodes = (
"556 37 LINE",
"562 99 OFFCURVE",
"544 134 OFFCURVE",
"477 134 CURVE SMOOTH",
"426 134 OFFCURVE",
"300 117 OFFCURVE",
"241 117 CURVE",
"206 0 LINE",
"284 0 OFFCURVE",
"414 17 OFFCURVE",
"464 17 CURVE SMOOTH",
"500 17 OFFCURVE",
"515 4 OFFCURVE",
"520 -16 CURVE"
);
},
{
closed = 1;
nodes = (
"165 7 LINE",
"165 -89 OFFCURVE",
"193 -231 OFFCURVE",
"321 -231 CURVE SMOOTH",
"474 -231 OFFCURVE",
"546 -62 OFFCURVE",
"556 37 CURVE",
"544 29 OFFCURVE",
"532 12 OFFCURVE",
"520 -16 CURVE",
"500 -70 OFFCURVE",
"418 -114 OFFCURVE",
"343 -114 CURVE SMOOTH",
"244 -114 OFFCURVE",
"208 -44 OFFCURVE",
"208 46 CURVE"
);
},
{
closed = 1;
nodes = (
"208 46 LINE",
"208 163 OFFCURVE",
"362 299 OFFCURVE",
"450 299 CURVE SMOOTH",
"478 299 OFFCURVE",
"485 286 OFFCURVE",
"485 265 CURVE",
"497 265 LINE",
"532 330 OFFCURVE",
"545 416 OFFCURVE",
"477 416 CURVE SMOOTH",
"369 416 OFFCURVE",
"165 199 OFFCURVE",
"165 7 CURVE"
);
},
{
closed = 1;
nodes = (
"228 39 OFFCURVE",
"239 78 OFFCURVE",
"241 117 CURVE",
"170 117 OFFCURVE",
"125 134 OFFCURVE",
"98 157 CURVE",
"50 63 LINE",
"68 25 OFFCURVE",
"121 0 OFFCURVE",
"206 0 CURVE"
);
},
{
closed = 1;
nodes = (
"412 -415 LINE",
"404 -405 LINE",
"319 -374 OFFCURVE",
"293 -310 OFFCURVE",
"354 -210 CURVE",
"335 -178 LINE",
"304 -231 OFFCURVE",
"260 -304 OFFCURVE",
"260 -375 CURVE SMOOTH",
"260 -453 OFFCURVE",
"316 -489 OFFCURVE",
"365 -508 CURVE"
);
},
{
closed = 1;
nodes = (
"0 -495 LINE",
"0 818 LINE",
"607 818 LINE",
"607 -495 LINE"
);
}
);
};
components = (
{
alignment = -1;
name = "me-avestan";
},
{
alignment = -1;
name = _part.avst.madd.avestan;
transform = "{1, 0, 0, 1, 90, -231}";
}
);
layerId = m01;
width = 607;
}
);
unicode = 10B29;
},
{
glyphname = "i-avestan";
layers = (
{
background = {
paths = (
{
closed = 1;
nodes = (
"149 78 OFFCURVE",
"146 29 OFFCURVE",
"146 0 CURVE",
"239 0 OFFCURVE",
"333 38 OFFCURVE",
"372 96 CURVE SMOOTH",
"403 143 OFFCURVE",
"423 198 OFFCURVE",
"423 245 CURVE SMOOTH",
"423 297 OFFCURVE",
"403 348 OFFCURVE",
"375 416 CURVE",
"363 416 LINE",
"315 323 LINE",
"338 277 OFFCURVE",
"374 189 OFFCURVE",
"364 150 CURVE",
"313 128 OFFCURVE",
"235 117 OFFCURVE",
"181 117 CURVE"
);
},
{
closed = 1;
nodes = (
"168 39 OFFCURVE",
"179 78 OFFCURVE",
"181 117 CURVE",
"144 117 OFFCURVE",
"115 124 OFFCURVE",
"98 137 CURVE",
"50 43 LINE",
"58 15 OFFCURVE",
"91 0 OFFCURVE",
"146 0 CURVE"
);
},
{
closed = 1;
nodes = (
"0 -495 LINE",
"0 818 LINE",
"473 818 LINE",
"473 -495 LINE"
);
}
);
};
components = (
{
alignment = -1;
name = _part.avst.ee.avestan;
transform = "{1, 0, 0, 1, -32, 0}";
},
{
alignment = -1;
name = _part.avst.keheh_ending;
transform = "{1, 0, 0, 1, 2, 0}";
}
);
layerId = m01;
width = 473;
}
);
unicode = 10B0C;
},
{
glyphname = "ii-avestan";
layers = (
{
background = {
paths = (
{
closed = 1;
nodes = (
"149 78 OFFCURVE",
"146 29 OFFCURVE",
"146 0 CURVE",
"239 0 OFFCURVE",
"333 38 OFFCURVE",
"372 96 CURVE SMOOTH",
"403 143 OFFCURVE",
"423 198 OFFCURVE",
"423 245 CURVE SMOOTH",
"423 297 OFFCURVE",
"403 348 OFFCURVE",
"375 416 CURVE",
"363 416 LINE",
"315 323 LINE",
"338 277 OFFCURVE",
"374 189 OFFCURVE",
"364 150 CURVE",
"313 128 OFFCURVE",
"235 117 OFFCURVE",
"181 117 CURVE"
);
},
{
closed = 1;
nodes = (
"168 39 OFFCURVE",
"179 78 OFFCURVE",
"181 117 CURVE",
"144 117 OFFCURVE",
"115 124 OFFCURVE",
"98 137 CURVE",
"50 43 LINE",
"58 15 OFFCURVE",
"91 0 OFFCURVE",
"146 0 CURVE"
);
},
{
closed = 1;
nodes = (
"289 -184 LINE",
"281 -174 LINE",
"196 -143 OFFCURVE",
"170 -79 OFFCURVE",
"231 21 CURVE",
"212 53 LINE",
"181 0 OFFCURVE",
"137 -73 OFFCURVE",
"137 -144 CURVE SMOOTH",
"137 -222 OFFCURVE",
"193 -258 OFFCURVE",
"242 -277 CURVE"
);
},
{
closed = 1;
nodes = (
"0 -495 LINE",
"0 818 LINE",
"473 818 LINE",
"473 -495 LINE"
);
}
);
};
components = (
{
name = "i-avestan";
},
{
alignment = -1;
name = _part.avst.madd.avestan;
transform = "{1, 0, 0, 1, -33, 0}";
}
);
layerId = m01;
width = 473;
}
);
unicode = 10B0D;
},
{
glyphname = "je-avestan";
layers = (
{
anchors = (
{
name = "#entry";
position = "{408, 0}";
},
{
name = "#exit";
position = "{276, 0}";
}
);
background = {
paths = (
{
closed = 1;
nodes = (
"279 78 OFFCURVE",
"276 29 OFFCURVE",
"276 0 CURVE",
"417 0 OFFCURVE",
"503 142 OFFCURVE",
"503 245 CURVE SMOOTH",
"503 297 OFFCURVE",
"483 348 OFFCURVE",
"455 416 CURVE",
"443 416 LINE",
"395 323 LINE",
"418 277 OFFCURVE",
"454 189 OFFCURVE",
"444 150 CURVE",
"410 129 OFFCURVE",
"355 117 OFFCURVE",
"311 117 CURVE"
);
},
{
closed = 1;
nodes = (
"163 -184 OFFCURVE",
"126 -240 OFFCURVE",
"126 -306 CURVE SMOOTH",
"126 -380 OFFCURVE",
"191 -441 OFFCURVE",
"272 -441 CURVE SMOOTH",
"369 -441 OFFCURVE",
"493 -383 OFFCURVE",
"588 -383 CURVE SMOOTH",
"629 -383 OFFCURVE",
"652 -395 OFFCURVE",
"671 -401 CURVE",
"705 -336 LINE",
"665 -312 OFFCURVE",
"629 -295 OFFCURVE",
"560 -295 CURVE SMOOTH",
"492 -295 OFFCURVE",
"391 -324 OFFCURVE",
"304 -324 CURVE SMOOTH",
"224 -324 OFFCURVE",
"186 -285 OFFCURVE",
"181 -228 CURVE",
"220 -132 OFFCURVE",
"234 -59 OFFCURVE",
"222 14 CURVE",
"237 5 OFFCURVE",
"255 0 OFFCURVE",
"276 0 CURVE",
"308 29 OFFCURVE",
"319 78 OFFCURVE",
"311 117 CURVE",
"190 117 OFFCURVE",
"169 208 OFFCURVE",
"110 362 CURVE",
"98 362 LINE",
"50 269 LINE",
"114 128 OFFCURVE",
"163 14 OFFCURVE",
"163 -105 CURVE SMOOTH"
);
},
{
closed = 1;
nodes = (
"0 -495 LINE",
"0 818 LINE",
"600 818 LINE",
"600 -495 LINE"
);
}
);
};
components = (
{
alignment = -1;
name = _part.avst.alef.head;
transform = "{1, 0, 0, 1, 276, 0}";
},
{
alignment = -1;
name = _part.avst.reh.tail;
transform = "{1, 0, 0, 1, 1, 0}";
}
);
layerId = m01;
width = 598;
}
);
unicode = 10B18;
},
{
glyphname = "ke-avestan";
layers = (
{
background = {
paths = (
{
closed = 1;
nodes = (
"370 37 OFFCURVE",
"387 57 OFFCURVE",
"403 88 CURVE",
"403 236 OFFCURVE",
"346 416 OFFCURVE",
"259 416 CURVE SMOOTH",
"181 416 OFFCURVE",
"92 229 OFFCURVE",
"92 140 CURVE SMOOTH",
"92 53 OFFCURVE",
"134 7 OFFCURVE",
"216 7 CURVE SMOOTH",
"270 7 OFFCURVE",
"321 27 OFFCURVE",
"362 56 CURVE",
"353 149 LINE",
"316 135 OFFCURVE",
"267 124 OFFCURVE",
"224 124 CURVE SMOOTH",
"170 124 OFFCURVE",
"143 138 OFFCURVE",
"131 170 CURVE",
"141 217 OFFCURVE",
"191 299 OFFCURVE",
"232 299 CURVE SMOOTH",
"310 299 OFFCURVE",
"354 120 OFFCURVE",
"354 26 CURVE"
);
},
{
closed = 1;
nodes = (
"387 77 OFFCURVE",
"370 57 OFFCURVE",
"354 26 CURVE",
"354 -57 OFFCURVE",
"257 -167 OFFCURVE",
"50 -305 CURVE",
"50 -339 LINE",
"81 -339 OFFCURVE",
"161 -336 OFFCURVE",
"224 -294 CURVE SMOOTH",
"338 -217 OFFCURVE",
"403 -31 OFFCURVE",
"403 88 CURVE"
);
},
{
closed = 1;
nodes = (
"0 -495 LINE",
"0 818 LINE",
"453 818 LINE",
"453 -495 LINE"
);
}
);
};
components = (
{
alignment = -1;
name = _part.avst.kaf.halgheh;
transform = "{1, 0, 0, 1, -27, 0}";
},
{
alignment = -1;
name = _part.avst.kaf.tail;
}
);
layerId = m01;
width = 453;
}
);
unicode = 10B10;
},
{
glyphname = "le-avestan";
layers = (
{
background = {
paths = (
{
closed = 1;
nodes = (
"390 485 OFFCURVE",
"431 482 OFFCURVE",
"476 524 CURVE SMOOTH",
"506 552 OFFCURVE",
"525 594 OFFCURVE",
"525 625 CURVE SMOOTH",
"525 669 OFFCURVE",
"491 713 OFFCURVE",
"446 713 CURVE SMOOTH",
"396 713 OFFCURVE",
"353 657 OFFCURVE",
"332 606 CURVE",
"344 587 LINE",
"364 617 OFFCURVE",
"393 632 OFFCURVE",
"419 632 CURVE SMOOTH",
"456 632 OFFCURVE",
"478 606 OFFCURVE",
"477 578 CURVE",
"461 548 OFFCURVE",
"396 534 OFFCURVE",
"361 579 CURVE",
"361 495 LINE"
);
},
{
closed = 1;
nodes = (
"249 39 OFFCURVE",
"260 78 OFFCURVE",
"262 117 CURVE",
"225 117 OFFCURVE",
"196 124 OFFCURVE",
"179 137 CURVE",
"131 43 LINE",
"139 15 OFFCURVE",
"172 0 OFFCURVE",
"227 0 CURVE"
);
},
{
closed = 1;
nodes = (
"240 78 OFFCURVE",
"229 39 OFFCURVE",
"227 0 CURVE",
"310 0 OFFCURVE",
"386 42 OFFCURVE",
"429 108 CURVE SMOOTH",
"463 160 OFFCURVE",
"480 223 OFFCURVE",
"480 267 CURVE SMOOTH",
"480 359 OFFCURVE",
"437 456 OFFCURVE",
"375 557 CURVE SMOOTH",
"299 681 OFFCURVE",
"173 808 OFFCURVE",
"93 818 CURVE",
"75 740 OFFCURVE",
"38 680 OFFCURVE",
"-5 640 CURVE",
"14 608 LINE",
"38 624 OFFCURVE",
"73 670 OFFCURVE",
"82 700 CURVE",
"146 683 OFFCURVE",
"243 585 OFFCURVE",
"309 487 CURVE SMOOTH",
"395 359 OFFCURVE",
"436 248 OFFCURVE",
"432 170 CURVE",
"381 135 OFFCURVE",
"316 117 OFFCURVE",
"262 117 CURVE"
);
},
{
closed = 1;
nodes = (
"0 -495 LINE",
"0 818 LINE",
"575 818 LINE",
"575 -495 LINE"
);
}
);
};
components = (
{
alignment = -1;
name = _part.avst.keheh_ending;
transform = "{1, 0, 0, 1, 83, 0}";
},
{
name = _part.avst.lamedh.third;
transform = "{1, 0, 0, 1, 81, 0}";
}
);
layerId = m01;
paths = (
{
closed = 1;
nodes = (
"390 485 OFFCURVE",
"431 482 OFFCURVE",
"476 524 CURVE SMOOTH",
"506 552 OFFCURVE",
"525 594 OFFCURVE",
"525 625 CURVE SMOOTH",
"525 669 OFFCURVE",
"491 713 OFFCURVE",
"446 713 CURVE SMOOTH",
"396 713 OFFCURVE",
"353 657 OFFCURVE",
"332 606 CURVE",
"344 587 LINE",
"364 617 OFFCURVE",
"393 632 OFFCURVE",
"419 632 CURVE SMOOTH",
"456 632 OFFCURVE",
"478 606 OFFCURVE",
"477 578 CURVE",
"461 548 OFFCURVE",
"396 534 OFFCURVE",
"361 579 CURVE",
"361 495 LINE"
);
}
);
width = 575;
}
);
unicode = 10B2E;
},
{
glyphname = "me-avestan";
layers = (
{
background = {
paths = (
{
closed = 1;
nodes = (
"556 37 LINE",
"562 99 OFFCURVE",
"544 134 OFFCURVE",
"477 134 CURVE SMOOTH",
"426 134 OFFCURVE",
"300 117 OFFCURVE",
"241 117 CURVE",
"206 0 LINE",
"284 0 OFFCURVE",
"414 17 OFFCURVE",
"464 17 CURVE SMOOTH",
"500 17 OFFCURVE",
"515 4 OFFCURVE",
"520 -16 CURVE"
);
},
{
closed = 1;
nodes = (
"165 7 LINE",
"165 -89 OFFCURVE",
"193 -231 OFFCURVE",
"321 -231 CURVE SMOOTH",
"474 -231 OFFCURVE",
"546 -62 OFFCURVE",
"556 37 CURVE",
"544 29 OFFCURVE",
"532 12 OFFCURVE",
"520 -16 CURVE",
"500 -70 OFFCURVE",
"418 -114 OFFCURVE",
"343 -114 CURVE SMOOTH",
"244 -114 OFFCURVE",
"208 -44 OFFCURVE",
"208 46 CURVE"
);
},
{
closed = 1;
nodes = (
"208 46 LINE",
"208 163 OFFCURVE",
"362 299 OFFCURVE",
"450 299 CURVE SMOOTH",
"478 299 OFFCURVE",
"485 286 OFFCURVE",
"485 265 CURVE",
"497 265 LINE",
"532 330 OFFCURVE",
"545 416 OFFCURVE",
"477 416 CURVE SMOOTH",
"369 416 OFFCURVE",
"165 199 OFFCURVE",
"165 7 CURVE"
);
},
{
closed = 1;
nodes = (
"228 39 OFFCURVE",
"239 78 OFFCURVE",
"241 117 CURVE",
"170 117 OFFCURVE",
"125 134 OFFCURVE",
"98 157 CURVE",
"50 63 LINE",
"68 25 OFFCURVE",
"121 0 OFFCURVE",
"206 0 CURVE"
);
},
{
closed = 1;
nodes = (
"0 -495 LINE",
"0 818 LINE",
"607 818 LINE",
"607 -495 LINE"
);
}
);
};
components = (
{
alignment = -1;
name = _part.avst.dowr.meem;
transform = "{1, 0, 0, 1, 20, 0}";
},
{
alignment = -1;
name = _part.avst.head.meeminit;
transform = "{1, 0, 0, 1, 20, 0}";
},
{
alignment = -1;
name = _part.avst.conector.ladhsecond;
}
);
layerId = m01;
width = 607;
}
);
unicode = 10B28;
},
{
glyphname = "ne-avestan";
layers = (
{
background = {
paths = (
{
closed = 1;
nodes = (
"329 284 OFFCURVE",
"228 406 OFFCURVE",
"148 416 CURVE",
"130 338 OFFCURVE",
"93 278 OFFCURVE",
"50 238 CURVE",
"69 206 LINE",
"93 222 OFFCURVE",
"128 268 OFFCURVE",
"137 298 CURVE",
"217 249 OFFCURVE",
"265 152 OFFCURVE",
"265 10 CURVE SMOOTH",
"265 -57 OFFCURVE",
"253 -137 OFFCURVE",
"238 -235 CURVE",
"267 -244 LINE",
"298 -139 OFFCURVE",
"329 -26 OFFCURVE",
"329 93 CURVE SMOOTH"
);
},
{
closed = 1;
nodes = (
"0 -495 LINE",
"0 818 LINE",
"379 818 LINE",
"379 -495 LINE"
);
}
);
};
layerId = m01;
paths = (
{
closed = 1;
nodes = (
"329 284 OFFCURVE",
"228 406 OFFCURVE",
"148 416 CURVE",
"130 338 OFFCURVE",
"93 278 OFFCURVE",
"50 238 CURVE",
"69 206 LINE",
"93 222 OFFCURVE",
"128 268 OFFCURVE",
"137 298 CURVE",
"217 249 OFFCURVE",
"265 152 OFFCURVE",
"265 10 CURVE SMOOTH",
"265 -57 OFFCURVE",
"253 -137 OFFCURVE",
"238 -235 CURVE",
"267 -244 LINE",
"298 -139 OFFCURVE",
"329 -26 OFFCURVE",
"329 93 CURVE SMOOTH"
);
}
);
width = 379;
}
);
unicode = 10B25;
},
{
glyphname = "nge-avestan";
layers = (
{
background = {
paths = (
{
closed = 1;
nodes = (
"387 32 OFFCURVE",
"370 12 OFFCURVE",
"354 -19 CURVE",
"354 -92 OFFCURVE",
"257 -167 OFFCURVE",
"50 -305 CURVE",
"50 -339 LINE",
"81 -339 OFFCURVE",
"161 -336 OFFCURVE",
"224 -294 CURVE SMOOTH",
"338 -217 OFFCURVE",
"403 -66 OFFCURVE",
"403 43 CURVE"
);
},
{
closed = 1;
nodes = (
"126 282 LINE",
"159 310 OFFCURVE",
"194 333 OFFCURVE",
"234 333 CURVE SMOOTH",
"271 333 OFFCURVE",
"291 311 OFFCURVE",
"291 282 CURVE SMOOTH",
"291 221 OFFCURVE",
"209 166 OFFCURVE",
"135 156 CURVE",
"91 70 LINE",
"98 61 LINE",
"222 98 OFFCURVE",
"354 87 OFFCURVE",
"354 -19 CURVE",
"403 43 LINE",
"403 137 OFFCURVE",
"337 186 OFFCURVE",
"221 164 CURVE",
"239 140 LINE",
"316 191 OFFCURVE",
"360 277 OFFCURVE",
"360 339 CURVE SMOOTH",
"360 400 OFFCURVE",
"325 426 OFFCURVE",
"280 426 CURVE SMOOTH",
"222 426 OFFCURVE",
"159 374 OFFCURVE",
"108 304 CURVE"
);
},
{
closed = 1;
nodes = (
"0 -495 LINE",
"0 818 LINE",
"453 818 LINE",
"453 -495 LINE"
);
}
);
};
components = (
{
name = _part.avst.nge.head;
}
);
layerId = m01;
paths = (
{
closed = 1;
nodes = (
"387 32 OFFCURVE",
"370 12 OFFCURVE",
"354 -19 CURVE",
"354 -92 OFFCURVE",
"257 -167 OFFCURVE",
"50 -305 CURVE",
"50 -339 LINE",
"81 -339 OFFCURVE",
"161 -336 OFFCURVE",
"224 -294 CURVE SMOOTH",
"338 -217 OFFCURVE",
"403 -66 OFFCURVE",
"403 43 CURVE"
);
}
);
width = 453;
}
);
unicode = 10B22;
},
{
glyphname = "ngve-avestan";
layers = (
{
background = {
paths = (
{
closed = 1;
nodes = (
"384 39 OFFCURVE",
"365 5 OFFCURVE",
"350 -19 CURVE",
"341 -32 OFFCURVE",
"318 -55 OFFCURVE",
"262 -94 CURVE SMOOTH",
"171 -157 OFFCURVE",
"50 -233 OFFCURVE",
"50 -366 CURVE SMOOTH",
"50 -436 OFFCURVE",
"89 -500 OFFCURVE",
"153 -533 CURVE",
"197 -447 LINE",
"189 -437 LINE",
"140 -416 OFFCURVE",
"98 -387 OFFCURVE",
"88 -353 CURVE",
"114 -313 OFFCURVE",
"181 -265 OFFCURVE",
"261 -210 CURVE SMOOTH",
"342 -154 OFFCURVE",
"399 -39 OFFCURVE",
"399 43 CURVE"
);
},
{
closed = 1;
nodes = (
"122 282 LINE",
"155 310 OFFCURVE",
"190 333 OFFCURVE",
"230 333 CURVE SMOOTH",
"267 333 OFFCURVE",
"287 311 OFFCURVE",
"287 282 CURVE SMOOTH",
"287 221 OFFCURVE",
"205 166 OFFCURVE",
"131 156 CURVE",
"87 70 LINE",
"94 61 LINE",
"218 98 OFFCURVE",
"350 87 OFFCURVE",
"350 -19 CURVE",
"399 43 LINE",
"399 137 OFFCURVE",
"333 186 OFFCURVE",
"217 164 CURVE",
"235 140 LINE",
"312 191 OFFCURVE",
"356 277 OFFCURVE",
"356 339 CURVE SMOOTH",
"356 400 OFFCURVE",
"321 426 OFFCURVE",
"276 426 CURVE SMOOTH",
"218 426 OFFCURVE",
"155 374 OFFCURVE",
"104 304 CURVE"
);
},
{
closed = 1;
nodes = (
"0 -495 LINE",
"0 818 LINE",
"449 818 LINE",
"449 -495 LINE"
);
}
);
};
components = (
{
name = _part.avst.nge.head;
transform = "{1, 0, 0, 1, -4, 0}";
}
);
layerId = m01;
paths = (
{
closed = 1;
nodes = (
"384 39 OFFCURVE",
"365 5 OFFCURVE",
"350 -19 CURVE",
"341 -32 OFFCURVE",
"318 -55 OFFCURVE",
"262 -94 CURVE SMOOTH",
"171 -157 OFFCURVE",
"50 -233 OFFCURVE",
"50 -366 CURVE SMOOTH",
"50 -436 OFFCURVE",
"89 -500 OFFCURVE",
"153 -533 CURVE",
"197 -447 LINE",
"189 -437 LINE",
"140 -416 OFFCURVE",
"98 -387 OFFCURVE",
"88 -353 CURVE",
"114 -313 OFFCURVE",
"181 -265 OFFCURVE",
"261 -210 CURVE SMOOTH",
"342 -154 OFFCURVE",
"399 -39 OFFCURVE",
"399 43 CURVE"
);
}
);
width = 449;
}
);
unicode = 10B24;
},
{
glyphname = "ngye-avestan";
layers = (
{
background = {
paths = (
{
closed = 1;
nodes = (
"888 17 OFFCURVE",
"876 156 OFFCURVE",
"830 266 CURVE",
"863 289 OFFCURVE",
"915 306 OFFCURVE",
"962 305 CURVE",
"1017 414 LINE",
"1009 424 LINE",
"934 435 OFFCURVE",
"830 390 OFFCURVE",
"788 316 CURVE SMOOTH",
"771 286 OFFCURVE",
"757 257 OFFCURVE",
"744 227 CURVE",
"776 168 OFFCURVE",
"827 45 OFFCURVE",
"801 -54 CURVE",
"817 -94 LINE"
);
},
{
closed = 1;
nodes = (
"544 -192 OFFCURVE",
"555 -153 OFFCURVE",
"547 -114 CURVE",
"404 -114 OFFCURVE",
"341 -56 OFFCURVE",
"341 41 CURVE SMOOTH",
"341 126 OFFCURVE",
"373 192 OFFCURVE",
"423 283 CURVE",
"394 292 LINE",
"330 193 OFFCURVE",
"280 87 OFFCURVE",
"280 -13 CURVE SMOOTH",
"280 -136 OFFCURVE",
"346 -231 OFFCURVE",
"512 -231 CURVE"
);
},
{
closed = 1;
nodes = (
"146 0 LINE",
"222 0 OFFCURVE",
"302 39 OFFCURVE",
"358 162 CURVE",
"355 176 LINE",
"297 128 OFFCURVE",
"225 117 OFFCURVE",
"181 117 CURVE"
);
},
{
closed = 1;
nodes = (
"168 39 OFFCURVE",
"179 78 OFFCURVE",
"181 117 CURVE",
"144 117 OFFCURVE",
"115 124 OFFCURVE",
"98 137 CURVE",
"50 43 LINE",
"58 15 OFFCURVE",
"91 0 OFFCURVE",
"146 0 CURVE"
);
},
{
closed = 1;
nodes = (
"808 -49 LINE",
"742 -90 OFFCURVE",
"642 -114 OFFCURVE",
"547 -114 CURVE",
"512 -231 LINE",
"662 -231 OFFCURVE",
"766 -174 OFFCURVE",
"817 -94 CURVE"
);
},
{
closed = 1;
nodes = (
"0 -495 LINE",
"0 818 LINE",
"1067 818 LINE",
"1067 -495 LINE"
);
}
);
};
components = (
{
alignment = -1;
name = _part.avst.belly.teeth;
transform = "{1, 0, 0, 1, 146, 0}";
},
{
alignment = -1;
name = _part.avst.keheh_ending;
transform = "{1, 0, 0, 1, 2, 0}";
},
{
alignment = -1;
name = _part.avst.head.bhe;
transform = "{1, 0, 0, 1, -147, 0}";
}
);
layerId = m01;
paths = (
{
closed = 1;
nodes = (
"808 -49 LINE",
"742 -90 OFFCURVE",
"642 -114 OFFCURVE",
"547 -114 CURVE",
"512 -231 LINE",
"662 -231 OFFCURVE",
"766 -174 OFFCURVE",
"817 -94 CURVE"
);
}
);
width = 1067;
}
);
unicode = 10B23;
},
{
glyphname = "nne-avestan";
layers = (
{
background = {
paths = (
{
closed = 1;
nodes = (
"492 -139 OFFCURVE",
"497 -178 OFFCURVE",
"512 -217 CURVE",
"598 -217 OFFCURVE",
"864 -172 OFFCURVE",
"1012 -139 CURVE",
"1012 -81 LINE",
"882 -87 OFFCURVE",
"574 -100 OFFCURVE",
"497 -100 CURVE"
);
},
{
closed = 1;
nodes = (
"753 87 LINE",
"775 25 OFFCURVE",
"825 0 OFFCURVE",
"881 0 CURVE",
"913 39 OFFCURVE",
"924 78 OFFCURVE",
"916 117 CURVE",
"858 117 OFFCURVE",
"818 129 OFFCURVE",
"800 158 CURVE"
);
},
{
closed = 1;
nodes = (
"884 78 OFFCURVE",
"881 29 OFFCURVE",
"881 0 CURVE",
"1022 0 OFFCURVE",
"1108 142 OFFCURVE",
"1108 245 CURVE SMOOTH",
"1108 297 OFFCURVE",
"1088 348 OFFCURVE",
"1060 416 CURVE",
"1048 416 LINE",
"1000 323 LINE",
"1023 277 OFFCURVE",
"1059 189 OFFCURVE",
"1049 150 CURVE",
"1015 129 OFFCURVE",
"960 117 OFFCURVE",
"916 117 CURVE"
);
},
{
closed = 1;
nodes = (
"509 -225 OFFCURVE",
"456 -289 OFFCURVE",
"456 -366 CURVE SMOOTH",
"456 -430 OFFCURVE",
"496 -461 OFFCURVE",
"565 -461 CURVE SMOOTH",
"658 -461 OFFCURVE",
"751 -404 OFFCURVE",
"832 -356 CURVE",
"832 -290 LINE",
"752 -316 OFFCURVE",
"665 -344 OFFCURVE",
"597 -344 CURVE SMOOTH",
"558 -344 OFFCURVE",
"509 -332 OFFCURVE",
"509 -294 CURVE",
"586 -141 OFFCURVE",
"590 -41 OFFCURVE",
"555 67 CURVE",
"535 47 LINE",
"550 20 OFFCURVE",
"580 0 OFFCURVE",
"622 0 CURVE",
"654 29 OFFCURVE",
"665 78 OFFCURVE",
"657 117 CURVE",
"536 117 OFFCURVE",
"515 208 OFFCURVE",
"456 362 CURVE",
"444 362 LINE",
"396 269 LINE",
"460 128 OFFCURVE",
"509 14 OFFCURVE",
"509 -105 CURVE SMOOTH"
);
},
{
closed = 1;
nodes = (
"497 -100 LINE",
"417 -100 OFFCURVE",
"392 -60 OFFCURVE",
"356 37 CURVE SMOOTH",
"340 80 LINE",
"328 80 LINE",
"280 -13 LINE",
"322 -112 OFFCURVE",
"327 -153 OFFCURVE",
"318 -185 CURVE",
"285 -214 OFFCURVE",
"228 -233 OFFCURVE",
"181 -233 CURVE",
"146 -350 LINE",
"266 -350 OFFCURVE",
"345 -246 OFFCURVE",
"362 -132 CURVE",
"347 -142 LINE",
"379 -192 OFFCURVE",
"429 -217 OFFCURVE",
"512 -217 CURVE"
);
},
{
closed = 1;
nodes = (
"625 78 OFFCURVE",
"622 29 OFFCURVE",
"622 0 CURVE",
"763 0 OFFCURVE",
"849 142 OFFCURVE",
"849 245 CURVE SMOOTH",
"849 297 OFFCURVE",
"829 348 OFFCURVE",
"801 416 CURVE",
"789 416 LINE",
"741 323 LINE",
"764 277 OFFCURVE",
"800 189 OFFCURVE",
"790 150 CURVE",
"756 129 OFFCURVE",
"701 117 OFFCURVE",
"657 117 CURVE"
);
},
{
closed = 1;
nodes = (
"168 -311 OFFCURVE",
"179 -272 OFFCURVE",
"181 -233 CURVE",
"144 -233 OFFCURVE",
"115 -226 OFFCURVE",
"98 -213 CURVE",
"50 -307 LINE",
"58 -335 OFFCURVE",
"91 -350 OFFCURVE",
"146 -350 CURVE"
);
},
{
closed = 1;
nodes = (
"0 -495 LINE",
"0 818 LINE",
"1158 818 LINE",
"1158 -495 LINE"
);
}
);
};
components = (
{
alignment = -1;
name = _part.avst.right.connector;
transform = "{1, 0, 0, 1, 428, 0}";
},
{
alignment = -1;
name = _part.avst.alef.head;
transform = "{1, 0, 0, 1, 881, 0}";
},
{
name = _part.avst.huzw.first;
transform = "{1, 0, 0, 1, 8, -217}";
}
);
layerId = m01;
paths = (
{
closed = 1;
nodes = (
"492 -139 OFFCURVE",
"497 -178 OFFCURVE",
"512 -217 CURVE",
"598 -217 OFFCURVE",
"864 -172 OFFCURVE",
"1012 -139 CURVE",
"1012 -81 LINE",
"882 -87 OFFCURVE",
"574 -100 OFFCURVE",
"497 -100 CURVE"
);
}
);
width = 1158;
}
);
rightKerningGroup = nne;
unicode = 10B27;
},
{
glyphname = "nye-avestan";
layers = (
{
background = {
paths = (
{
closed = 1;
nodes = (
"291 -246 LINE",
"286 -235 LINE",
"168 -203 OFFCURVE",
"117 -129 OFFCURVE",
"117 -42 CURVE SMOOTH",
"117 99 OFFCURVE",
"237 300 OFFCURVE",
"237 489 CURVE SMOOTH",
"237 601 OFFCURVE",
"166 674 OFFCURVE",
"112 713 CURVE",
"100 713 LINE",
"50 614 LINE",
"128 551 OFFCURVE",
"171 498 OFFCURVE",
"171 416 CURVE SMOOTH",
"171 289 OFFCURVE",
"62 80 OFFCURVE",
"62 -90 CURVE SMOOTH",
"62 -225 OFFCURVE",
"147 -312 OFFCURVE",
"243 -339 CURVE"
);
},
{
closed = 1;
nodes = (
"0 -495 LINE",
"0 818 LINE",
"341 818 LINE",
"341 -495 LINE"
);
}
);
};
layerId = m01;
paths = (
{
closed = 1;
nodes = (
"291 -246 LINE",
"286 -235 LINE",
"168 -203 OFFCURVE",
"117 -129 OFFCURVE",
"117 -42 CURVE SMOOTH",
"117 99 OFFCURVE",
"237 300 OFFCURVE",
"237 489 CURVE SMOOTH",
"237 601 OFFCURVE",
"166 674 OFFCURVE",
"112 713 CURVE",
"100 713 LINE",
"50 614 LINE",
"128 551 OFFCURVE",
"171 498 OFFCURVE",
"171 416 CURVE SMOOTH",
"171 289 OFFCURVE",
"62 80 OFFCURVE",
"62 -90 CURVE SMOOTH",
"62 -225 OFFCURVE",
"147 -312 OFFCURVE",
"243 -339 CURVE"
);
}
);
width = 341;
}
);
unicode = 10B26;
},
{
glyphname = "o-avestan";
layers = (
{
background = {
paths = (
{
closed = 1;
nodes = (
"530 177 OFFCURVE",
"547 233 OFFCURVE",
"547 277 CURVE SMOOTH",
"547 319 OFFCURVE",
"516 363 OFFCURVE",
"463 363 CURVE SMOOTH",
"405 363 OFFCURVE",
"366 329 OFFCURVE",
"289 329 CURVE SMOOTH",
"220 329 OFFCURVE",
"185 361 OFFCURVE",
"175 409 CURVE",
"185 457 OFFCURVE",
"199 527 OFFCURVE",
"199 575 CURVE SMOOTH",
"199 700 OFFCURVE",
"96 808 OFFCURVE",
"15 818 CURVE",
"-3 740 OFFCURVE",
"-40 680 OFFCURVE",
"-83 640 CURVE",
"-64 608 LINE",
"-40 624 OFFCURVE",
"-5 670 OFFCURVE",
"4 700 CURVE",
"65 690 OFFCURVE",
"143 614 OFFCURVE",
"143 508 CURVE SMOOTH",
"143 450 OFFCURVE",
"118 390 OFFCURVE",
"118 337 CURVE SMOOTH",
"118 264 OFFCURVE",
"180 212 OFFCURVE",
"257 212 CURVE SMOOTH",
"354 212 OFFCURVE",
"409 255 OFFCURVE",
"457 255 CURVE SMOOTH",
"491 255 OFFCURVE",
"512 235 OFFCURVE",
"498 187 CURVE",
"438 152 OFFCURVE",
"323 117 OFFCURVE",
"241 117 CURVE",
"219 78 OFFCURVE",
"208 39 OFFCURVE",
"206 0 CURVE",
"321 0 OFFCURVE",
"453 59 OFFCURVE",
"496 125 CURVE SMOOTH"
);
},
{
closed = 1;
nodes = (
"228 39 OFFCURVE",
"239 78 OFFCURVE",
"241 117 CURVE",
"170 117 OFFCURVE",
"125 134 OFFCURVE",
"98 157 CURVE",
"50 63 LINE",
"68 25 OFFCURVE",
"121 0 OFFCURVE",
"206 0 CURVE"
);
},
{
closed = 1;
nodes = (
"0 -495 LINE",
"0 818 LINE",
"597 818 LINE",
"597 -495 LINE"
);
}
);
};
components = (
{
name = _part.avst.lamedh.second;
},
{
alignment = -1;
name = _part.avst.conector.ladhsecond;
}
);
layerId = m01;
width = 597;
}
);
unicode = 10B0A;
},
{
glyphname = "oo-avestan";
layers = (
{
background = {
paths = (
{
closed = 1;
nodes = (
"530 177 OFFCURVE",
"547 233 OFFCURVE",
"547 277 CURVE SMOOTH",
"547 319 OFFCURVE",
"516 363 OFFCURVE",
"463 363 CURVE SMOOTH",
"405 363 OFFCURVE",
"366 329 OFFCURVE",
"289 329 CURVE SMOOTH",
"220 329 OFFCURVE",
"185 361 OFFCURVE",
"175 409 CURVE",
"185 457 OFFCURVE",
"199 527 OFFCURVE",
"199 575 CURVE SMOOTH",
"199 700 OFFCURVE",
"96 808 OFFCURVE",
"15 818 CURVE",
"-3 740 OFFCURVE",
"-40 680 OFFCURVE",
"-83 640 CURVE",
"-64 608 LINE",
"-40 624 OFFCURVE",
"-5 670 OFFCURVE",
"4 700 CURVE",
"65 690 OFFCURVE",
"143 614 OFFCURVE",
"143 508 CURVE SMOOTH",
"143 450 OFFCURVE",
"118 390 OFFCURVE",
"118 337 CURVE SMOOTH",
"118 264 OFFCURVE",
"180 212 OFFCURVE",
"257 212 CURVE SMOOTH",
"354 212 OFFCURVE",
"409 255 OFFCURVE",
"457 255 CURVE SMOOTH",
"491 255 OFFCURVE",
"512 235 OFFCURVE",
"498 187 CURVE",
"438 152 OFFCURVE",
"323 117 OFFCURVE",
"241 117 CURVE",
"219 78 OFFCURVE",
"208 39 OFFCURVE",
"206 0 CURVE",
"321 0 OFFCURVE",
"453 59 OFFCURVE",
"496 125 CURVE SMOOTH"
);
},
{
closed = 1;
nodes = (
"228 39 OFFCURVE",
"239 78 OFFCURVE",
"241 117 CURVE",
"170 117 OFFCURVE",
"125 134 OFFCURVE",
"98 157 CURVE",
"50 63 LINE",
"68 25 OFFCURVE",
"121 0 OFFCURVE",
"206 0 CURVE"
);
},
{
closed = 1;
nodes = (
"309 -184 LINE",
"301 -174 LINE",
"216 -143 OFFCURVE",
"190 -79 OFFCURVE",
"251 21 CURVE",
"232 53 LINE",
"201 0 OFFCURVE",
"157 -73 OFFCURVE",
"157 -144 CURVE SMOOTH",
"157 -222 OFFCURVE",
"213 -258 OFFCURVE",
"262 -277 CURVE"
);
},
{
closed = 1;
nodes = (
"0 -495 LINE",
"0 818 LINE",
"597 818 LINE",
"597 -495 LINE"
);
}
);
};
components = (
{
name = _part.avst.lamedh.second;
},
{
alignment = -1;
name = _part.avst.conector.ladhsecond;
},
{
alignment = -1;
name = _part.avst.madd.avestan;
transform = "{1, 0, 0, 1, -13, 0}";
}
);
layerId = m01;
width = 597;
}
);
unicode = 10B0B;
},
{
glyphname = "pe-avestan";
layers = (
{
background = {
paths = (
{
closed = 1;
nodes = (
"50 -136 OFFCURVE",
"116 -231 OFFCURVE",
"282 -231 CURVE",
"304 -192 OFFCURVE",
"315 -153 OFFCURVE",
"317 -114 CURVE",
"174 -114 OFFCURVE",
"102 -56 OFFCURVE",
"102 41 CURVE",
"85 33 OFFCURVE",
"67 15 OFFCURVE",
"50 -13 CURVE"
);
},
{
closed = 1;
nodes = (
"102 41 LINE",
"102 142 OFFCURVE",
"202 279 OFFCURVE",
"263 279 CURVE SMOOTH",
"310 279 OFFCURVE",
"340 214 OFFCURVE",
"349 191 CURVE",
"326 168 OFFCURVE",
"264 144 OFFCURVE",
"197 144 CURVE SMOOTH",
"163 144 OFFCURVE",
"139 151 OFFCURVE",
"122 164 CURVE",
"74 70 LINE",
"82 42 OFFCURVE",
"122 27 OFFCURVE",
"162 27 CURVE SMOOTH",
"238 27 OFFCURVE",
"292 66 OFFCURVE",
"322 100 CURVE SMOOTH",
"351 134 OFFCURVE",
"391 194 OFFCURVE",
"391 248 CURVE SMOOTH",
"391 307 OFFCURVE",
"360 396 OFFCURVE",
"308 396 CURVE SMOOTH",
"234 396 OFFCURVE",
"50 134 OFFCURVE",
"50 -13 CURVE"
);
},
{
closed = 1;
nodes = (
"295 -153 OFFCURVE",
"284 -192 OFFCURVE",
"282 -231 CURVE",
"436 -231 OFFCURVE",
"560 -176 OFFCURVE",
"606 -96 CURVE SMOOTH",
"676 26 OFFCURVE",
"666 149 OFFCURVE",
"637 270 CURVE SMOOTH",
"602 416 LINE",
"590 416 LINE",
"535 307 LINE",
"571 174 LINE SMOOTH",
"599 71 OFFCURVE",
"613 4 OFFCURVE",
"590 -54 CURVE",
"518 -92 OFFCURVE",
"408 -114 OFFCURVE",
"317 -114 CURVE"
);
},
{
closed = 1;
nodes = (
"0 -495 LINE",
"0 818 LINE",
"709 818 LINE",
"709 -495 LINE"
);
}
);
};
components = (
{
name = _part.avst.head.peh;
},
{
name = _part.avst.peh.ending;
}
);
layerId = m01;
width = 709;
}
);
unicode = 10B1E;
},
{
glyphname = "re-avestan";
layers = (
{
background = {
paths = (
{
closed = 1;
nodes = (
"120 193 OFFCURVE",
"141 112 OFFCURVE",
"141 10 CURVE SMOOTH",
"141 -57 OFFCURVE",
"129 -137 OFFCURVE",
"114 -235 CURVE",
"143 -244 LINE",
"174 -139 OFFCURVE",
"205 -26 OFFCURVE",
"205 93 CURVE SMOOTH",
"205 190 OFFCURVE",
"181 278 OFFCURVE",
"117 416 CURVE",
"105 416 LINE",
"50 307 LINE"
);
},
{
closed = 1;
nodes = (
"0 -495 LINE",
"0 818 LINE",
"255 818 LINE",
"255 -495 LINE"
);
}
);
};
layerId = m01;
paths = (
{
closed = 1;
nodes = (
"120 193 OFFCURVE",
"141 112 OFFCURVE",
"141 10 CURVE SMOOTH",
"141 -57 OFFCURVE",
"129 -137 OFFCURVE",
"114 -235 CURVE",
"143 -244 LINE",
"174 -139 OFFCURVE",
"205 -26 OFFCURVE",
"205 93 CURVE SMOOTH",
"205 190 OFFCURVE",
"181 278 OFFCURVE",
"117 416 CURVE",
"105 416 LINE",
"50 307 LINE"
);
}
);
width = 255;
}
);
unicode = 10B2D;
},
{
glyphname = "se-avestan";
layers = (
{
anchors = (
{
name = "#entry";
position = "{201, 0}";
},
{
name = "#exit";
position = "{82, 0}";
}
);
background = {
paths = (
{
closed = 1;
nodes = (
"168 -192 OFFCURVE",
"179 -153 OFFCURVE",
"181 -114 CURVE",
"144 -114 OFFCURVE",
"115 -107 OFFCURVE",
"98 -94 CURVE",
"50 -188 LINE",
"58 -216 OFFCURVE",
"91 -231 OFFCURVE",
"146 -231 CURVE"
);
},
{
closed = 1;
nodes = (
"386 -35 LINE",
"325 -87 OFFCURVE",
"252 -114 OFFCURVE",
"181 -114 CURVE",
"146 -231 LINE",
"219 -231 OFFCURVE",
"322 -196 OFFCURVE",
"369 -123 CURVE"
);
},
{
closed = 1;
nodes = (
"369 -123 LINE",
"403 -71 OFFCURVE",
"430 1 OFFCURVE",
"430 88 CURVE SMOOTH",
"430 264 OFFCURVE",
"301 416 OFFCURVE",
"220 416 CURVE SMOOTH",
"165 416 OFFCURVE",
"122 286 OFFCURVE",
"107 225 CURVE",
"128 211 LINE",
"147 263 OFFCURVE",
"165 299 OFFCURVE",
"193 299 CURVE SMOOTH",
"257 299 OFFCURVE",
"381 157 OFFCURVE",
"381 26 CURVE SMOOTH",
"381 -10 OFFCURVE",
"376 -40 OFFCURVE",
"370 -53 CURVE"
);
},
{
closed = 1;
nodes = (
"297 -134 LINE",
"330 -193 OFFCURVE",
"395 -231 OFFCURVE",
"500 -231 CURVE",
"536 -192 OFFCURVE",
"544 -153 OFFCURVE",
"535 -114 CURVE",
"457 -114 OFFCURVE",
"400 -97 OFFCURVE",
"364 -65 CURVE"
);
},
{
closed = 1;
nodes = (
"513 -153 OFFCURVE",
"502 -192 OFFCURVE",
"500 -231 CURVE",
"620 -231 OFFCURVE",
"707 -174 OFFCURVE",
"758 -94 CURVE SMOOTH",
"829 17 OFFCURVE",
"820 149 OFFCURVE",
"789 270 CURVE SMOOTH",
"752 416 LINE",
"740 416 LINE",
"685 307 LINE",
"753 79 OFFCURVE",
"762 1 OFFCURVE",
"742 -54 CURVE",
"691 -95 OFFCURVE",
"606 -114 OFFCURVE",
"535 -114 CURVE"
);
},
{
closed = 1;
nodes = (
"0 -495 LINE",
"0 818 LINE",
"862 818 LINE",
"862 -495 LINE"
);
}
);
};
components = (
{
alignment = -1;
name = _part.avst.gge.head;
transform = "{1, 0, 0, 1, 500, 0}";
},
{
alignment = -1;
name = _part.avst.lower.connector;
transform = "{1, 0, 0, 1, 434, 0}";
},
{
alignment = -1;
name = "_part.avst.se-avestan";
},
{
alignment = -1;
name = "_part.avst.keheh-phlv.transition";
},
{
alignment = -1;
name = _part.avst.keheh_ending;
transform = "{1, 0, 0, 1, 2, -231}";
}
);
layerId = m01;
width = 861;
}
);
unicode = 10B2F;
},
{
glyphname = "she-avestan";
layers = (
{
background = {
paths = (
{
closed = 1;
nodes = (
"910 -147 OFFCURVE",
"1084 -54 OFFCURVE",
"1084 151 CURVE SMOOTH",
"1084 201 OFFCURVE",
"1075 250 OFFCURVE",
"1059 293 CURVE SMOOTH",
"1031 365 OFFCURVE",
"984 416 OFFCURVE",
"945 416 CURVE SMOOTH",
"911 416 OFFCURVE",
"897 401 OFFCURVE",
"860 301 CURVE SMOOTH",
"847 266 OFFCURVE",
"860 208 OFFCURVE",
"913 208 CURVE SMOOTH",
"942 208 OFFCURVE",
"964 222 OFFCURVE",
"979 243 CURVE",
"1029 174 OFFCURVE",
"1036 115 OFFCURVE",
"1026 43 CURVE",
"958 -9 OFFCURVE",
"886 -30 OFFCURVE",
"790 -30 CURVE SMOOTH",
"630 -30 OFFCURVE",
"608 48 OFFCURVE",
"628 115 CURVE",
"572 37 LINE",
"572 -76 OFFCURVE",
"639 -147 OFFCURVE",
"755 -147 CURVE SMOOTH"
);
},
{
closed = 1;
nodes = (
"458 78 OFFCURVE",
"455 29 OFFCURVE",
"455 0 CURVE",
"596 0 OFFCURVE",
"682 142 OFFCURVE",
"682 245 CURVE SMOOTH",
"682 297 OFFCURVE",
"662 348 OFFCURVE",
"634 416 CURVE",
"622 416 LINE",
"574 323 LINE",
"597 277 OFFCURVE",
"633 189 OFFCURVE",
"623 150 CURVE",
"589 129 OFFCURVE",
"534 117 OFFCURVE",
"490 117 CURVE"
);
},
{
closed = 1;
nodes = (
"327 87 LINE",
"349 25 OFFCURVE",
"399 0 OFFCURVE",
"455 0 CURVE",
"487 39 OFFCURVE",
"498 78 OFFCURVE",
"490 117 CURVE",
"432 117 OFFCURVE",
"392 129 OFFCURVE",
"374 158 CURVE"
);
},
{
closed = 1;
nodes = (
"149 78 OFFCURVE",
"146 29 OFFCURVE",
"146 0 CURVE",
"239 0 OFFCURVE",
"333 38 OFFCURVE",
"372 96 CURVE SMOOTH",
"403 143 OFFCURVE",
"423 198 OFFCURVE",
"423 245 CURVE SMOOTH",
"423 297 OFFCURVE",
"403 348 OFFCURVE",
"375 416 CURVE",
"363 416 LINE",
"315 323 LINE",
"338 277 OFFCURVE",
"374 189 OFFCURVE",
"364 150 CURVE",
"313 128 OFFCURVE",
"235 117 OFFCURVE",
"181 117 CURVE"
);
},
{
closed = 1;
nodes = (
"168 39 OFFCURVE",
"179 78 OFFCURVE",
"181 117 CURVE",
"144 117 OFFCURVE",
"115 124 OFFCURVE",
"98 137 CURVE",
"50 43 LINE",
"58 15 OFFCURVE",
"91 0 OFFCURVE",
"146 0 CURVE"
);
},
{
closed = 1;
nodes = (
"0 -495 LINE",
"0 818 LINE",
"1134 818 LINE",
"1134 -495 LINE"
);
}
);
};
components = (
{
alignment = -1;
name = _part.avst.eh.halghe;
transform = "{1, 0, 0, 1, 572, 0}";
},
{
alignment = -1;
name = _part.avst.alef.head;
transform = "{1, 0, 0, 1, 455, 0}";
},
{
alignment = -1;
name = _part.avst.right.connector;
transform = "{1, 0, 0, 1, 2, 0}";
},
{
alignment = -1;
name = "i-avestan";
}
);
layerId = m01;
width = 1134;
}
);
unicode = 10B31;
},
{
glyphname = "shye-avestan";
layers = (
{
background = {
paths = (
{
closed = 1;
nodes = (
"1158 -147 OFFCURVE",
"1332 -54 OFFCURVE",
"1332 151 CURVE SMOOTH",
"1332 201 OFFCURVE",
"1323 250 OFFCURVE",
"1307 293 CURVE SMOOTH",
"1279 365 OFFCURVE",
"1232 416 OFFCURVE",
"1193 416 CURVE SMOOTH",
"1159 416 OFFCURVE",
"1145 401 OFFCURVE",
"1108 301 CURVE SMOOTH",
"1095 266 OFFCURVE",
"1108 208 OFFCURVE",
"1161 208 CURVE SMOOTH",
"1190 208 OFFCURVE",
"1212 222 OFFCURVE",
"1227 243 CURVE",
"1277 174 OFFCURVE",
"1284 115 OFFCURVE",
"1274 43 CURVE",
"1206 -9 OFFCURVE",
"1134 -30 OFFCURVE",
"1038 -30 CURVE SMOOTH",
"878 -30 OFFCURVE",
"856 48 OFFCURVE",
"876 115 CURVE",
"820 37 LINE",
"820 -76 OFFCURVE",
"887 -147 OFFCURVE",
"1003 -147 CURVE SMOOTH"
);
},
{
closed = 1;
nodes = (
"706 78 OFFCURVE",
"703 29 OFFCURVE",
"703 0 CURVE",
"844 0 OFFCURVE",
"930 142 OFFCURVE",
"930 245 CURVE SMOOTH",
"930 297 OFFCURVE",
"910 348 OFFCURVE",
"882 416 CURVE",
"870 416 LINE",
"822 323 LINE",
"845 277 OFFCURVE",
"881 189 OFFCURVE",
"871 150 CURVE",
"837 129 OFFCURVE",
"782 117 OFFCURVE",
"738 117 CURVE"
);
},
{
closed = 1;
nodes = (
"575 87 LINE",
"597 25 OFFCURVE",
"647 0 OFFCURVE",
"703 0 CURVE",
"735 39 OFFCURVE",
"746 78 OFFCURVE",
"738 117 CURVE",
"680 117 OFFCURVE",
"640 129 OFFCURVE",
"622 158 CURVE"
);
},
{
closed = 1;
nodes = (
"397 78 OFFCURVE",
"394 29 OFFCURVE",
"394 0 CURVE",
"487 0 OFFCURVE",
"581 38 OFFCURVE",
"620 96 CURVE SMOOTH",
"651 143 OFFCURVE",
"671 198 OFFCURVE",
"671 245 CURVE SMOOTH",
"671 297 OFFCURVE",
"651 348 OFFCURVE",
"623 416 CURVE",
"611 416 LINE",
"563 323 LINE",
"586 277 OFFCURVE",
"622 189 OFFCURVE",
"612 150 CURVE",
"561 128 OFFCURVE",
"483 117 OFFCURVE",
"429 117 CURVE"
);
},
{
closed = 1;
nodes = (
"387 77 OFFCURVE",
"370 57 OFFCURVE",
"354 26 CURVE",
"354 -57 OFFCURVE",
"257 -167 OFFCURVE",
"50 -305 CURVE",
"50 -339 LINE",
"81 -339 OFFCURVE",
"161 -336 OFFCURVE",
"224 -294 CURVE SMOOTH",
"338 -217 OFFCURVE",
"403 -31 OFFCURVE",
"403 88 CURVE"
);
},
{
closed = 1;
nodes = (
"403 88 LINE",
"403 236 OFFCURVE",
"346 416 OFFCURVE",
"259 416 CURVE SMOOTH",
"181 416 OFFCURVE",
"92 229 OFFCURVE",
"92 140 CURVE SMOOTH",
"92 29 OFFCURVE",
"176 0 OFFCURVE",
"310 0 CURVE SMOOTH",
"394 0 LINE",
"426 29 OFFCURVE",
"437 78 OFFCURVE",
"429 117 CURVE",
"330 117 LINE SMOOTH",
"248 117 OFFCURVE",
"156 117 OFFCURVE",
"131 170 CURVE",
"141 217 OFFCURVE",
"191 299 OFFCURVE",
"232 299 CURVE SMOOTH",
"310 299 OFFCURVE",
"354 120 OFFCURVE",
"354 26 CURVE"
);
},
{
closed = 1;
nodes = (
"0 -495 LINE",
"0 818 LINE",
"1382 818 LINE",
"1382 -495 LINE"
);
}
);
};
components = (
{
alignment = -1;
name = _part.avst.eh.halghe;
transform = "{1, 0, 0, 1, 820, 0}";
},
{
alignment = -1;
name = _part.avst.alef.head;
transform = "{1, 0, 0, 1, 703, 0}";
},
{
alignment = -1;
name = _part.avst.right.connector;
transform = "{1, 0, 0, 1, 250, 0}";
},
{
alignment = -1;
name = _part.avst.ee.avestan;
transform = "{1, 0, 0, 1, 216, 0}";
},
{
alignment = -1;
name = _part.avst.head.kehmotassel;
transform = "{1, 0, 0, 1, -27, 0}";
},
{
alignment = -1;
name = _part.avst.kaf.tail;
}
);
layerId = m01;
width = 1382;
}
);
unicode = 10B33;
},
{
glyphname = "sshe-avestan";
layers = (
{
background = {
paths = (
{
closed = 1;
nodes = (
"990 -147 OFFCURVE",
"1164 -54 OFFCURVE",
"1164 151 CURVE SMOOTH",
"1164 201 OFFCURVE",
"1155 250 OFFCURVE",
"1139 293 CURVE SMOOTH",
"1111 365 OFFCURVE",
"1064 416 OFFCURVE",
"1025 416 CURVE SMOOTH",
"991 416 OFFCURVE",
"977 401 OFFCURVE",
"940 301 CURVE SMOOTH",
"927 266 OFFCURVE",
"940 208 OFFCURVE",
"993 208 CURVE SMOOTH",
"1022 208 OFFCURVE",
"1044 222 OFFCURVE",
"1059 243 CURVE",
"1109 174 OFFCURVE",
"1116 115 OFFCURVE",
"1106 43 CURVE",
"1038 -9 OFFCURVE",
"966 -30 OFFCURVE",
"870 -30 CURVE SMOOTH",
"710 -30 OFFCURVE",
"688 48 OFFCURVE",
"708 115 CURVE",
"652 37 LINE",
"652 -76 OFFCURVE",
"719 -147 OFFCURVE",
"835 -147 CURVE SMOOTH"
);
},
{
closed = 1;
nodes = (
"705 -321 OFFCURVE",
"767 -195 OFFCURVE",
"844 -106 CURVE",
"790 -106 LINE",
"723 -200 OFFCURVE",
"658 -350 OFFCURVE",
"647 -514 CURVE",
"681 -531 LINE"
);
},
{
closed = 1;
nodes = (
"279 78 OFFCURVE",
"276 29 OFFCURVE",
"276 0 CURVE",
"417 0 OFFCURVE",
"503 142 OFFCURVE",
"503 245 CURVE SMOOTH",
"503 297 OFFCURVE",
"483 348 OFFCURVE",
"455 416 CURVE",
"443 416 LINE",
"395 323 LINE",
"418 277 OFFCURVE",
"454 189 OFFCURVE",
"444 150 CURVE",
"410 129 OFFCURVE",
"355 117 OFFCURVE",
"311 117 CURVE"
);
},
{
closed = 1;
nodes = (
"538 78 OFFCURVE",
"535 29 OFFCURVE",
"535 0 CURVE",
"676 0 OFFCURVE",
"762 142 OFFCURVE",
"762 245 CURVE SMOOTH",
"762 297 OFFCURVE",
"742 348 OFFCURVE",
"714 416 CURVE",
"702 416 LINE",
"654 323 LINE",
"677 277 OFFCURVE",
"713 189 OFFCURVE",
"703 150 CURVE",
"669 129 OFFCURVE",
"614 117 OFFCURVE",
"570 117 CURVE"
);
},
{
closed = 1;
nodes = (
"407 87 LINE",
"429 25 OFFCURVE",
"479 0 OFFCURVE",
"535 0 CURVE",
"567 39 OFFCURVE",
"578 78 OFFCURVE",
"570 117 CURVE",
"512 117 OFFCURVE",
"472 129 OFFCURVE",
"454 158 CURVE"
);
},
{
closed = 1;
nodes = (
"163 -184 OFFCURVE",
"126 -240 OFFCURVE",
"126 -306 CURVE SMOOTH",
"126 -380 OFFCURVE",
"191 -441 OFFCURVE",
"272 -441 CURVE SMOOTH",
"369 -441 OFFCURVE",
"493 -383 OFFCURVE",
"588 -383 CURVE SMOOTH",
"629 -383 OFFCURVE",
"652 -395 OFFCURVE",
"671 -401 CURVE",
"705 -336 LINE",
"665 -312 OFFCURVE",
"629 -295 OFFCURVE",
"560 -295 CURVE SMOOTH",
"492 -295 OFFCURVE",
"391 -324 OFFCURVE",
"304 -324 CURVE SMOOTH",
"224 -324 OFFCURVE",
"186 -285 OFFCURVE",
"181 -228 CURVE",
"220 -132 OFFCURVE",
"234 -59 OFFCURVE",
"222 14 CURVE",
"237 5 OFFCURVE",
"255 0 OFFCURVE",
"276 0 CURVE",
"308 29 OFFCURVE",
"319 78 OFFCURVE",
"311 117 CURVE",
"190 117 OFFCURVE",
"169 208 OFFCURVE",
"110 362 CURVE",
"98 362 LINE",
"50 269 LINE",
"114 128 OFFCURVE",
"163 14 OFFCURVE",
"163 -105 CURVE SMOOTH"
);
},
{
closed = 1;
nodes = (
"0 -495 LINE",
"0 818 LINE",
"1214 818 LINE",
"1214 -495 LINE"
);
}
);
};
components = (
{
alignment = -1;
name = "_part.avst.ye-avestan";
transform = "{1, 0, 0, 1, 276, 0}";
},
{
alignment = -1;
name = _part.avst.reh.tail;
transform = "{1, 0, 0, 1, 1, 0}";
},
{
alignment = -1;
name = "_part.avst.sshe-avestan";
transform = "{1, 0, 0, 1, 2, 0}";
}
);
layerId = m01;
width = 1213;
}
);
unicode = 10B34;
},
{
glyphname = "te-avestan";
layers = (
{
anchors = (
{
name = "#entry";
position = "{550, 0}";
}
);
background = {
paths = (
{
closed = 1;
nodes = (
"165 100 LINE",
"196 47 OFFCURVE",
"230 0 OFFCURVE",
"327 0 CURVE SMOOTH",
"430 0 OFFCURVE",
"528 40 OFFCURVE",
"579 99 CURVE SMOOTH",
"609 132 OFFCURVE",
"636 184 OFFCURVE",
"636 238 CURVE SMOOTH",
"636 312 OFFCURVE",
"526 416 OFFCURVE",
"462 416 CURVE SMOOTH",
"360 416 OFFCURVE",
"302 213 OFFCURVE",
"271 110 CURVE",
"309 99 LINE",
"332 187 OFFCURVE",
"367 299 OFFCURVE",
"425 299 CURVE SMOOTH",
"477 299 OFFCURVE",
"556 235 OFFCURVE",
"594 191 CURVE",
"565 162 OFFCURVE",
"474 117 OFFCURVE",
"362 117 CURVE SMOOTH",
"257 117 OFFCURVE",
"214 146 OFFCURVE",
"171 226 CURVE"
);
},
{
closed = 1;
nodes = (
"171 226 LINE",
"153 261 OFFCURVE",
"133 306 OFFCURVE",
"110 362 CURVE",
"98 362 LINE",
"50 269 LINE",
"118 140 LINE SMOOTH",
"154 71 OFFCURVE",
"161 20 OFFCURVE",
"161 -45 CURVE SMOOTH",
"161 -100 OFFCURVE",
"150 -165 OFFCURVE",
"137 -235 CURVE",
"166 -244 LINE",
"199 -149 OFFCURVE",
"220 -70 OFFCURVE",
"218 0 CURVE SMOOTH",
"216 57 LINE"
);
},
{
closed = 1;
nodes = (
"0 -495 LINE",
"0 818 LINE",
"686 818 LINE",
"686 -495 LINE"
);
}
);
};
components = (
{
name = _part.avst.reh.last;
}
);
layerId = m01;
paths = (
{
closed = 1;
nodes = (
"165 100 LINE",
"196 47 OFFCURVE",
"230 0 OFFCURVE",
"327 0 CURVE SMOOTH",
"430 0 OFFCURVE",
"528 40 OFFCURVE",
"579 99 CURVE SMOOTH",
"609 132 OFFCURVE",
"636 184 OFFCURVE",
"636 238 CURVE SMOOTH",
"636 312 OFFCURVE",
"526 416 OFFCURVE",
"462 416 CURVE SMOOTH",
"360 416 OFFCURVE",
"302 213 OFFCURVE",
"271 110 CURVE",
"309 99 LINE",
"332 187 OFFCURVE",
"367 299 OFFCURVE",
"425 299 CURVE SMOOTH",
"477 299 OFFCURVE",
"556 235 OFFCURVE",
"594 191 CURVE",
"565 162 OFFCURVE",
"474 117 OFFCURVE",
"362 117 CURVE SMOOTH",
"257 117 OFFCURVE",
"214 146 OFFCURVE",
"171 226 CURVE"
);
}
);
width = 686;
}
);
unicode = 10B19;
},
{
glyphname = "the-avestan";
layers = (
{
background = {
paths = (
{
closed = 1;
nodes = (
"295 -153 OFFCURVE",
"284 -192 OFFCURVE",
"282 -231 CURVE",
"436 -231 OFFCURVE",
"560 -176 OFFCURVE",
"606 -96 CURVE SMOOTH",
"676 26 OFFCURVE",
"666 149 OFFCURVE",
"637 270 CURVE SMOOTH",
"602 416 LINE",
"590 416 LINE",
"535 307 LINE",
"571 174 LINE SMOOTH",
"599 71 OFFCURVE",
"613 4 OFFCURVE",
"590 -54 CURVE",
"518 -92 OFFCURVE",
"408 -114 OFFCURVE",
"317 -114 CURVE"
);
},
{
closed = 1;
nodes = (
"314 -192 OFFCURVE",
"325 -153 OFFCURVE",
"317 -114 CURVE",
"174 -114 OFFCURVE",
"111 -56 OFFCURVE",
"111 41 CURVE SMOOTH",
"111 186 OFFCURVE",
"255 310 OFFCURVE",
"255 489 CURVE SMOOTH",
"255 601 OFFCURVE",
"184 674 OFFCURVE",
"130 713 CURVE",
"118 713 LINE",
"68 614 LINE",
"146 551 OFFCURVE",
"189 498 OFFCURVE",
"189 416 CURVE SMOOTH",
"189 299 OFFCURVE",
"50 147 OFFCURVE",
"50 -13 CURVE SMOOTH",
"50 -136 OFFCURVE",
"116 -231 OFFCURVE",
"282 -231 CURVE"
);
},
{
closed = 1;
nodes = (
"0 -495 LINE",
"0 818 LINE",
"709 818 LINE",
"709 -495 LINE"
);
}
);
};
components = (
{
alignment = -1;
name = _part.avst.head.peh;
},
{
name = _part.avst.the.ending;
}
);
layerId = m01;
width = 709;
}
);
unicode = 10B1A;
},
{
glyphname = "tte-avestan";
layers = (
{
background = {
paths = (
{
closed = 1;
nodes = (
"165 100 LINE",
"196 47 OFFCURVE",
"230 0 OFFCURVE",
"327 0 CURVE SMOOTH",
"430 0 OFFCURVE",
"528 40 OFFCURVE",
"579 99 CURVE SMOOTH",
"609 132 OFFCURVE",
"636 184 OFFCURVE",
"636 238 CURVE SMOOTH",
"636 312 OFFCURVE",
"526 416 OFFCURVE",
"462 416 CURVE SMOOTH",
"360 416 OFFCURVE",
"302 213 OFFCURVE",
"271 110 CURVE",
"309 99 LINE",
"332 187 OFFCURVE",
"367 299 OFFCURVE",
"425 299 CURVE SMOOTH",
"477 299 OFFCURVE",
"556 235 OFFCURVE",
"594 191 CURVE",
"565 162 OFFCURVE",
"474 117 OFFCURVE",
"362 117 CURVE SMOOTH",
"257 117 OFFCURVE",
"214 146 OFFCURVE",
"171 226 CURVE"
);
},
{
closed = 1;
nodes = (
"163 -183 OFFCURVE",
"126 -239 OFFCURVE",
"126 -305 CURVE SMOOTH",
"126 -379 OFFCURVE",
"191 -440 OFFCURVE",
"272 -440 CURVE SMOOTH",
"369 -440 OFFCURVE",
"493 -382 OFFCURVE",
"588 -382 CURVE SMOOTH",
"629 -382 OFFCURVE",
"652 -394 OFFCURVE",
"671 -400 CURVE",
"705 -335 LINE",
"665 -311 OFFCURVE",
"629 -294 OFFCURVE",
"560 -294 CURVE SMOOTH",
"492 -294 OFFCURVE",
"391 -323 OFFCURVE",
"304 -323 CURVE SMOOTH",
"224 -323 OFFCURVE",
"186 -284 OFFCURVE",
"181 -227 CURVE",
"220 -131 OFFCURVE",
"235 -58 OFFCURVE",
"222 15 CURVE SMOOTH",
"215 53 OFFCURVE",
"191 189 OFFCURVE",
"171 226 CURVE SMOOTH",
"152 261 OFFCURVE",
"133 306 OFFCURVE",
"110 363 CURVE",
"98 363 LINE",
"50 270 LINE",
"130 109 OFFCURVE",
"163 15 OFFCURVE",
"163 -104 CURVE SMOOTH"
);
},
{
closed = 1;
nodes = (
"0 -495 LINE",
"0 818 LINE",
"686 818 LINE",
"686 -495 LINE"
);
}
);
};
layerId = m01;
paths = (
{
closed = 1;
nodes = (
"165 100 LINE",
"196 47 OFFCURVE",
"230 0 OFFCURVE",
"327 0 CURVE SMOOTH",
"430 0 OFFCURVE",
"528 40 OFFCURVE",
"579 99 CURVE SMOOTH",
"609 132 OFFCURVE",
"636 184 OFFCURVE",
"636 238 CURVE SMOOTH",
"636 312 OFFCURVE",
"526 416 OFFCURVE",
"462 416 CURVE SMOOTH",
"360 416 OFFCURVE",
"302 213 OFFCURVE",
"271 110 CURVE",
"309 99 LINE",
"332 187 OFFCURVE",
"367 299 OFFCURVE",
"425 299 CURVE SMOOTH",
"477 299 OFFCURVE",
"556 235 OFFCURVE",
"594 191 CURVE",
"565 162 OFFCURVE",
"474 117 OFFCURVE",
"362 117 CURVE SMOOTH",
"257 117 OFFCURVE",
"214 146 OFFCURVE",
"171 226 CURVE"
);
},
{
closed = 1;
nodes = (
"163 -183 OFFCURVE",
"126 -239 OFFCURVE",
"126 -305 CURVE SMOOTH",
"126 -379 OFFCURVE",
"191 -440 OFFCURVE",
"272 -440 CURVE SMOOTH",
"369 -440 OFFCURVE",
"493 -382 OFFCURVE",
"588 -382 CURVE SMOOTH",
"629 -382 OFFCURVE",
"652 -394 OFFCURVE",
"671 -400 CURVE",
"705 -335 LINE",
"665 -311 OFFCURVE",
"629 -294 OFFCURVE",
"560 -294 CURVE SMOOTH",
"492 -294 OFFCURVE",
"391 -323 OFFCURVE",
"304 -323 CURVE SMOOTH",
"224 -323 OFFCURVE",
"186 -284 OFFCURVE",
"181 -227 CURVE",
"220 -131 OFFCURVE",
"235 -58 OFFCURVE",
"222 15 CURVE SMOOTH",
"215 53 OFFCURVE",
"191 189 OFFCURVE",
"171 226 CURVE SMOOTH",
"152 261 OFFCURVE",
"133 306 OFFCURVE",
"110 363 CURVE",
"98 363 LINE",
"50 270 LINE",
"130 109 OFFCURVE",
"163 15 OFFCURVE",
"163 -104 CURVE SMOOTH"
);
}
);
width = 686;
}
);
unicode = 10B1D;
},
{
glyphname = "u-avestan";
layers = (
{
background = {
paths = (
{
closed = 1;
nodes = (
"387 77 OFFCURVE",
"370 57 OFFCURVE",
"354 26 CURVE",
"354 -57 OFFCURVE",
"257 -167 OFFCURVE",
"50 -305 CURVE",
"50 -339 LINE",
"81 -339 OFFCURVE",
"161 -336 OFFCURVE",
"224 -294 CURVE SMOOTH",
"338 -217 OFFCURVE",
"403 -31 OFFCURVE",
"403 88 CURVE"
);
},
{
closed = 1;
nodes = (
"403 88 LINE",
"403 264 OFFCURVE",
"274 416 OFFCURVE",
"193 416 CURVE SMOOTH",
"147 416 OFFCURVE",
"123 346 OFFCURVE",
"107 285 CURVE",
"118 273 LINE",
"131 289 OFFCURVE",
"151 299 OFFCURVE",
"166 299 CURVE SMOOTH",
"230 299 OFFCURVE",
"354 157 OFFCURVE",
"354 26 CURVE"
);
},
{
closed = 1;
nodes = (
"0 -495 LINE",
"0 818 LINE",
"453 818 LINE",
"453 -495 LINE"
);
}
);
};
components = (
{
alignment = -1;
name = _part.avst.kaf.tail;
}
);
layerId = m01;
paths = (
{
closed = 1;
nodes = (
"403 88 LINE",
"403 264 OFFCURVE",
"274 416 OFFCURVE",
"193 416 CURVE SMOOTH",
"147 416 OFFCURVE",
"123 346 OFFCURVE",
"107 285 CURVE",
"118 273 LINE",
"131 289 OFFCURVE",
"151 299 OFFCURVE",
"166 299 CURVE SMOOTH",
"230 299 OFFCURVE",
"354 157 OFFCURVE",
"354 26 CURVE"
);
}
);
width = 453;
}
);
leftKerningGroup = "u-av";
rightKerningGroup = "u-av";
unicode = 10B0E;
},
{
glyphname = "uu-avestan";
layers = (
{
background = {
paths = (
{
closed = 1;
nodes = (
"378 333 LINE",
"426 258 OFFCURVE",
"508 191 OFFCURVE",
"498 139 CURVE",
"473 121 OFFCURVE",
"434 108 OFFCURVE",
"394 108 CURVE SMOOTH",
"327 108 OFFCURVE",
"272 154 OFFCURVE",
"223 154 CURVE SMOOTH",
"143 154 OFFCURVE",
"51 51 OFFCURVE",
"50 -43 CURVE SMOOTH",
"50 -113 OFFCURVE",
"95 -185 OFFCURVE",
"185 -231 CURVE",
"233 -138 LINE",
"228 -127 LINE",
"183 -103 OFFCURVE",
"106 -58 OFFCURVE",
"101 20 CURVE",
"125 34 OFFCURVE",
"154 44 OFFCURVE",
"188 44 CURVE SMOOTH",
"244 44 OFFCURVE",
"304 -9 OFFCURVE",
"359 -9 CURVE SMOOTH",
"414 -9 OFFCURVE",
"460 23 OFFCURVE",
"496 71 CURVE SMOOTH",
"532 120 OFFCURVE",
"549 176 OFFCURVE",
"549 221 CURVE SMOOTH",
"549 296 OFFCURVE",
"488 347 OFFCURVE",
"438 426 CURVE",
"426 426 LINE"
);
},
{
closed = 1;
nodes = (
"457 -184 LINE",
"449 -174 LINE",
"364 -143 OFFCURVE",
"338 -79 OFFCURVE",
"399 21 CURVE",
"380 53 LINE",
"349 0 OFFCURVE",
"305 -73 OFFCURVE",
"305 -144 CURVE SMOOTH",
"305 -222 OFFCURVE",
"361 -258 OFFCURVE",
"410 -277 CURVE"
);
},
{
closed = 1;
nodes = (
"0 -495 LINE",
"0 818 LINE",
"599 818 LINE",
"599 -495 LINE"
);
}
);
};
components = (
{
alignment = -1;
name = _part.avst.madd.avestan;
transform = "{1, 0, 0, 1, 135, 0}";
}
);
layerId = m01;
paths = (
{
closed = 1;
nodes = (
"378 333 LINE",
"426 258 OFFCURVE",
"508 191 OFFCURVE",
"498 139 CURVE",
"473 121 OFFCURVE",
"434 108 OFFCURVE",
"394 108 CURVE SMOOTH",
"327 108 OFFCURVE",
"272 154 OFFCURVE",
"223 154 CURVE SMOOTH",
"143 154 OFFCURVE",
"51 51 OFFCURVE",
"50 -43 CURVE SMOOTH",
"50 -113 OFFCURVE",
"95 -185 OFFCURVE",
"185 -231 CURVE",
"233 -138 LINE",
"228 -127 LINE",
"183 -103 OFFCURVE",
"106 -58 OFFCURVE",
"101 20 CURVE",
"125 34 OFFCURVE",
"154 44 OFFCURVE",
"188 44 CURVE SMOOTH",
"244 44 OFFCURVE",
"304 -9 OFFCURVE",
"359 -9 CURVE SMOOTH",
"414 -9 OFFCURVE",
"460 23 OFFCURVE",
"496 71 CURVE SMOOTH",
"532 120 OFFCURVE",
"549 176 OFFCURVE",
"549 221 CURVE SMOOTH",
"549 296 OFFCURVE",
"488 347 OFFCURVE",
"438 426 CURVE",
"426 426 LINE"
);
}
);
width = 599;
}
);
unicode = 10B0F;
},
{
glyphname = "ve-avestan";
layers = (
{
background = {
paths = (
{
closed = 1;
nodes = (
"295 -153 OFFCURVE",
"284 -192 OFFCURVE",
"282 -231 CURVE",
"436 -231 OFFCURVE",
"560 -176 OFFCURVE",
"606 -96 CURVE SMOOTH",
"676 26 OFFCURVE",
"666 149 OFFCURVE",
"637 270 CURVE SMOOTH",
"602 416 LINE",
"590 416 LINE",
"535 307 LINE",
"571 174 LINE SMOOTH",
"599 71 OFFCURVE",
"613 4 OFFCURVE",
"590 -54 CURVE",
"518 -92 OFFCURVE",
"408 -114 OFFCURVE",
"317 -114 CURVE"
);
},
{
closed = 1;
nodes = (
"314 -192 OFFCURVE",
"325 -153 OFFCURVE",
"317 -114 CURVE",
"174 -114 OFFCURVE",
"111 -56 OFFCURVE",
"111 41 CURVE SMOOTH",
"111 186 OFFCURVE",
"255 310 OFFCURVE",
"255 489 CURVE SMOOTH",
"255 601 OFFCURVE",
"184 674 OFFCURVE",
"130 713 CURVE",
"118 713 LINE",
"68 614 LINE",
"146 551 OFFCURVE",
"189 498 OFFCURVE",
"189 416 CURVE SMOOTH",
"189 299 OFFCURVE",
"50 147 OFFCURVE",
"50 -13 CURVE SMOOTH",
"50 -136 OFFCURVE",
"116 -231 OFFCURVE",
"282 -231 CURVE"
);
},
{
closed = 1;
nodes = (
"378 -415 LINE",
"370 -405 LINE",
"285 -374 OFFCURVE",
"259 -310 OFFCURVE",
"320 -210 CURVE",
"301 -178 LINE",
"270 -231 OFFCURVE",
"226 -304 OFFCURVE",
"226 -375 CURVE SMOOTH",
"226 -453 OFFCURVE",
"282 -489 OFFCURVE",
"331 -508 CURVE"
);
},
{
closed = 1;
nodes = (
"0 -495 LINE",
"0 818 LINE",
"709 818 LINE",
"709 -495 LINE"
);
}
);
};
components = (
{
name = "the-avestan";
},
{
alignment = -1;
name = _part.avst.madd.avestan;
transform = "{1, 0, 0, 1, 56, -231}";
}
);
layerId = m01;
width = 709;
}
);
unicode = 10B2C;
},
{
glyphname = "xe-avestan";
layers = (
{
background = {
paths = (
{
closed = 1;
nodes = (
"314 -192 OFFCURVE",
"325 -153 OFFCURVE",
"317 -114 CURVE",
"174 -114 OFFCURVE",
"111 -56 OFFCURVE",
"111 41 CURVE SMOOTH",
"111 186 OFFCURVE",
"255 310 OFFCURVE",
"255 489 CURVE SMOOTH",
"255 601 OFFCURVE",
"184 674 OFFCURVE",
"130 713 CURVE",
"118 713 LINE",
"68 614 LINE",
"146 551 OFFCURVE",
"189 498 OFFCURVE",
"189 416 CURVE SMOOTH",
"189 299 OFFCURVE",
"50 147 OFFCURVE",
"50 -13 CURVE SMOOTH",
"50 -136 OFFCURVE",
"116 -231 OFFCURVE",
"282 -231 CURVE"
);
},
{
closed = 1;
nodes = (
"715 78 OFFCURVE",
"712 29 OFFCURVE",
"712 0 CURVE",
"853 0 OFFCURVE",
"939 142 OFFCURVE",
"939 245 CURVE SMOOTH",
"939 297 OFFCURVE",
"919 348 OFFCURVE",
"891 416 CURVE",
"879 416 LINE",
"831 323 LINE",
"854 277 OFFCURVE",
"890 189 OFFCURVE",
"880 150 CURVE",
"846 129 OFFCURVE",
"791 117 OFFCURVE",
"747 117 CURVE"
);
},
{
closed = 1;
nodes = (
"575 121 OFFCURVE",
"617 30 OFFCURVE",
"590 -54 CURVE",
"518 -92 OFFCURVE",
"408 -114 OFFCURVE",
"317 -114 CURVE",
"282 -231 LINE",
"436 -231 OFFCURVE",
"559 -175 OFFCURVE",
"606 -96 CURVE SMOOTH",
"639 -41 OFFCURVE",
"650 20 OFFCURVE",
"658 66 CURVE",
"620 51 LINE",
"637 21 OFFCURVE",
"667 0 OFFCURVE",
"712 0 CURVE",
"744 39 OFFCURVE",
"755 78 OFFCURVE",
"747 117 CURVE",
"663 117 OFFCURVE",
"643 181 OFFCURVE",
"606 271 CURVE SMOOTH",
"568 362 LINE",
"556 362 LINE",
"508 269 LINE"
);
},
{
closed = 1;
nodes = (
"0 -495 LINE",
"0 818 LINE",
"989 818 LINE",
"989 -495 LINE"
);
}
);
};
components = (
{
name = _part.avst.the.ending;
},
{
alignment = -1;
name = _part.avst.alef.head;
transform = "{1, 0, 0, 1, 712, 0}";
},
{
alignment = -1;
name = _part.avst.peh.vasl;
transform = "{1, 0, 0, 1, 282, 0}";
}
);
layerId = m01;
width = 989;
}
);
unicode = 10B11;
},
{
glyphname = "xve-avestan";
layers = (
{
background = {
paths = (
{
closed = 1;
nodes = (
"277 78 OFFCURVE",
"274 29 OFFCURVE",
"274 0 CURVE",
"415 0 OFFCURVE",
"501 142 OFFCURVE",
"501 245 CURVE SMOOTH",
"501 297 OFFCURVE",
"481 348 OFFCURVE",
"453 416 CURVE",
"441 416 LINE",
"393 323 LINE",
"416 277 OFFCURVE",
"452 189 OFFCURVE",
"442 150 CURVE",
"408 129 OFFCURVE",
"353 117 OFFCURVE",
"309 117 CURVE"
);
},
{
closed = 1;
nodes = (
"536 78 OFFCURVE",
"533 29 OFFCURVE",
"533 0 CURVE",
"674 0 OFFCURVE",
"760 142 OFFCURVE",
"760 245 CURVE SMOOTH",
"760 297 OFFCURVE",
"740 348 OFFCURVE",
"712 416 CURVE",
"700 416 LINE",
"652 323 LINE",
"675 277 OFFCURVE",
"711 189 OFFCURVE",
"701 150 CURVE",
"667 129 OFFCURVE",
"612 117 OFFCURVE",
"568 117 CURVE"
);
},
{
closed = 1;
nodes = (
"405 87 LINE",
"427 25 OFFCURVE",
"477 0 OFFCURVE",
"533 0 CURVE",
"565 39 OFFCURVE",
"576 78 OFFCURVE",
"568 117 CURVE",
"510 117 OFFCURVE",
"470 129 OFFCURVE",
"452 158 CURVE"
);
},
{
closed = 1;
nodes = (
"251 117 OFFCURVE",
"212 146 OFFCURVE",
"171 226 CURVE",
"197 27 LINE",
"212 7 OFFCURVE",
"240 0 OFFCURVE",
"274 0 CURVE",
"306 39 OFFCURVE",
"317 78 OFFCURVE",
"309 117 CURVE"
);
},
{
closed = 1;
nodes = (
"171 226 LINE",
"153 261 OFFCURVE",
"133 306 OFFCURVE",
"110 362 CURVE",
"98 362 LINE",
"50 269 LINE",
"118 140 LINE SMOOTH",
"154 71 OFFCURVE",
"161 20 OFFCURVE",
"161 -45 CURVE SMOOTH",
"161 -100 OFFCURVE",
"150 -165 OFFCURVE",
"137 -235 CURVE",
"166 -244 LINE",
"199 -149 OFFCURVE",
"220 -70 OFFCURVE",
"218 0 CURVE SMOOTH",
"216 57 LINE"
);
},
{
closed = 1;
nodes = (
"0 -495 LINE",
"0 818 LINE",
"810 818 LINE",
"810 -495 LINE"
);
}
);
};
components = (
{
alignment = -1;
name = _part.avst.alef.head;
transform = "{1, 0, 0, 1, 274, 0}";
},
{
alignment = -1;
name = _part.avst.alef.head;
transform = "{1, 0, 0, 1, 533, 0}";
},
{
alignment = -1;
name = _part.avst.right.connector;
transform = "{1, 0, 0, 1, 80, 0}";
},
{
name = _part.avst.reh.last;
}
);
layerId = m01;
paths = (
{
closed = 1;
nodes = (
"251 117 OFFCURVE",
"212 146 OFFCURVE",
"171 226 CURVE",
"197 27 LINE",
"212 7 OFFCURVE",
"240 0 OFFCURVE",
"274 0 CURVE",
"306 39 OFFCURVE",
"317 78 OFFCURVE",
"309 117 CURVE"
);
}
);
width = 810;
}
);
unicode = 10B13;
},
{
glyphname = "xye-avestan";
layers = (
{
background = {
paths = (
{
closed = 1;
nodes = (
"279 78 OFFCURVE",
"276 29 OFFCURVE",
"276 0 CURVE",
"417 0 OFFCURVE",
"503 142 OFFCURVE",
"503 245 CURVE SMOOTH",
"503 297 OFFCURVE",
"483 348 OFFCURVE",
"455 416 CURVE",
"443 416 LINE",
"395 323 LINE",
"418 277 OFFCURVE",
"454 189 OFFCURVE",
"444 150 CURVE",
"410 129 OFFCURVE",
"355 117 OFFCURVE",
"311 117 CURVE"
);
},
{
closed = 1;
nodes = (
"538 78 OFFCURVE",
"535 29 OFFCURVE",
"535 0 CURVE",
"676 0 OFFCURVE",
"762 142 OFFCURVE",
"762 245 CURVE SMOOTH",
"762 297 OFFCURVE",
"742 348 OFFCURVE",
"714 416 CURVE",
"702 416 LINE",
"654 323 LINE",
"677 277 OFFCURVE",
"713 189 OFFCURVE",
"703 150 CURVE",
"669 129 OFFCURVE",
"614 117 OFFCURVE",
"570 117 CURVE"
);
},
{
closed = 1;
nodes = (
"407 87 LINE",
"429 25 OFFCURVE",
"479 0 OFFCURVE",
"535 0 CURVE",
"567 39 OFFCURVE",
"578 78 OFFCURVE",
"570 117 CURVE",
"512 117 OFFCURVE",
"472 129 OFFCURVE",
"454 158 CURVE"
);
},
{
closed = 1;
nodes = (
"163 -184 OFFCURVE",
"126 -240 OFFCURVE",
"126 -306 CURVE SMOOTH",
"126 -380 OFFCURVE",
"191 -441 OFFCURVE",
"272 -441 CURVE SMOOTH",
"369 -441 OFFCURVE",
"493 -383 OFFCURVE",
"588 -383 CURVE SMOOTH",
"629 -383 OFFCURVE",
"652 -395 OFFCURVE",
"671 -401 CURVE",
"705 -336 LINE",
"665 -312 OFFCURVE",
"629 -295 OFFCURVE",
"560 -295 CURVE SMOOTH",
"492 -295 OFFCURVE",
"391 -324 OFFCURVE",
"304 -324 CURVE SMOOTH",
"224 -324 OFFCURVE",
"186 -285 OFFCURVE",
"181 -228 CURVE",
"220 -132 OFFCURVE",
"234 -59 OFFCURVE",
"222 14 CURVE",
"237 5 OFFCURVE",
"255 0 OFFCURVE",
"276 0 CURVE",
"308 29 OFFCURVE",
"319 78 OFFCURVE",
"311 117 CURVE",
"190 117 OFFCURVE",
"169 208 OFFCURVE",
"110 362 CURVE",
"98 362 LINE",
"50 269 LINE",
"114 128 OFFCURVE",
"163 14 OFFCURVE",
"163 -105 CURVE SMOOTH"
);
},
{
closed = 1;
nodes = (
"0 -495 LINE",
"0 818 LINE",
"812 818 LINE",
"812 -495 LINE"
);
}
);
};
components = (
{
name = _part.avst.alef.head;
transform = "{1, 0, 0, 1, 533, 0}";
},
{
name = _part.avst.right.connector;
transform = "{1, 0, 0, 1, 80, 0}";
},
{
name = _part.avst.alef.head;
transform = "{1, 0, 0, 1, 275, 0}";
},
{
name = _part.avst.reh.tail;
}
);
layerId = m01;
width = 810;
}
);
unicode = 10B12;
},
{
glyphname = "ye-avestan";
layers = (
{
background = {
paths = (
{
closed = 1;
nodes = (
"987 -147 OFFCURVE",
"1161 -54 OFFCURVE",
"1161 151 CURVE SMOOTH",
"1161 201 OFFCURVE",
"1152 250 OFFCURVE",
"1136 293 CURVE SMOOTH",
"1108 365 OFFCURVE",
"1061 416 OFFCURVE",
"1022 416 CURVE SMOOTH",
"988 416 OFFCURVE",
"974 401 OFFCURVE",
"937 301 CURVE SMOOTH",
"924 266 OFFCURVE",
"937 208 OFFCURVE",
"990 208 CURVE SMOOTH",
"1019 208 OFFCURVE",
"1041 222 OFFCURVE",
"1056 243 CURVE",
"1106 174 OFFCURVE",
"1113 115 OFFCURVE",
"1103 43 CURVE",
"1035 -9 OFFCURVE",
"963 -30 OFFCURVE",
"867 -30 CURVE SMOOTH",
"707 -30 OFFCURVE",
"685 48 OFFCURVE",
"705 115 CURVE",
"649 37 LINE",
"649 -76 OFFCURVE",
"716 -147 OFFCURVE",
"832 -147 CURVE SMOOTH"
);
},
{
closed = 1;
nodes = (
"276 78 OFFCURVE",
"273 29 OFFCURVE",
"273 0 CURVE",
"414 0 OFFCURVE",
"500 142 OFFCURVE",
"500 245 CURVE SMOOTH",
"500 297 OFFCURVE",
"480 348 OFFCURVE",
"452 416 CURVE",
"440 416 LINE",
"392 323 LINE",
"415 277 OFFCURVE",
"451 189 OFFCURVE",
"441 150 CURVE",
"407 129 OFFCURVE",
"352 117 OFFCURVE",
"308 117 CURVE"
);
},
{
closed = 1;
nodes = (
"535 78 OFFCURVE",
"532 29 OFFCURVE",
"532 0 CURVE",
"673 0 OFFCURVE",
"759 142 OFFCURVE",
"759 245 CURVE SMOOTH",
"759 297 OFFCURVE",
"739 348 OFFCURVE",
"711 416 CURVE",
"699 416 LINE",
"651 323 LINE",
"674 277 OFFCURVE",
"710 189 OFFCURVE",
"700 150 CURVE",
"666 129 OFFCURVE",
"611 117 OFFCURVE",
"567 117 CURVE"
);
},
{
closed = 1;
nodes = (
"404 87 LINE",
"426 25 OFFCURVE",
"476 0 OFFCURVE",
"532 0 CURVE",
"564 39 OFFCURVE",
"575 78 OFFCURVE",
"567 117 CURVE",
"509 117 OFFCURVE",
"469 129 OFFCURVE",
"451 158 CURVE"
);
},
{
closed = 1;
nodes = (
"250 117 OFFCURVE",
"211 146 OFFCURVE",
"170 226 CURVE",
"196 27 LINE",
"211 7 OFFCURVE",
"239 0 OFFCURVE",
"273 0 CURVE",
"305 39 OFFCURVE",
"316 78 OFFCURVE",
"308 117 CURVE"
);
},
{
closed = 1;
nodes = (
"170 226 LINE",
"152 261 OFFCURVE",
"132 306 OFFCURVE",
"109 362 CURVE",
"97 362 LINE",
"49 269 LINE",
"117 140 LINE SMOOTH",
"153 71 OFFCURVE",
"160 20 OFFCURVE",
"160 -45 CURVE SMOOTH",
"160 -100 OFFCURVE",
"149 -165 OFFCURVE",
"136 -235 CURVE",
"165 -244 LINE",
"198 -149 OFFCURVE",
"219 -70 OFFCURVE",
"217 0 CURVE SMOOTH",
"215 57 LINE"
);
},
{
closed = 1;
nodes = (
"-1 -495 LINE",
"-1 818 LINE",
"1211 818 LINE",
"1211 -495 LINE"
);
}
);
};
components = (
{
alignment = -1;
name = _part.avst.reh.last;
},
{
name = "_part.avst.ye-avestan";
transform = "{1, 0, 0, 1, 274, 0}";
}
);
layerId = m01;
paths = (
{
closed = 1;
nodes = (
"251 117 OFFCURVE",
"212 146 OFFCURVE",
"171 226 CURVE",
"197 27 LINE",
"212 7 OFFCURVE",
"240 0 OFFCURVE",
"274 0 CURVE",
"306 39 OFFCURVE",
"317 78 OFFCURVE",
"309 117 CURVE"
);
}
);
width = 1211;
}
);
unicode = 10B2B;
},
{
glyphname = "yye-avestan";
layers = (
{
background = {
paths = (
{
closed = 1;
nodes = (
"1291 -460 OFFCURVE",
"1342 -382 OFFCURVE",
"1343 -316 CURVE SMOOTH",
"1344 -258 OFFCURVE",
"1303 -221 OFFCURVE",
"1229 -221 CURVE SMOOTH",
"1137 -221 OFFCURVE",
"976 -263 OFFCURVE",
"820 -263 CURVE SMOOTH",
"507 -263 OFFCURVE",
"402 -98 OFFCURVE",
"402 48 CURVE",
"423 201 OFFCURVE",
"581 309 OFFCURVE",
"721 309 CURVE SMOOTH",
"831 309 OFFCURVE",
"907 279 OFFCURVE",
"1047 279 CURVE SMOOTH",
"1162 279 OFFCURVE",
"1263 324 OFFCURVE",
"1346 403 CURVE SMOOTH",
"1363 419 OFFCURVE",
"1384 442 OFFCURVE",
"1399 459 CURVE",
"1381 481 LINE",
"1318 432 OFFCURVE",
"1220 396 OFFCURVE",
"1082 396 CURVE SMOOTH",
"939 396 OFFCURVE",
"850 426 OFFCURVE",
"758 426 CURVE SMOOTH",
"549 426 OFFCURVE",
"347 217 OFFCURVE",
"347 -10 CURVE SMOOTH",
"347 -206 OFFCURVE",
"514 -380 OFFCURVE",
"788 -380 CURVE SMOOTH",
"951 -380 OFFCURVE",
"1101 -338 OFFCURVE",
"1198 -338 CURVE SMOOTH",
"1285 -338 OFFCURVE",
"1291 -418 OFFCURVE",
"1219 -486 CURVE",
"1248 -495 LINE"
);
},
{
closed = 1;
nodes = (
"168 39 OFFCURVE",
"179 78 OFFCURVE",
"181 117 CURVE",
"144 117 OFFCURVE",
"115 124 OFFCURVE",
"98 137 CURVE",
"50 43 LINE",
"58 15 OFFCURVE",
"91 0 OFFCURVE",
"146 0 CURVE"
);
},
{
closed = 1;
nodes = (
"418 196 LINE",
"358 144 OFFCURVE",
"263 117 OFFCURVE",
"181 117 CURVE",
"159 78 OFFCURVE",
"148 39 OFFCURVE",
"146 0 CURVE",
"261 0 OFFCURVE",
"360 51 OFFCURVE",
"405 117 CURVE"
);
},
{
closed = 1;
nodes = (
"10 -495 LINE",
"10 818 LINE",
"1449 818 LINE",
"1449 -495 LINE"
);
}
);
};
components = (
{
alignment = -1;
name = _part.avst.keheh_ending;
transform = "{1, 0, 0, 1, 2, 0}";
}
);
layerId = m01;
paths = (
{
closed = 1;
nodes = (
"1291 -460 OFFCURVE",
"1342 -382 OFFCURVE",
"1343 -316 CURVE SMOOTH",
"1344 -258 OFFCURVE",
"1303 -221 OFFCURVE",
"1229 -221 CURVE SMOOTH",
"1137 -221 OFFCURVE",
"976 -263 OFFCURVE",
"820 -263 CURVE SMOOTH",
"507 -263 OFFCURVE",
"402 -98 OFFCURVE",
"402 48 CURVE",
"423 201 OFFCURVE",
"581 309 OFFCURVE",
"721 309 CURVE SMOOTH",
"831 309 OFFCURVE",
"907 279 OFFCURVE",
"1047 279 CURVE SMOOTH",
"1162 279 OFFCURVE",
"1263 324 OFFCURVE",
"1346 403 CURVE SMOOTH",
"1363 419 OFFCURVE",
"1384 442 OFFCURVE",
"1399 459 CURVE",
"1381 481 LINE",
"1318 432 OFFCURVE",
"1220 396 OFFCURVE",
"1082 396 CURVE SMOOTH",
"939 396 OFFCURVE",
"850 426 OFFCURVE",
"758 426 CURVE SMOOTH",
"549 426 OFFCURVE",
"347 217 OFFCURVE",
"347 -10 CURVE SMOOTH",
"347 -206 OFFCURVE",
"514 -380 OFFCURVE",
"788 -380 CURVE SMOOTH",
"951 -380 OFFCURVE",
"1101 -338 OFFCURVE",
"1198 -338 CURVE SMOOTH",
"1285 -338 OFFCURVE",
"1291 -418 OFFCURVE",
"1219 -486 CURVE",
"1248 -495 LINE"
);
},
{
closed = 1;
nodes = (
"418 196 LINE",
"358 144 OFFCURVE",
"263 117 OFFCURVE",
"181 117 CURVE",
"159 78 OFFCURVE",
"148 39 OFFCURVE",
"146 0 CURVE",
"261 0 OFFCURVE",
"360 51 OFFCURVE",
"405 117 CURVE"
);
}
);
width = 1449;
}
);
unicode = 10B2A;
},
{
glyphname = "ze-avestan";
layers = (
{
background = {
paths = (
{
closed = 1;
nodes = (
"426 -188 OFFCURVE",
"375 -245 OFFCURVE",
"175 -261 CURVE SMOOTH",
"-82 -281 OFFCURVE",
"-575 -267 OFFCURVE",
"-812 -256 CURVE",
"-850 -331 LINE",
"-703 -363 OFFCURVE",
"-356 -378 OFFCURVE",
"-183 -378 CURVE SMOOTH",
"166 -378 OFFCURVE",
"331 -357 OFFCURVE",
"413 -251 CURVE SMOOTH",
"448 -206 OFFCURVE",
"476 -135 OFFCURVE",
"476 -76 CURVE SMOOTH",
"476 -11 OFFCURVE",
"452 33 OFFCURVE",
"377 87 CURVE SMOOTH",
"326 124 OFFCURVE",
"258 152 OFFCURVE",
"236 210 CURVE",
"214 170 LINE",
"204 82 OFFCURVE",
"261 36 OFFCURVE",
"319 -5 CURVE SMOOTH",
"372 -44 OFFCURVE",
"426 -83 OFFCURVE",
"426 -131 CURVE SMOOTH"
);
},
{
closed = 1;
nodes = (
"243 158 LINE",
"255 209 OFFCURVE",
"358 299 OFFCURVE",
"439 299 CURVE SMOOTH",
"467 299 OFFCURVE",
"474 286 OFFCURVE",
"474 265 CURVE",
"486 265 LINE",
"521 330 OFFCURVE",
"537 416 OFFCURVE",
"466 416 CURVE SMOOTH",
"376 416 OFFCURVE",
"259 312 OFFCURVE",
"228 225 CURVE SMOOTH",
"222 208 OFFCURVE",
"216 187 OFFCURVE",
"214 170 CURVE"
);
},
{
closed = 1;
nodes = (
"125 -495 LINE",
"125 818 LINE",
"566 818 LINE",
"566 -495 LINE"
);
}
);
};
components = (
{
name = _part.avst.torreh.zeh;
transform = "{1, 0, 0, 1, 92, 0}";
}
);
layerId = m01;
paths = (
{
closed = 1;
nodes = (
"426 -228 OFFCURVE",
"375 -285 OFFCURVE",
"175 -301 CURVE SMOOTH",
"-82 -321 OFFCURVE",
"-575 -307 OFFCURVE",
"-812 -296 CURVE",
"-850 -371 LINE",
"-703 -403 OFFCURVE",
"-356 -418 OFFCURVE",
"-183 -418 CURVE SMOOTH",
"166 -418 OFFCURVE",
"331 -397 OFFCURVE",
"413 -291 CURVE SMOOTH",
"448 -246 OFFCURVE",
"476 -175 OFFCURVE",
"476 -116 CURVE SMOOTH",
"476 -31 OFFCURVE",
"452 24 OFFCURVE",
"376 80 CURVE SMOOTH",
"326 117 OFFCURVE",
"258 152 OFFCURVE",
"236 210 CURVE",
"214 170 LINE",
"204 82 OFFCURVE",
"261 31 OFFCURVE",
"318 -12 CURVE SMOOTH",
"392 -67 OFFCURVE",
"426 -103 OFFCURVE",
"426 -171 CURVE SMOOTH"
);
}
);
width = 566;
}
);
unicode = 10B30;
},
{
glyphname = "ze-avestan.calt";
layers = (
{
components = (
{
name = _part.avst.torreh.zeh;
transform = "{1, 0, 0, 1, 102, 0}";
}
);
layerId = m01;
paths = (
{
closed = 1;
nodes = (
"436 -556 OFFCURVE",
"-7 -549 OFFCURVE",
"-261 -549 CURVE SMOOTH",
"-491 -549 OFFCURVE",
"-963 -541 OFFCURVE",
"-1113 -534 CURVE",
"-1151 -609 LINE",
"-1004 -641 OFFCURVE",
"-437 -656 OFFCURVE",
"-264 -656 CURVE SMOOTH",
"-25 -656 OFFCURVE",
"176 -642 OFFCURVE",
"310 -570 CURVE SMOOTH",
"428 -506 OFFCURVE",
"489 -388 OFFCURVE",
"489 -255 CURVE SMOOTH",
"489 -173 OFFCURVE",
"472 -84 OFFCURVE",
"382 17 CURVE SMOOTH",
"333 72 OFFCURVE",
"270 132 OFFCURVE",
"246 210 CURVE",
"224 170 LINE",
"212 63 OFFCURVE",
"262 0 OFFCURVE",
"312 -59 CURVE SMOOTH",
"372 -130 OFFCURVE",
"436 -226 OFFCURVE",
"436 -314 CURVE SMOOTH"
);
}
);
width = 735;
}
);
},
{
glyphname = "zhe-avestan";
layers = (
{
background = {
paths = (
{
closed = 1;
nodes = (
"50 -136 OFFCURVE",
"116 -231 OFFCURVE",
"282 -231 CURVE",
"304 -192 OFFCURVE",
"315 -153 OFFCURVE",
"317 -114 CURVE",
"174 -114 OFFCURVE",
"102 -56 OFFCURVE",
"102 41 CURVE",
"85 33 OFFCURVE",
"67 15 OFFCURVE",
"50 -13 CURVE"
);
},
{
closed = 1;
nodes = (
"102 41 LINE",
"102 142 OFFCURVE",
"202 279 OFFCURVE",
"263 279 CURVE SMOOTH",
"310 279 OFFCURVE",
"340 214 OFFCURVE",
"349 191 CURVE",
"326 168 OFFCURVE",
"264 144 OFFCURVE",
"197 144 CURVE SMOOTH",
"163 144 OFFCURVE",
"139 151 OFFCURVE",
"122 164 CURVE",
"74 70 LINE",
"82 42 OFFCURVE",
"122 27 OFFCURVE",
"162 27 CURVE SMOOTH",
"238 27 OFFCURVE",
"292 66 OFFCURVE",
"322 100 CURVE SMOOTH",
"351 134 OFFCURVE",
"391 194 OFFCURVE",
"391 248 CURVE SMOOTH",
"391 307 OFFCURVE",
"360 396 OFFCURVE",
"308 396 CURVE SMOOTH",
"234 396 OFFCURVE",
"50 134 OFFCURVE",
"50 -13 CURVE"
);
},
{
closed = 1;
nodes = (
"295 -153 OFFCURVE",
"284 -192 OFFCURVE",
"282 -231 CURVE",
"436 -231 OFFCURVE",
"560 -176 OFFCURVE",
"606 -96 CURVE SMOOTH",
"676 26 OFFCURVE",
"666 149 OFFCURVE",
"637 270 CURVE SMOOTH",
"602 416 LINE",
"590 416 LINE",
"535 307 LINE",
"571 174 LINE SMOOTH",
"599 71 OFFCURVE",
"613 4 OFFCURVE",
"590 -54 CURVE",
"518 -92 OFFCURVE",
"408 -114 OFFCURVE",
"317 -114 CURVE"
);
},
{
closed = 1;
nodes = (
"503 -134 LINE",
"536 -193 OFFCURVE",
"601 -231 OFFCURVE",
"706 -231 CURVE",
"742 -192 OFFCURVE",
"750 -153 OFFCURVE",
"741 -114 CURVE",
"663 -114 OFFCURVE",
"606 -97 OFFCURVE",
"570 -65 CURVE"
);
},
{
closed = 1;
nodes = (
"1030 -96 LINE",
"1100 26 OFFCURVE",
"1093 160 OFFCURVE",
"1042 293 CURVE SMOOTH",
"1014 365 OFFCURVE",
"967 416 OFFCURVE",
"928 416 CURVE SMOOTH",
"894 416 OFFCURVE",
"880 401 OFFCURVE",
"843 301 CURVE SMOOTH",
"829 263 OFFCURVE",
"843 208 OFFCURVE",
"896 208 CURVE SMOOTH",
"925 208 OFFCURVE",
"947 222 OFFCURVE",
"962 243 CURVE",
"1012 174 OFFCURVE",
"1046 13 OFFCURVE",
"1010 -62 CURVE"
);
},
{
closed = 1;
nodes = (
"1022 -49 LINE",
"951 -90 OFFCURVE",
"836 -114 OFFCURVE",
"741 -114 CURVE",
"706 -231 LINE",
"860 -231 OFFCURVE",
"984 -176 OFFCURVE",
"1030 -96 CURVE"
);
},
{
closed = 1;
nodes = (
"0 -495 LINE",
"0 818 LINE",
"1131 818 LINE",
"1131 -495 LINE"
);
}
);
};
components = (
{
name = _part.avst.head.peh;
},
{
name = _part.avst.peh.ending;
},
{
alignment = -1;
name = _part.avst.head.seen;
transform = "{1, 0, 0, 1, 706, 0}";
}
);
layerId = m01;
paths = (
{
closed = 1;
nodes = (
"503 -134 LINE",
"536 -193 OFFCURVE",
"601 -231 OFFCURVE",
"706 -231 CURVE",
"742 -192 OFFCURVE",
"750 -153 OFFCURVE",
"741 -114 CURVE",
"663 -114 OFFCURVE",
"606 -97 OFFCURVE",
"570 -65 CURVE"
);
}
);
width = 1131;
}
);
unicode = 10B32;
},
{
export = 0;
glyphname = _part.avst.behtransition;
layers = (
{
layerId = m01;
paths = (
{
closed = 1;
nodes = (
"965 -79 OFFCURVE",
"963 -67 OFFCURVE",
"948 -54 CURVE",
"897 -95 OFFCURVE",
"812 -114 OFFCURVE",
"741 -114 CURVE",
"719 -153 OFFCURVE",
"708 -192 OFFCURVE",
"706 -231 CURVE",
"826 -231 OFFCURVE",
"913 -174 OFFCURVE",
"964 -94 CURVE"
);
}
);
width = 1214;
}
);
},
{
export = 0;
glyphname = _part.avst.circle;
layers = (
{
layerId = m01;
paths = (
{
closed = 1;
nodes = (
"213 328 LINE",
"195 285 OFFCURVE",
"200 210 OFFCURVE",
"259 210 CURVE SMOOTH",
"318 210 OFFCURVE",
"346 283 OFFCURVE",
"346 336 CURVE SMOOTH",
"346 407 OFFCURVE",
"277 430 OFFCURVE",
"227 379 CURVE",
"201 322 LINE",
"212 309 LINE",
"258 351 OFFCURVE",
"320 340 OFFCURVE",
"320 302 CURVE",
"312 287 OFFCURVE",
"295 274 OFFCURVE",
"268 274 CURVE SMOOTH",
"241 274 OFFCURVE",
"222 297 OFFCURVE",
"233 328 CURVE"
);
}
);
width = 517;
}
);
},
{
export = 0;
glyphname = _part.avst.dot;
layers = (
{
layerId = m01;
paths = (
{
closed = 1;
nodes = (
"219 352 OFFCURVE",
"204 311 OFFCURVE",
"204 281 CURVE SMOOTH",
"204 245 OFFCURVE",
"219 210 OFFCURVE",
"259 210 CURVE SMOOTH",
"318 210 OFFCURVE",
"346 283 OFFCURVE",
"346 336 CURVE SMOOTH",
"346 381 OFFCURVE",
"318 407 OFFCURVE",
"286 407 CURVE SMOOTH",
"266 407 OFFCURVE",
"245 398 OFFCURVE",
"227 379 CURVE"
);
}
);
width = 517;
}
);
},
{
export = 0;
glyphname = _part.avst.keheh_ending;
layers = (
{
anchors = (
{
name = "#entry";
position = "{144, 0}";
},
{
name = "#exit";
position = "{80, 0}";
}
);
background = {
paths = (
{
closed = 1;
nodes = (
"166 39 OFFCURVE",
"177 78 OFFCURVE",
"179 117 CURVE",
"142 117 OFFCURVE",
"113 124 OFFCURVE",
"96 137 CURVE",
"48 43 LINE",
"56 15 OFFCURVE",
"89 0 OFFCURVE",
"144 0 CURVE"
);
}
);
};
layerId = m01;
paths = (
{
closed = 1;
nodes = (
"166 39 OFFCURVE",
"177 78 OFFCURVE",
"179 117 CURVE",
"142 117 OFFCURVE",
"113 124 OFFCURVE",
"96 137 CURVE",
"48 43 LINE",
"56 15 OFFCURVE",
"89 0 OFFCURVE",
"144 0 CURVE"
);
}
);
width = 144;
}
);
},
{
export = 0;
glyphname = "_part.avst.se-avestan";
layers = (
{
anchors = (
{
name = "#entry";
position = "{432, 1}";
},
{
name = "#exit";
position = "{118, 0}";
}
);
layerId = m01;
paths = (
{
closed = 1;
nodes = (
"369 -123 LINE",
"403 -71 OFFCURVE",
"430 1 OFFCURVE",
"430 88 CURVE SMOOTH",
"430 264 OFFCURVE",
"301 416 OFFCURVE",
"220 416 CURVE SMOOTH",
"165 416 OFFCURVE",
"122 286 OFFCURVE",
"107 225 CURVE",
"128 211 LINE",
"147 263 OFFCURVE",
"165 299 OFFCURVE",
"193 299 CURVE SMOOTH",
"257 299 OFFCURVE",
"381 157 OFFCURVE",
"381 26 CURVE SMOOTH",
"381 -10 OFFCURVE",
"376 -40 OFFCURVE",
"370 -53 CURVE"
);
}
);
width = 862;
}
);
},
{
export = 0;
glyphname = "_part.avst.sshe-avestan";
layers = (
{
anchors = (
{
name = "#entry";
position = "{704, 0}";
}
);
layerId = m01;
paths = (
{
closed = 1;
nodes = (
"703 -321 OFFCURVE",
"765 -195 OFFCURVE",
"842 -106 CURVE",
"788 -106 LINE",
"721 -200 OFFCURVE",
"656 -350 OFFCURVE",
"645 -514 CURVE",
"679 -531 LINE"
);
}
);
width = 704;
}
);
},
{
export = 0;
glyphname = "_part.avst.ae-avestan.part";
layers = (
{
anchors = (
{
name = "#entry";
position = "{1084, 0}";
},
{
name = "#exit";
position = "{439, -82}";
}
);
layerId = m01;
paths = (
{
closed = 1;
nodes = (
"488 6 LINE",
"488 108 OFFCURVE",
"259 286 OFFCURVE",
"178 286 CURVE SMOOTH",
"132 286 OFFCURVE",
"106 234 OFFCURVE",
"90 173 CURVE",
"101 161 LINE",
"119 188 OFFCURVE",
"132 195 OFFCURVE",
"151 195 CURVE SMOOTH",
"215 195 OFFCURVE",
"439 45 OFFCURVE",
"439 -56 CURVE"
);
}
);
width = 488;
}
);
},
{
export = 0;
glyphname = _part.avst.ain.curve;
layers = (
{
anchors = (
{
name = "#entry";
position = "{206, 0}";
}
);
background = {
paths = (
{
closed = 1;
nodes = (
"329 -246 LINE",
"324 -235 LINE",
"176 -203 OFFCURVE",
"105 -149 OFFCURVE",
"105 -92 CURVE SMOOTH",
"105 -31 OFFCURVE",
"201 30 OFFCURVE",
"275 73 CURVE",
"207 120 LINE",
"117 36 OFFCURVE",
"50 -48 OFFCURVE",
"50 -140 CURVE SMOOTH",
"50 -245 OFFCURVE",
"155 -312 OFFCURVE",
"281 -339 CURVE"
);
},
{
closed = 1;
nodes = (
"0 -495 LINE",
"0 818 LINE",
"879 818 LINE",
"879 -495 LINE"
);
}
);
};
layerId = m01;
paths = (
{
closed = 1;
nodes = (
"329 -246 LINE",
"324 -235 LINE",
"176 -203 OFFCURVE",
"105 -149 OFFCURVE",
"105 -92 CURVE SMOOTH",
"105 -31 OFFCURVE",
"201 30 OFFCURVE",
"275 73 CURVE",
"207 120 LINE",
"117 36 OFFCURVE",
"50 -48 OFFCURVE",
"50 -140 CURVE SMOOTH",
"50 -245 OFFCURVE",
"155 -312 OFFCURVE",
"281 -339 CURVE"
);
}
);
width = 207;
}
);
},
{
export = 0;
glyphname = _part.avst.alef.head;
layers = (
{
anchors = (
{
name = "#entry";
position = "{132, 0}";
},
{
name = "#exit";
position = "{0, 0}";
}
);
background = {
paths = (
{
closed = 1;
nodes = (
"3 78 OFFCURVE",
"0 29 OFFCURVE",
"0 0 CURVE",
"141 0 OFFCURVE",
"227 142 OFFCURVE",
"227 245 CURVE SMOOTH",
"227 297 OFFCURVE",
"207 348 OFFCURVE",
"179 416 CURVE",
"167 416 LINE",
"119 323 LINE",
"142 277 OFFCURVE",
"178 189 OFFCURVE",
"168 150 CURVE",
"134 129 OFFCURVE",
"79 117 OFFCURVE",
"35 117 CURVE"
);
},
{
closed = 1;
nodes = (
"0 -495 LINE",
"0 818 LINE",
"277 818 LINE",
"277 -495 LINE"
);
}
);
};
layerId = m01;
paths = (
{
closed = 1;
nodes = (
"3 78 OFFCURVE",
"0 29 OFFCURVE",
"0 0 CURVE",
"141 0 OFFCURVE",
"227 142 OFFCURVE",
"227 245 CURVE SMOOTH",
"227 297 OFFCURVE",
"207 348 OFFCURVE",
"179 416 CURVE",
"167 416 LINE",
"119 323 LINE",
"142 277 OFFCURVE",
"178 189 OFFCURVE",
"168 150 CURVE",
"134 129 OFFCURVE",
"79 117 OFFCURVE",
"35 117 CURVE"
);
}
);
width = 277;
}
);
},
{
export = 0;
glyphname = "_part.avst.an-avestan.end";
layers = (
{
anchors = (
{
name = "#entry";
position = "{1000, 0}";
}
);
layerId = m01;
paths = (
{
closed = 1;
nodes = (
"126 -421 OFFCURVE",
"206 -418 OFFCURVE",
"269 -376 CURVE SMOOTH",
"383 -299 OFFCURVE",
"448 -113 OFFCURVE",
"448 6 CURVE SMOOTH",
"448 108 OFFCURVE",
"219 286 OFFCURVE",
"138 286 CURVE SMOOTH",
"92 286 OFFCURVE",
"66 234 OFFCURVE",
"50 173 CURVE",
"61 161 LINE",
"79 188 OFFCURVE",
"92 195 OFFCURVE",
"111 195 CURVE SMOOTH",
"175 195 OFFCURVE",
"399 45 OFFCURVE",
"399 -56 CURVE SMOOTH",
"399 -139 OFFCURVE",
"302 -249 OFFCURVE",
"95 -387 CURVE",
"95 -421 LINE"
);
}
);
width = 448;
}
);
},
{
export = 0;
glyphname = _part.avst.asterisk.particle;
layers = (
{
background = {
paths = (
{
closed = 1;
nodes = (
"375 256 LINE",
"401 318 OFFCURVE",
"379 369 OFFCURVE",
"330 369 CURVE SMOOTH",
"304 369 OFFCURVE",
"263 352 OFFCURVE",
"235 289 CURVE",
"246 275 LINE",
"265 303 OFFCURVE",
"290 313 OFFCURVE",
"313 313 CURVE SMOOTH",
"348 313 OFFCURVE",
"367 290 OFFCURVE",
"362 256 CURVE"
);
},
{
closed = 1;
nodes = (
"0 -495 LINE",
"0 818 LINE",
"600 818 LINE",
"600 -495 LINE"
);
}
);
};
layerId = m01;
paths = (
{
closed = 1;
nodes = (
"375 256 LINE",
"401 318 OFFCURVE",
"379 369 OFFCURVE",
"330 369 CURVE SMOOTH",
"304 369 OFFCURVE",
"263 352 OFFCURVE",
"235 289 CURVE",
"246 275 LINE",
"265 303 OFFCURVE",
"290 313 OFFCURVE",
"313 313 CURVE SMOOTH",
"348 313 OFFCURVE",
"367 290 OFFCURVE",
"362 256 CURVE"
);
}
);
width = 600;
}
);
},
{
export = 0;
glyphname = _part.avst.beh.madd;
layers = (
{
background = {
paths = (
{
closed = 1;
nodes = (
"-84 -378 OFFCURVE",
"81 -357 OFFCURVE",
"163 -251 CURVE SMOOTH",
"180 -229 OFFCURVE",
"192 -206 OFFCURVE",
"204 -178 CURVE SMOOTH",
"217 -148 OFFCURVE",
"226 -111 OFFCURVE",
"226 -61 CURVE",
"176 -131 LINE",
"176 -188 OFFCURVE",
"125 -245 OFFCURVE",
"-75 -261 CURVE SMOOTH",
"-332 -281 OFFCURVE",
"-825 -267 OFFCURVE",
"-1062 -256 CURVE",
"-1100 -331 LINE",
"-953 -363 OFFCURVE",
"-606 -378 OFFCURVE",
"-433 -378 CURVE SMOOTH"
);
},
{
closed = 1;
nodes = (
"0 -495 LINE",
"0 818 LINE",
"276 818 LINE",
"276 -495 LINE"
);
}
);
};
layerId = m01;
paths = (
{
closed = 1;
nodes = (
"-84 -378 OFFCURVE",
"81 -357 OFFCURVE",
"163 -251 CURVE SMOOTH",
"180 -229 OFFCURVE",
"192 -206 OFFCURVE",
"204 -178 CURVE SMOOTH",
"217 -148 OFFCURVE",
"226 -111 OFFCURVE",
"226 -61 CURVE",
"176 -131 LINE",
"176 -188 OFFCURVE",
"125 -245 OFFCURVE",
"-75 -261 CURVE SMOOTH",
"-332 -281 OFFCURVE",
"-825 -267 OFFCURVE",
"-1062 -256 CURVE",
"-1100 -331 LINE",
"-953 -363 OFFCURVE",
"-606 -378 OFFCURVE",
"-433 -378 CURVE SMOOTH"
);
}
);
width = 276;
}
);
},
{
export = 0;
glyphname = _part.avst.belly.teeth;
layers = (
{
anchors = (
{
name = "#entry";
position = "{367, 0}";
},
{
name = "#exit";
position = "{0, 0}";
}
);
background = {
paths = (
{
closed = 1;
nodes = (
"803 -192 OFFCURVE",
"814 -153 OFFCURVE",
"806 -114 CURVE",
"663 -114 OFFCURVE",
"600 -56 OFFCURVE",
"600 41 CURVE SMOOTH",
"600 126 OFFCURVE",
"632 192 OFFCURVE",
"682 283 CURVE",
"653 292 LINE",
"589 193 OFFCURVE",
"539 87 OFFCURVE",
"539 -13 CURVE SMOOTH",
"539 -136 OFFCURVE",
"605 -231 OFFCURVE",
"771 -231 CURVE"
);
},
{
closed = 1;
nodes = (
"405 0 LINE",
"481 0 OFFCURVE",
"561 39 OFFCURVE",
"617 162 CURVE",
"614 176 LINE",
"556 128 OFFCURVE",
"484 117 OFFCURVE",
"440 117 CURVE"
);
},
{
closed = 1;
nodes = (
"0 -495 LINE",
"0 818 LINE",
"771 818 LINE",
"771 -495 LINE"
);
}
);
};
layerId = m01;
paths = (
{
closed = 1;
nodes = (
"398 -192 OFFCURVE",
"409 -153 OFFCURVE",
"401 -114 CURVE",
"258 -114 OFFCURVE",
"195 -56 OFFCURVE",
"195 41 CURVE SMOOTH",
"195 126 OFFCURVE",
"227 192 OFFCURVE",
"277 283 CURVE",
"248 292 LINE",
"184 193 OFFCURVE",
"134 87 OFFCURVE",
"134 -13 CURVE SMOOTH",
"134 -136 OFFCURVE",
"200 -231 OFFCURVE",
"366 -231 CURVE"
);
},
{
closed = 1;
nodes = (
"0 0 LINE",
"76 0 OFFCURVE",
"156 39 OFFCURVE",
"212 162 CURVE",
"209 176 LINE",
"151 128 OFFCURVE",
"79 117 OFFCURVE",
"35 117 CURVE"
);
}
);
width = 366;
}
);
},
{
export = 0;
glyphname = _part.avst.butt.meem;
layers = (
{
anchors = (
{
name = "#entry";
position = "{144, 0}";
},
{
name = "#exit";
position = "{536, 0}";
}
);
background = {
paths = (
{
closed = 1;
nodes = (
"145 7 LINE",
"145 -89 OFFCURVE",
"173 -231 OFFCURVE",
"301 -231 CURVE SMOOTH",
"454 -231 OFFCURVE",
"526 -62 OFFCURVE",
"536 37 CURVE",
"524 29 OFFCURVE",
"512 12 OFFCURVE",
"500 -16 CURVE",
"480 -70 OFFCURVE",
"398 -114 OFFCURVE",
"323 -114 CURVE SMOOTH",
"224 -114 OFFCURVE",
"188 -44 OFFCURVE",
"188 46 CURVE"
);
},
{
closed = 1;
nodes = (
"0 -495 LINE",
"0 818 LINE",
"587 818 LINE",
"587 -495 LINE"
);
}
);
};
layerId = m01;
paths = (
{
closed = 1;
nodes = (
"145 7 LINE",
"145 -89 OFFCURVE",
"173 -231 OFFCURVE",
"301 -231 CURVE SMOOTH",
"454 -231 OFFCURVE",
"526 -62 OFFCURVE",
"536 37 CURVE",
"524 29 OFFCURVE",
"512 12 OFFCURVE",
"500 -16 CURVE",
"480 -70 OFFCURVE",
"398 -114 OFFCURVE",
"323 -114 CURVE SMOOTH",
"224 -114 OFFCURVE",
"188 -44 OFFCURVE",
"188 46 CURVE"
);
}
);
width = 587;
}
);
},
{
export = 0;
glyphname = _part.avst.conector.ladhsecond;
layers = (
{
anchors = (
{
name = "#entry";
position = "{206, 0}";
}
);
background = {
paths = (
{
closed = 1;
nodes = (
"228 39 OFFCURVE",
"239 78 OFFCURVE",
"241 117 CURVE",
"170 117 OFFCURVE",
"125 134 OFFCURVE",
"98 157 CURVE",
"50 63 LINE",
"68 25 OFFCURVE",
"121 0 OFFCURVE",
"206 0 CURVE"
);
},
{
closed = 1;
nodes = (
"0 -495 LINE",
"0 818 LINE",
"597 818 LINE",
"597 -495 LINE"
);
}
);
};
layerId = m01;
paths = (
{
closed = 1;
nodes = (
"228 39 OFFCURVE",
"239 78 OFFCURVE",
"241 117 CURVE",
"170 117 OFFCURVE",
"125 134 OFFCURVE",
"98 157 CURVE",
"50 63 LINE",
"68 25 OFFCURVE",
"121 0 OFFCURVE",
"206 0 CURVE"
);
}
);
width = 597;
}
);
},
{
export = 0;
glyphname = _part.avst.dowr.meem;
layers = (
{
anchors = (
{
name = "#exit";
position = "{186, 0}";
}
);
background = {
paths = (
{
closed = 1;
nodes = (
"536 37 LINE",
"542 99 OFFCURVE",
"524 134 OFFCURVE",
"457 134 CURVE SMOOTH",
"406 134 OFFCURVE",
"280 117 OFFCURVE",
"221 117 CURVE",
"186 0 LINE",
"264 0 OFFCURVE",
"394 17 OFFCURVE",
"444 17 CURVE SMOOTH",
"480 17 OFFCURVE",
"495 4 OFFCURVE",
"500 -16 CURVE"
);
},
{
closed = 1;
nodes = (
"145 7 LINE",
"145 -89 OFFCURVE",
"173 -231 OFFCURVE",
"301 -231 CURVE SMOOTH",
"454 -231 OFFCURVE",
"526 -62 OFFCURVE",
"536 37 CURVE",
"524 29 OFFCURVE",
"512 12 OFFCURVE",
"500 -16 CURVE",
"480 -70 OFFCURVE",
"398 -114 OFFCURVE",
"323 -114 CURVE SMOOTH",
"224 -114 OFFCURVE",
"188 -44 OFFCURVE",
"188 46 CURVE"
);
},
{
closed = 1;
nodes = (
"0 -495 LINE",
"0 818 LINE",
"587 818 LINE",
"587 -495 LINE"
);
}
);
};
components = (
{
name = _part.avst.butt.meem;
}
);
layerId = m01;
paths = (
{
closed = 1;
nodes = (
"536 37 LINE",
"542 99 OFFCURVE",
"524 134 OFFCURVE",
"457 134 CURVE SMOOTH",
"406 134 OFFCURVE",
"280 117 OFFCURVE",
"221 117 CURVE",
"186 0 LINE",
"264 0 OFFCURVE",
"394 17 OFFCURVE",
"444 17 CURVE SMOOTH",
"480 17 OFFCURVE",
"495 4 OFFCURVE",
"500 -16 CURVE"
);
}
);
width = 587;
}
);
},
{
export = 0;
glyphname = _part.avst.ee.avestan;
layers = (
{
anchors = (
{
name = "#entry";
position = "{375, 0}";
},
{
name = "#exit";
position = "{178, 0}";
}
);
background = {
paths = (
{
closed = 1;
nodes = (
"181 78 OFFCURVE",
"178 29 OFFCURVE",
"178 0 CURVE",
"271 0 OFFCURVE",
"365 38 OFFCURVE",
"404 96 CURVE SMOOTH",
"435 143 OFFCURVE",
"455 198 OFFCURVE",
"455 245 CURVE SMOOTH",
"455 297 OFFCURVE",
"435 348 OFFCURVE",
"407 416 CURVE",
"395 416 LINE",
"347 323 LINE",
"370 277 OFFCURVE",
"406 189 OFFCURVE",
"396 150 CURVE",
"345 128 OFFCURVE",
"267 117 OFFCURVE",
"213 117 CURVE"
);
},
{
closed = 1;
nodes = (
"0 -495 LINE",
"0 818 LINE",
"505 818 LINE",
"505 -495 LINE"
);
}
);
};
layerId = m01;
paths = (
{
closed = 1;
nodes = (
"181 78 OFFCURVE",
"178 29 OFFCURVE",
"178 0 CURVE",
"271 0 OFFCURVE",
"365 38 OFFCURVE",
"404 96 CURVE SMOOTH",
"435 143 OFFCURVE",
"455 198 OFFCURVE",
"455 245 CURVE SMOOTH",
"455 297 OFFCURVE",
"435 348 OFFCURVE",
"407 416 CURVE",
"395 416 LINE",
"347 323 LINE",
"370 277 OFFCURVE",
"406 189 OFFCURVE",
"396 150 CURVE",
"345 128 OFFCURVE",
"267 117 OFFCURVE",
"213 117 CURVE"
);
}
);
width = 505;
}
);
},
{
export = 0;
glyphname = _part.avst.eh.halghe;
layers = (
{
anchors = (
{
name = "#exit";
position = "{15, 0}";
}
);
background = {
paths = (
{
closed = 1;
nodes = (
"338 -147 OFFCURVE",
"512 -54 OFFCURVE",
"512 151 CURVE SMOOTH",
"512 201 OFFCURVE",
"503 250 OFFCURVE",
"487 293 CURVE SMOOTH",
"459 365 OFFCURVE",
"412 416 OFFCURVE",
"373 416 CURVE SMOOTH",
"339 416 OFFCURVE",
"325 401 OFFCURVE",
"288 301 CURVE SMOOTH",
"275 266 OFFCURVE",
"288 208 OFFCURVE",
"341 208 CURVE SMOOTH",
"370 208 OFFCURVE",
"392 222 OFFCURVE",
"407 243 CURVE",
"457 174 OFFCURVE",
"464 115 OFFCURVE",
"454 43 CURVE",
"386 -9 OFFCURVE",
"314 -30 OFFCURVE",
"218 -30 CURVE SMOOTH",
"58 -30 OFFCURVE",
"36 48 OFFCURVE",
"56 115 CURVE",
"0 37 LINE",
"0 -76 OFFCURVE",
"67 -147 OFFCURVE",
"183 -147 CURVE SMOOTH"
);
},
{
closed = 1;
nodes = (
"-391 -495 LINE",
"-391 818 LINE",
"562 818 LINE",
"562 -495 LINE"
);
}
);
};
layerId = m01;
paths = (
{
closed = 1;
nodes = (
"338 -147 OFFCURVE",
"512 -54 OFFCURVE",
"512 151 CURVE SMOOTH",
"512 201 OFFCURVE",
"503 250 OFFCURVE",
"487 293 CURVE SMOOTH",
"459 365 OFFCURVE",
"412 416 OFFCURVE",
"373 416 CURVE SMOOTH",
"339 416 OFFCURVE",
"325 401 OFFCURVE",
"288 301 CURVE SMOOTH",
"275 266 OFFCURVE",
"288 208 OFFCURVE",
"341 208 CURVE SMOOTH",
"370 208 OFFCURVE",
"392 222 OFFCURVE",
"407 243 CURVE",
"457 174 OFFCURVE",
"464 115 OFFCURVE",
"454 43 CURVE",
"386 -9 OFFCURVE",
"314 -30 OFFCURVE",
"218 -30 CURVE SMOOTH",
"58 -30 OFFCURVE",
"36 48 OFFCURVE",
"56 115 CURVE",
"0 37 LINE",
"0 -76 OFFCURVE",
"67 -147 OFFCURVE",
"183 -147 CURVE SMOOTH"
);
}
);
width = 562;
}
);
},
{
export = 0;
glyphname = _part.avst.gereh.peh;
layers = (
{
background = {
paths = (
{
closed = 1;
nodes = (
"102 41 LINE",
"102 142 OFFCURVE",
"202 279 OFFCURVE",
"263 279 CURVE SMOOTH",
"310 279 OFFCURVE",
"340 214 OFFCURVE",
"349 191 CURVE",
"326 168 OFFCURVE",
"264 144 OFFCURVE",
"197 144 CURVE SMOOTH",
"163 144 OFFCURVE",
"139 151 OFFCURVE",
"122 164 CURVE",
"74 70 LINE",
"82 42 OFFCURVE",
"122 27 OFFCURVE",
"162 27 CURVE SMOOTH",
"238 27 OFFCURVE",
"292 66 OFFCURVE",
"322 100 CURVE SMOOTH",
"351 134 OFFCURVE",
"391 194 OFFCURVE",
"391 248 CURVE SMOOTH",
"391 307 OFFCURVE",
"360 396 OFFCURVE",
"308 396 CURVE SMOOTH",
"234 396 OFFCURVE",
"50 134 OFFCURVE",
"50 -13 CURVE"
);
},
{
closed = 1;
nodes = (
"0 -495 LINE",
"0 818 LINE",
"824 818 LINE",
"824 -495 LINE"
);
}
);
};
layerId = m01;
paths = (
{
closed = 1;
nodes = (
"102 41 LINE",
"102 142 OFFCURVE",
"202 279 OFFCURVE",
"263 279 CURVE SMOOTH",
"310 279 OFFCURVE",
"340 214 OFFCURVE",
"349 191 CURVE",
"326 168 OFFCURVE",
"264 144 OFFCURVE",
"197 144 CURVE SMOOTH",
"163 144 OFFCURVE",
"139 151 OFFCURVE",
"122 164 CURVE",
"74 70 LINE",
"82 42 OFFCURVE",
"122 27 OFFCURVE",
"162 27 CURVE SMOOTH",
"238 27 OFFCURVE",
"292 66 OFFCURVE",
"322 100 CURVE SMOOTH",
"351 134 OFFCURVE",
"391 194 OFFCURVE",
"391 248 CURVE SMOOTH",
"391 307 OFFCURVE",
"360 396 OFFCURVE",
"308 396 CURVE SMOOTH",
"234 396 OFFCURVE",
"50 134 OFFCURVE",
"50 -13 CURVE"
);
}
);
width = 824;
}
);
},
{
export = 0;
glyphname = _part.avst.gge.head;
layers = (
{
anchors = (
{
name = "#exit";
position = "{0, 0}";
}
);
background = {
paths = (
{
closed = 1;
nodes = (
"13 -153 OFFCURVE",
"2 -192 OFFCURVE",
"0 -231 CURVE",
"120 -231 OFFCURVE",
"207 -174 OFFCURVE",
"258 -94 CURVE SMOOTH",
"329 17 OFFCURVE",
"320 149 OFFCURVE",
"289 270 CURVE SMOOTH",
"252 416 LINE",
"240 416 LINE",
"185 307 LINE",
"253 79 OFFCURVE",
"262 1 OFFCURVE",
"242 -54 CURVE",
"191 -95 OFFCURVE",
"106 -114 OFFCURVE",
"35 -114 CURVE"
);
},
{
closed = 1;
nodes = (
"-500 -495 LINE",
"-500 818 LINE",
"362 818 LINE",
"362 -495 LINE"
);
}
);
};
layerId = m01;
paths = (
{
closed = 1;
nodes = (
"13 -153 OFFCURVE",
"2 -192 OFFCURVE",
"0 -231 CURVE",
"120 -231 OFFCURVE",
"207 -174 OFFCURVE",
"258 -94 CURVE SMOOTH",
"329 17 OFFCURVE",
"320 149 OFFCURVE",
"289 270 CURVE SMOOTH",
"252 416 LINE",
"240 416 LINE",
"185 307 LINE",
"253 79 OFFCURVE",
"262 1 OFFCURVE",
"242 -54 CURVE",
"191 -95 OFFCURVE",
"106 -114 OFFCURVE",
"35 -114 CURVE"
);
}
);
width = 362;
}
);
},
{
export = 0;
glyphname = _part.avst.head.ain;
layers = (
{
anchors = (
{
name = "#entry";
position = "{265, 0}";
},
{
name = "#exit";
position = "{206, 0}";
}
);
background = {
paths = (
{
closed = 1;
nodes = (
"329 153 OFFCURVE",
"315 169 OFFCURVE",
"297 177 CURVE",
"218 161 OFFCURVE",
"140 183 OFFCURVE",
"118 221 CURVE",
"99 221 OFFCURVE",
"85 214 OFFCURVE",
"75 182 CURVE",
"75 85 OFFCURVE",
"198 73 OFFCURVE",
"275 73 CURVE"
);
},
{
closed = 1;
nodes = (
"118 221 LINE",
"145 260 OFFCURVE",
"208 299 OFFCURVE",
"258 299 CURVE SMOOTH",
"286 299 OFFCURVE",
"293 286 OFFCURVE",
"293 265 CURVE",
"305 265 LINE",
"340 330 OFFCURVE",
"353 416 OFFCURVE",
"285 416 CURVE SMOOTH",
"195 416 OFFCURVE",
"75 260 OFFCURVE",
"75 182 CURVE"
);
},
{
closed = 1;
nodes = (
"0 -495 LINE",
"0 818 LINE",
"384 818 LINE",
"384 -495 LINE"
);
}
);
};
layerId = m01;
paths = (
{
closed = 1;
nodes = (
"329 153 OFFCURVE",
"315 169 OFFCURVE",
"297 177 CURVE",
"218 161 OFFCURVE",
"140 183 OFFCURVE",
"118 221 CURVE",
"99 221 OFFCURVE",
"85 214 OFFCURVE",
"75 182 CURVE",
"75 85 OFFCURVE",
"198 73 OFFCURVE",
"275 73 CURVE"
);
},
{
closed = 1;
nodes = (
"118 221 LINE",
"145 260 OFFCURVE",
"208 299 OFFCURVE",
"258 299 CURVE SMOOTH",
"286 299 OFFCURVE",
"293 286 OFFCURVE",
"293 265 CURVE",
"305 265 LINE",
"340 330 OFFCURVE",
"353 416 OFFCURVE",
"285 416 CURVE SMOOTH",
"195 416 OFFCURVE",
"75 260 OFFCURVE",
"75 182 CURVE"
);
}
);
width = 384;
}
);
},
{
export = 0;
glyphname = _part.avst.head.bhe;
layers = (
{
background = {
paths = (
{
closed = 1;
nodes = (
"1035 17 OFFCURVE",
"1023 156 OFFCURVE",
"977 266 CURVE",
"1010 289 OFFCURVE",
"1062 306 OFFCURVE",
"1109 305 CURVE",
"1164 414 LINE",
"1156 424 LINE",
"1081 435 OFFCURVE",
"977 390 OFFCURVE",
"935 316 CURVE SMOOTH",
"918 286 OFFCURVE",
"904 257 OFFCURVE",
"891 227 CURVE",
"923 168 OFFCURVE",
"974 45 OFFCURVE",
"948 -54 CURVE",
"964 -94 LINE"
);
},
{
closed = 1;
nodes = (
"0 -495 LINE",
"0 818 LINE",
"1214 818 LINE",
"1214 -495 LINE"
);
}
);
};
layerId = m01;
paths = (
{
closed = 1;
nodes = (
"1035 17 OFFCURVE",
"1023 156 OFFCURVE",
"977 266 CURVE",
"1010 289 OFFCURVE",
"1062 306 OFFCURVE",
"1109 305 CURVE",
"1164 414 LINE",
"1156 424 LINE",
"1081 435 OFFCURVE",
"977 390 OFFCURVE",
"935 316 CURVE SMOOTH",
"918 286 OFFCURVE",
"904 257 OFFCURVE",
"891 227 CURVE",
"923 168 OFFCURVE",
"974 45 OFFCURVE",
"948 -54 CURVE",
"964 -94 LINE"
);
}
);
width = 1214;
}
);
},
{
export = 0;
glyphname = _part.avst.head.kehmotassel;
layers = (
{
anchors = (
{
name = "#entry";
position = "{421, 0}";
},
{
name = "#exit";
position = "{382, 0}";
}
);
background = {
paths = (
{
closed = 1;
nodes = (
"430 88 LINE",
"430 236 OFFCURVE",
"373 416 OFFCURVE",
"286 416 CURVE SMOOTH",
"208 416 OFFCURVE",
"119 229 OFFCURVE",
"119 140 CURVE SMOOTH",
"119 29 OFFCURVE",
"203 0 OFFCURVE",
"337 0 CURVE SMOOTH",
"421 0 LINE",
"453 29 OFFCURVE",
"464 78 OFFCURVE",
"456 117 CURVE",
"357 117 LINE SMOOTH",
"275 117 OFFCURVE",
"183 117 OFFCURVE",
"158 170 CURVE",
"168 217 OFFCURVE",
"218 299 OFFCURVE",
"259 299 CURVE SMOOTH",
"337 299 OFFCURVE",
"381 120 OFFCURVE",
"381 26 CURVE"
);
},
{
closed = 1;
nodes = (
"0 -495 LINE",
"0 818 LINE",
"421 818 LINE",
"421 -495 LINE"
);
}
);
};
layerId = m01;
paths = (
{
closed = 1;
nodes = (
"430 88 LINE",
"430 236 OFFCURVE",
"373 416 OFFCURVE",
"286 416 CURVE SMOOTH",
"208 416 OFFCURVE",
"119 229 OFFCURVE",
"119 140 CURVE SMOOTH",
"119 29 OFFCURVE",
"203 0 OFFCURVE",
"337 0 CURVE SMOOTH",
"421 0 LINE",
"453 29 OFFCURVE",
"464 78 OFFCURVE",
"456 117 CURVE",
"357 117 LINE SMOOTH",
"275 117 OFFCURVE",
"183 117 OFFCURVE",
"158 170 CURVE",
"168 217 OFFCURVE",
"218 299 OFFCURVE",
"259 299 CURVE SMOOTH",
"337 299 OFFCURVE",
"381 120 OFFCURVE",
"381 26 CURVE"
);
}
);
width = 421;
}
);
},
{
export = 0;
glyphname = _part.avst.head.meeminit;
layers = (
{
anchors = (
{
name = "#exit";
position = "{144, 0}";
}
);
background = {
paths = (
{
closed = 1;
nodes = (
"188 46 LINE",
"188 163 OFFCURVE",
"342 299 OFFCURVE",
"430 299 CURVE SMOOTH",
"458 299 OFFCURVE",
"465 286 OFFCURVE",
"465 265 CURVE",
"477 265 LINE",
"512 330 OFFCURVE",
"525 416 OFFCURVE",
"457 416 CURVE SMOOTH",
"349 416 OFFCURVE",
"145 199 OFFCURVE",
"145 7 CURVE"
);
},
{
closed = 1;
nodes = (
"0 -495 LINE",
"0 818 LINE",
"587 818 LINE",
"587 -495 LINE"
);
}
);
};
layerId = m01;
paths = (
{
closed = 1;
nodes = (
"188 46 LINE",
"188 163 OFFCURVE",
"342 299 OFFCURVE",
"430 299 CURVE SMOOTH",
"458 299 OFFCURVE",
"465 286 OFFCURVE",
"465 265 CURVE",
"477 265 LINE",
"512 330 OFFCURVE",
"525 416 OFFCURVE",
"457 416 CURVE SMOOTH",
"349 416 OFFCURVE",
"145 199 OFFCURVE",
"145 7 CURVE"
);
}
);
width = 677;
}
);
},
{
export = 0;
glyphname = _part.avst.head.peh;
layers = (
{
anchors = (
{
name = "#exit";
position = "{282, 0}";
}
);
background = {
paths = (
{
closed = 1;
nodes = (
"295 -153 OFFCURVE",
"284 -192 OFFCURVE",
"282 -231 CURVE",
"436 -231 OFFCURVE",
"560 -176 OFFCURVE",
"606 -96 CURVE SMOOTH",
"676 26 OFFCURVE",
"666 149 OFFCURVE",
"637 270 CURVE SMOOTH",
"602 416 LINE",
"590 416 LINE",
"535 307 LINE",
"571 174 LINE SMOOTH",
"599 71 OFFCURVE",
"613 4 OFFCURVE",
"590 -54 CURVE",
"518 -92 OFFCURVE",
"408 -114 OFFCURVE",
"317 -114 CURVE"
);
},
{
closed = 1;
nodes = (
"0 -495 LINE",
"0 818 LINE",
"709 818 LINE",
"709 -495 LINE"
);
}
);
};
layerId = m01;
paths = (
{
closed = 1;
nodes = (
"295 -153 OFFCURVE",
"284 -192 OFFCURVE",
"282 -231 CURVE",
"436 -231 OFFCURVE",
"560 -176 OFFCURVE",
"606 -96 CURVE SMOOTH",
"676 26 OFFCURVE",
"666 149 OFFCURVE",
"637 270 CURVE SMOOTH",
"602 416 LINE",
"590 416 LINE",
"535 307 LINE",
"571 174 LINE SMOOTH",
"599 71 OFFCURVE",
"613 4 OFFCURVE",
"590 -54 CURVE",
"518 -92 OFFCURVE",
"408 -114 OFFCURVE",
"317 -114 CURVE"
);
}
);
width = 709;
}
);
},
{
export = 0;
glyphname = _part.avst.head.seen;
layers = (
{
anchors = (
{
name = "#entry";
position = "{356, 0}";
},
{
name = "#exit";
position = "{0, 0}";
}
);
background = {
paths = (
{
closed = 1;
nodes = (
"836 -96 LINE",
"906 26 OFFCURVE",
"899 160 OFFCURVE",
"848 293 CURVE SMOOTH",
"820 365 OFFCURVE",
"773 416 OFFCURVE",
"734 416 CURVE SMOOTH",
"700 416 OFFCURVE",
"686 401 OFFCURVE",
"649 301 CURVE SMOOTH",
"635 263 OFFCURVE",
"649 208 OFFCURVE",
"702 208 CURVE SMOOTH",
"731 208 OFFCURVE",
"753 222 OFFCURVE",
"768 243 CURVE",
"818 174 OFFCURVE",
"852 13 OFFCURVE",
"816 -62 CURVE"
);
},
{
closed = 1;
nodes = (
"828 -49 LINE",
"757 -90 OFFCURVE",
"642 -114 OFFCURVE",
"547 -114 CURVE",
"512 -231 LINE",
"666 -231 OFFCURVE",
"790 -176 OFFCURVE",
"836 -96 CURVE"
);
},
{
closed = 1;
nodes = (
"0 -495 LINE",
"0 818 LINE",
"937 818 LINE",
"937 -495 LINE"
);
}
);
};
layerId = m01;
paths = (
{
closed = 1;
nodes = (
"324 -96 LINE",
"394 26 OFFCURVE",
"387 160 OFFCURVE",
"336 293 CURVE SMOOTH",
"308 365 OFFCURVE",
"261 416 OFFCURVE",
"222 416 CURVE SMOOTH",
"188 416 OFFCURVE",
"174 401 OFFCURVE",
"137 301 CURVE SMOOTH",
"123 263 OFFCURVE",
"137 208 OFFCURVE",
"190 208 CURVE SMOOTH",
"219 208 OFFCURVE",
"241 222 OFFCURVE",
"256 243 CURVE",
"306 174 OFFCURVE",
"340 13 OFFCURVE",
"304 -62 CURVE"
);
},
{
closed = 1;
nodes = (
"316 -49 LINE",
"245 -90 OFFCURVE",
"130 -114 OFFCURVE",
"35 -114 CURVE",
"0 -231 LINE",
"154 -231 OFFCURVE",
"278 -176 OFFCURVE",
"324 -96 CURVE"
);
}
);
width = 425;
}
);
},
{
export = 0;
glyphname = _part.avst.huzw.first;
layers = (
{
background = {
paths = (
{
closed = 1;
nodes = (
"501 -8 OFFCURVE",
"448 -72 OFFCURVE",
"448 -149 CURVE SMOOTH",
"448 -213 OFFCURVE",
"488 -244 OFFCURVE",
"557 -244 CURVE SMOOTH",
"650 -244 OFFCURVE",
"743 -187 OFFCURVE",
"824 -139 CURVE",
"824 -73 LINE",
"744 -99 OFFCURVE",
"657 -127 OFFCURVE",
"589 -127 CURVE SMOOTH",
"550 -127 OFFCURVE",
"501 -115 OFFCURVE",
"501 -77 CURVE",
"578 76 OFFCURVE",
"582 176 OFFCURVE",
"547 284 CURVE",
"527 264 LINE",
"542 237 OFFCURVE",
"572 217 OFFCURVE",
"614 217 CURVE",
"646 246 OFFCURVE",
"657 295 OFFCURVE",
"649 334 CURVE",
"528 334 OFFCURVE",
"507 425 OFFCURVE",
"448 579 CURVE",
"436 579 LINE",
"388 486 LINE",
"452 345 OFFCURVE",
"501 231 OFFCURVE",
"501 112 CURVE SMOOTH"
);
},
{
closed = 1;
nodes = (
"489 117 LINE",
"409 117 OFFCURVE",
"384 157 OFFCURVE",
"348 254 CURVE SMOOTH",
"332 297 LINE",
"320 297 LINE",
"272 204 LINE",
"314 105 OFFCURVE",
"319 64 OFFCURVE",
"310 32 CURVE",
"277 3 OFFCURVE",
"220 -16 OFFCURVE",
"173 -16 CURVE",
"138 -133 LINE",
"258 -133 OFFCURVE",
"337 -29 OFFCURVE",
"354 85 CURVE",
"339 75 LINE",
"371 25 OFFCURVE",
"421 0 OFFCURVE",
"504 0 CURVE"
);
},
{
closed = 1;
nodes = (
"617 295 OFFCURVE",
"614 246 OFFCURVE",
"614 217 CURVE",
"755 217 OFFCURVE",
"841 359 OFFCURVE",
"841 462 CURVE SMOOTH",
"841 514 OFFCURVE",
"821 565 OFFCURVE",
"793 633 CURVE",
"781 633 LINE",
"733 540 LINE",
"756 494 OFFCURVE",
"792 406 OFFCURVE",
"782 367 CURVE",
"748 346 OFFCURVE",
"693 334 OFFCURVE",
"649 334 CURVE"
);
},
{
closed = 1;
nodes = (
"160 -94 OFFCURVE",
"171 -55 OFFCURVE",
"173 -16 CURVE",
"136 -16 OFFCURVE",
"107 -9 OFFCURVE",
"90 4 CURVE",
"42 -90 LINE",
"50 -118 OFFCURVE",
"83 -133 OFFCURVE",
"138 -133 CURVE"
);
},
{
closed = 1;
nodes = (
"0 -495 LINE",
"0 818 LINE",
"891 818 LINE",
"891 -495 LINE"
);
}
);
};
components = (
{
name = _part.avst.alef.head;
transform = "{1, 0, 0, 1, 614, 217}";
},
{
alignment = -1;
name = _part.avst.keheh_ending;
transform = "{1, 0, 0, 1, -6, -133}";
}
);
layerId = m01;
paths = (
{
closed = 1;
nodes = (
"501 -8 OFFCURVE",
"448 -72 OFFCURVE",
"448 -149 CURVE SMOOTH",
"448 -213 OFFCURVE",
"488 -244 OFFCURVE",
"557 -244 CURVE SMOOTH",
"650 -244 OFFCURVE",
"743 -187 OFFCURVE",
"824 -139 CURVE",
"824 -73 LINE",
"744 -99 OFFCURVE",
"657 -127 OFFCURVE",
"589 -127 CURVE SMOOTH",
"550 -127 OFFCURVE",
"501 -115 OFFCURVE",
"501 -77 CURVE",
"578 76 OFFCURVE",
"582 176 OFFCURVE",
"547 284 CURVE",
"527 264 LINE",
"542 237 OFFCURVE",
"572 217 OFFCURVE",
"614 217 CURVE",
"646 246 OFFCURVE",
"657 295 OFFCURVE",
"649 334 CURVE",
"528 334 OFFCURVE",
"507 425 OFFCURVE",
"448 579 CURVE",
"436 579 LINE",
"388 486 LINE",
"452 345 OFFCURVE",
"501 231 OFFCURVE",
"501 112 CURVE SMOOTH"
);
},
{
closed = 1;
nodes = (
"489 117 LINE",
"409 117 OFFCURVE",
"384 157 OFFCURVE",
"348 254 CURVE SMOOTH",
"332 297 LINE",
"320 297 LINE",
"272 204 LINE",
"314 105 OFFCURVE",
"319 64 OFFCURVE",
"310 32 CURVE",
"277 3 OFFCURVE",
"220 -16 OFFCURVE",
"173 -16 CURVE",
"138 -133 LINE",
"258 -133 OFFCURVE",
"337 -29 OFFCURVE",
"354 85 CURVE",
"339 75 LINE",
"371 25 OFFCURVE",
"421 0 OFFCURVE",
"504 0 CURVE"
);
}
);
width = 891;
}
);
},
{
export = 0;
glyphname = "_part.avst.huzwaresh-x1-phlv.ss09";
layers = (
{
background = {
paths = (
{
closed = 1;
nodes = (
"279 78 OFFCURVE",
"276 29 OFFCURVE",
"276 0 CURVE",
"417 0 OFFCURVE",
"503 142 OFFCURVE",
"503 245 CURVE SMOOTH",
"503 297 OFFCURVE",
"483 348 OFFCURVE",
"455 416 CURVE",
"443 416 LINE",
"395 323 LINE",
"418 277 OFFCURVE",
"454 189 OFFCURVE",
"444 150 CURVE",
"410 129 OFFCURVE",
"355 117 OFFCURVE",
"311 117 CURVE"
);
},
{
closed = 1;
nodes = (
"731 -147 OFFCURVE",
"905 -54 OFFCURVE",
"905 151 CURVE SMOOTH",
"905 201 OFFCURVE",
"896 250 OFFCURVE",
"880 293 CURVE SMOOTH",
"852 365 OFFCURVE",
"805 416 OFFCURVE",
"766 416 CURVE SMOOTH",
"732 416 OFFCURVE",
"718 401 OFFCURVE",
"681 301 CURVE SMOOTH",
"668 266 OFFCURVE",
"681 208 OFFCURVE",
"734 208 CURVE SMOOTH",
"763 208 OFFCURVE",
"785 222 OFFCURVE",
"800 243 CURVE",
"850 174 OFFCURVE",
"857 115 OFFCURVE",
"847 43 CURVE",
"779 -9 OFFCURVE",
"707 -30 OFFCURVE",
"611 -30 CURVE SMOOTH",
"451 -30 OFFCURVE",
"429 48 OFFCURVE",
"449 115 CURVE",
"393 37 LINE",
"393 -76 OFFCURVE",
"460 -147 OFFCURVE",
"576 -147 CURVE SMOOTH"
);
},
{
closed = 1;
nodes = (
"163 -184 OFFCURVE",
"126 -240 OFFCURVE",
"126 -306 CURVE SMOOTH",
"126 -380 OFFCURVE",
"191 -441 OFFCURVE",
"272 -441 CURVE SMOOTH",
"369 -441 OFFCURVE",
"493 -383 OFFCURVE",
"588 -383 CURVE SMOOTH",
"629 -383 OFFCURVE",
"652 -395 OFFCURVE",
"671 -401 CURVE",
"705 -336 LINE",
"665 -312 OFFCURVE",
"629 -295 OFFCURVE",
"560 -295 CURVE SMOOTH",
"492 -295 OFFCURVE",
"391 -324 OFFCURVE",
"304 -324 CURVE SMOOTH",
"224 -324 OFFCURVE",
"186 -285 OFFCURVE",
"181 -228 CURVE",
"220 -132 OFFCURVE",
"234 -59 OFFCURVE",
"222 14 CURVE",
"237 5 OFFCURVE",
"255 0 OFFCURVE",
"276 0 CURVE",
"308 29 OFFCURVE",
"319 78 OFFCURVE",
"311 117 CURVE",
"190 117 OFFCURVE",
"169 208 OFFCURVE",
"110 362 CURVE",
"98 362 LINE",
"50 269 LINE",
"114 128 OFFCURVE",
"163 14 OFFCURVE",
"163 -105 CURVE SMOOTH"
);
},
{
closed = 1;
nodes = (
"0 -495 LINE",
"0 818 LINE",
"955 818 LINE",
"955 -495 LINE"
);
}
);
};
components = (
{
alignment = -1;
name = _part.avst.eh.halghe;
transform = "{1, 0, 0, 1, 393, 0}";
},
{
alignment = -1;
name = _part.avst.alef.head;
transform = "{1, 0, 0, 1, 276, 0}";
},
{
alignment = -1;
name = _part.avst.reh.tail;
transform = "{1, 0, 0, 1, 1, 0}";
}
);
layerId = m01;
width = 955;
}
);
},
{
export = 0;
glyphname = _part.avst.kaf.halgheh;
layers = (
{
background = {
paths = (
{
closed = 1;
nodes = (
"397 37 OFFCURVE",
"414 57 OFFCURVE",
"430 88 CURVE",
"430 236 OFFCURVE",
"373 416 OFFCURVE",
"286 416 CURVE SMOOTH",
"208 416 OFFCURVE",
"119 229 OFFCURVE",
"119 140 CURVE SMOOTH",
"119 53 OFFCURVE",
"161 7 OFFCURVE",
"243 7 CURVE SMOOTH",
"297 7 OFFCURVE",
"348 27 OFFCURVE",
"389 56 CURVE",
"380 149 LINE",
"343 135 OFFCURVE",
"294 124 OFFCURVE",
"251 124 CURVE SMOOTH",
"197 124 OFFCURVE",
"170 138 OFFCURVE",
"158 170 CURVE",
"168 217 OFFCURVE",
"218 299 OFFCURVE",
"259 299 CURVE SMOOTH",
"337 299 OFFCURVE",
"381 120 OFFCURVE",
"381 26 CURVE"
);
},
{
closed = 1;
nodes = (
"0 -495 LINE",
"0 818 LINE",
"480 818 LINE",
"480 -495 LINE"
);
}
);
};
layerId = m01;
paths = (
{
closed = 1;
nodes = (
"397 37 OFFCURVE",
"414 57 OFFCURVE",
"430 88 CURVE",
"430 236 OFFCURVE",
"373 416 OFFCURVE",
"286 416 CURVE SMOOTH",
"208 416 OFFCURVE",
"119 229 OFFCURVE",
"119 140 CURVE SMOOTH",
"119 53 OFFCURVE",
"161 7 OFFCURVE",
"243 7 CURVE SMOOTH",
"297 7 OFFCURVE",
"348 27 OFFCURVE",
"389 56 CURVE",
"380 149 LINE",
"343 135 OFFCURVE",
"294 124 OFFCURVE",
"251 124 CURVE SMOOTH",
"197 124 OFFCURVE",
"170 138 OFFCURVE",
"158 170 CURVE",
"168 217 OFFCURVE",
"218 299 OFFCURVE",
"259 299 CURVE SMOOTH",
"337 299 OFFCURVE",
"381 120 OFFCURVE",
"381 26 CURVE"
);
}
);
width = 480;
}
);
},
{
export = 0;
glyphname = _part.avst.kaf.tail;
layers = (
{
anchors = (
{
name = "#entry";
position = "{354, 0}";
}
);
background = {
paths = (
{
closed = 1;
nodes = (
"387 77 OFFCURVE",
"370 57 OFFCURVE",
"354 26 CURVE",
"354 -57 OFFCURVE",
"257 -167 OFFCURVE",
"50 -305 CURVE",
"50 -339 LINE",
"81 -339 OFFCURVE",
"161 -336 OFFCURVE",
"224 -294 CURVE SMOOTH",
"338 -217 OFFCURVE",
"403 -31 OFFCURVE",
"403 88 CURVE"
);
},
{
closed = 1;
nodes = (
"0 -495 LINE",
"0 818 LINE",
"453 818 LINE",
"453 -495 LINE"
);
}
);
};
layerId = m01;
paths = (
{
closed = 1;
nodes = (
"387 77 OFFCURVE",
"370 57 OFFCURVE",
"354 26 CURVE",
"354 -57 OFFCURVE",
"257 -167 OFFCURVE",
"50 -305 CURVE",
"50 -339 LINE",
"81 -339 OFFCURVE",
"161 -336 OFFCURVE",
"224 -294 CURVE SMOOTH",
"338 -217 OFFCURVE",
"403 -31 OFFCURVE",
"403 88 CURVE"
);
}
);
width = 453;
}
);
},
{
export = 0;
glyphname = "_part.avst.keheh-phlv.transition";
layers = (
{
anchors = (
{
name = "#entry";
position = "{123, 0}";
},
{
name = "#exit";
position = "{201, 0}";
}
);
background = {
paths = (
{
closed = 1;
nodes = (
"386 -35 LINE",
"325 -87 OFFCURVE",
"252 -114 OFFCURVE",
"181 -114 CURVE",
"146 -231 LINE",
"219 -231 OFFCURVE",
"322 -196 OFFCURVE",
"369 -123 CURVE"
);
}
);
};
layerId = m01;
paths = (
{
closed = 1;
nodes = (
"386 -35 LINE",
"325 -87 OFFCURVE",
"252 -114 OFFCURVE",
"181 -114 CURVE",
"146 -231 LINE",
"219 -231 OFFCURVE",
"322 -196 OFFCURVE",
"369 -123 CURVE"
);
}
);
width = 480;
}
);
},
{
export = 0;
glyphname = _part.avst.lamedh.second;
layers = (
{
background = {
paths = (
{
closed = 1;
nodes = (
"530 177 OFFCURVE",
"547 233 OFFCURVE",
"547 277 CURVE SMOOTH",
"547 319 OFFCURVE",
"516 363 OFFCURVE",
"463 363 CURVE SMOOTH",
"405 363 OFFCURVE",
"366 329 OFFCURVE",
"289 329 CURVE SMOOTH",
"220 329 OFFCURVE",
"185 361 OFFCURVE",
"175 409 CURVE",
"185 457 OFFCURVE",
"199 527 OFFCURVE",
"199 575 CURVE SMOOTH",
"199 700 OFFCURVE",
"96 808 OFFCURVE",
"15 818 CURVE",
"-3 740 OFFCURVE",
"-40 680 OFFCURVE",
"-83 640 CURVE",
"-64 608 LINE",
"-40 624 OFFCURVE",
"-5 670 OFFCURVE",
"4 700 CURVE",
"65 690 OFFCURVE",
"143 614 OFFCURVE",
"143 508 CURVE SMOOTH",
"143 450 OFFCURVE",
"118 390 OFFCURVE",
"118 337 CURVE SMOOTH",
"118 264 OFFCURVE",
"180 212 OFFCURVE",
"257 212 CURVE SMOOTH",
"354 212 OFFCURVE",
"409 255 OFFCURVE",
"457 255 CURVE SMOOTH",
"491 255 OFFCURVE",
"512 235 OFFCURVE",
"498 187 CURVE",
"438 152 OFFCURVE",
"323 117 OFFCURVE",
"241 117 CURVE",
"219 78 OFFCURVE",
"208 39 OFFCURVE",
"206 0 CURVE",
"321 0 OFFCURVE",
"453 59 OFFCURVE",
"496 125 CURVE SMOOTH"
);
},
{
closed = 1;
nodes = (
"0 -495 LINE",
"0 818 LINE",
"597 818 LINE",
"597 -495 LINE"
);
}
);
};
layerId = m01;
paths = (
{
closed = 1;
nodes = (
"530 177 OFFCURVE",
"547 233 OFFCURVE",
"547 277 CURVE SMOOTH",
"547 319 OFFCURVE",
"516 363 OFFCURVE",
"463 363 CURVE SMOOTH",
"405 363 OFFCURVE",
"366 329 OFFCURVE",
"289 329 CURVE SMOOTH",
"220 329 OFFCURVE",
"185 361 OFFCURVE",
"175 409 CURVE",
"185 457 OFFCURVE",
"199 527 OFFCURVE",
"199 575 CURVE SMOOTH",
"199 700 OFFCURVE",
"96 808 OFFCURVE",
"15 818 CURVE",
"-3 740 OFFCURVE",
"-40 680 OFFCURVE",
"-83 640 CURVE",
"-64 608 LINE",
"-40 624 OFFCURVE",
"-5 670 OFFCURVE",
"4 700 CURVE",
"65 690 OFFCURVE",
"143 614 OFFCURVE",
"143 508 CURVE SMOOTH",
"143 450 OFFCURVE",
"118 390 OFFCURVE",
"118 337 CURVE SMOOTH",
"118 264 OFFCURVE",
"180 212 OFFCURVE",
"257 212 CURVE SMOOTH",
"354 212 OFFCURVE",
"409 255 OFFCURVE",
"457 255 CURVE SMOOTH",
"491 255 OFFCURVE",
"512 235 OFFCURVE",
"498 187 CURVE",
"438 152 OFFCURVE",
"323 117 OFFCURVE",
"241 117 CURVE",
"219 78 OFFCURVE",
"208 39 OFFCURVE",
"206 0 CURVE",
"321 0 OFFCURVE",
"453 59 OFFCURVE",
"496 125 CURVE SMOOTH"
);
}
);
width = 597;
}
);
},
{
export = 0;
glyphname = _part.avst.lamedh.third;
layers = (
{
background = {
paths = (
{
closed = 1;
nodes = (
"159 78 OFFCURVE",
"148 39 OFFCURVE",
"146 0 CURVE",
"229 0 OFFCURVE",
"305 42 OFFCURVE",
"348 108 CURVE SMOOTH",
"382 160 OFFCURVE",
"399 223 OFFCURVE",
"399 267 CURVE SMOOTH",
"399 359 OFFCURVE",
"356 456 OFFCURVE",
"294 557 CURVE SMOOTH",
"218 681 OFFCURVE",
"92 808 OFFCURVE",
"12 818 CURVE",
"-6 740 OFFCURVE",
"-43 680 OFFCURVE",
"-86 640 CURVE",
"-67 608 LINE",
"-43 624 OFFCURVE",
"-8 670 OFFCURVE",
"1 700 CURVE",
"65 683 OFFCURVE",
"162 585 OFFCURVE",
"228 487 CURVE SMOOTH",
"314 359 OFFCURVE",
"355 248 OFFCURVE",
"351 170 CURVE",
"300 135 OFFCURVE",
"235 117 OFFCURVE",
"181 117 CURVE"
);
},
{
closed = 1;
nodes = (
"0 -495 LINE",
"0 818 LINE",
"449 818 LINE",
"449 -495 LINE"
);
}
);
};
layerId = m01;
paths = (
{
closed = 1;
nodes = (
"159 78 OFFCURVE",
"148 39 OFFCURVE",
"146 0 CURVE",
"229 0 OFFCURVE",
"305 42 OFFCURVE",
"348 108 CURVE SMOOTH",
"382 160 OFFCURVE",
"399 223 OFFCURVE",
"399 267 CURVE SMOOTH",
"399 359 OFFCURVE",
"356 456 OFFCURVE",
"294 557 CURVE SMOOTH",
"218 681 OFFCURVE",
"92 808 OFFCURVE",
"12 818 CURVE",
"-6 740 OFFCURVE",
"-43 680 OFFCURVE",
"-86 640 CURVE",
"-67 608 LINE",
"-43 624 OFFCURVE",
"-8 670 OFFCURVE",
"1 700 CURVE",
"65 683 OFFCURVE",
"162 585 OFFCURVE",
"228 487 CURVE SMOOTH",
"314 359 OFFCURVE",
"355 248 OFFCURVE",
"351 170 CURVE",
"300 135 OFFCURVE",
"235 117 OFFCURVE",
"181 117 CURVE"
);
}
);
width = 449;
}
);
},
{
export = 0;
glyphname = _part.avst.lower.connector;
layers = (
{
anchors = (
{
name = "#entry";
position = "{67, 0}";
},
{
name = "#exit";
position = "{0, 0}";
}
);
background = {
paths = (
{
closed = 1;
nodes = (
"586 -134 LINE",
"619 -193 OFFCURVE",
"684 -231 OFFCURVE",
"789 -231 CURVE",
"825 -192 OFFCURVE",
"833 -153 OFFCURVE",
"824 -114 CURVE",
"746 -114 OFFCURVE",
"689 -97 OFFCURVE",
"653 -65 CURVE"
);
},
{
closed = 1;
nodes = (
"0 -495 LINE",
"0 818 LINE",
"791 818 LINE",
"791 -495 LINE"
);
}
);
};
layerId = m01;
paths = (
{
closed = 1;
nodes = (
"-137 -134 LINE",
"-104 -193 OFFCURVE",
"-39 -231 OFFCURVE",
"66 -231 CURVE",
"102 -192 OFFCURVE",
"110 -153 OFFCURVE",
"101 -114 CURVE",
"23 -114 OFFCURVE",
"-34 -97 OFFCURVE",
"-70 -65 CURVE"
);
}
);
width = 66;
}
);
},
{
export = 0;
glyphname = _part.avst.madd.avestan;
layers = (
{
background = {
paths = (
{
closed = 1;
nodes = (
"322 -184 LINE",
"314 -174 LINE",
"229 -143 OFFCURVE",
"203 -79 OFFCURVE",
"264 21 CURVE",
"245 53 LINE",
"214 0 OFFCURVE",
"170 -73 OFFCURVE",
"170 -144 CURVE SMOOTH",
"170 -222 OFFCURVE",
"226 -258 OFFCURVE",
"275 -277 CURVE"
);
},
{
closed = 1;
nodes = (
"0 -495 LINE",
"0 818 LINE",
"597 818 LINE",
"597 -495 LINE"
);
}
);
};
layerId = m01;
paths = (
{
closed = 1;
nodes = (
"322 -184 LINE",
"314 -174 LINE",
"229 -143 OFFCURVE",
"203 -79 OFFCURVE",
"264 21 CURVE",
"245 53 LINE",
"214 0 OFFCURVE",
"170 -73 OFFCURVE",
"170 -144 CURVE SMOOTH",
"170 -222 OFFCURVE",
"226 -258 OFFCURVE",
"275 -277 CURVE"
);
}
);
width = 597;
}
);
},
{
export = 0;
glyphname = _part.avst.meemdowr.leftjoining;
layers = (
{
anchors = (
{
name = "#entry";
position = "{165, -1}";
}
);
background = {
paths = (
{
closed = 1;
nodes = (
"165 7 LINE",
"165 -89 OFFCURVE",
"193 -231 OFFCURVE",
"321 -231 CURVE SMOOTH",
"474 -231 OFFCURVE",
"546 -62 OFFCURVE",
"556 37 CURVE SMOOTH",
"562 99 OFFCURVE",
"544 134 OFFCURVE",
"477 134 CURVE SMOOTH",
"400 134 OFFCURVE",
"246 117 OFFCURVE",
"132 117 CURVE",
"110 78 OFFCURVE",
"99 39 OFFCURVE",
"97 0 CURVE",
"199 0 OFFCURVE",
"374 17 OFFCURVE",
"464 17 CURVE SMOOTH",
"500 17 OFFCURVE",
"515 4 OFFCURVE",
"520 -16 CURVE",
"500 -70 OFFCURVE",
"418 -114 OFFCURVE",
"343 -114 CURVE SMOOTH",
"244 -114 OFFCURVE",
"208 -44 OFFCURVE",
"208 46 CURVE"
);
},
{
closed = 1;
nodes = (
"0 -495 LINE",
"0 818 LINE",
"607 818 LINE",
"607 -495 LINE"
);
}
);
};
layerId = m01;
paths = (
{
closed = 1;
nodes = (
"165 7 LINE",
"165 -89 OFFCURVE",
"193 -231 OFFCURVE",
"321 -231 CURVE SMOOTH",
"474 -231 OFFCURVE",
"546 -62 OFFCURVE",
"556 37 CURVE SMOOTH",
"562 99 OFFCURVE",
"544 134 OFFCURVE",
"477 134 CURVE SMOOTH",
"400 134 OFFCURVE",
"246 117 OFFCURVE",
"132 117 CURVE",
"110 78 OFFCURVE",
"99 39 OFFCURVE",
"97 0 CURVE",
"199 0 OFFCURVE",
"374 17 OFFCURVE",
"464 17 CURVE SMOOTH",
"500 17 OFFCURVE",
"515 4 OFFCURVE",
"520 -16 CURVE",
"500 -70 OFFCURVE",
"418 -114 OFFCURVE",
"343 -114 CURVE SMOOTH",
"244 -114 OFFCURVE",
"208 -44 OFFCURVE",
"208 46 CURVE"
);
}
);
width = 607;
}
);
},
{
export = 0;
glyphname = _part.avst.nge.head;
layers = (
{
background = {
paths = (
{
closed = 1;
nodes = (
"126 282 LINE",
"159 310 OFFCURVE",
"194 333 OFFCURVE",
"234 333 CURVE SMOOTH",
"271 333 OFFCURVE",
"291 311 OFFCURVE",
"291 282 CURVE SMOOTH",
"291 221 OFFCURVE",
"209 166 OFFCURVE",
"135 156 CURVE",
"91 70 LINE",
"98 61 LINE",
"222 98 OFFCURVE",
"354 87 OFFCURVE",
"354 -19 CURVE",
"403 43 LINE",
"403 137 OFFCURVE",
"337 186 OFFCURVE",
"221 164 CURVE",
"239 140 LINE",
"316 191 OFFCURVE",
"360 277 OFFCURVE",
"360 339 CURVE SMOOTH",
"360 400 OFFCURVE",
"325 426 OFFCURVE",
"280 426 CURVE SMOOTH",
"222 426 OFFCURVE",
"159 374 OFFCURVE",
"108 304 CURVE"
);
},
{
closed = 1;
nodes = (
"0 -495 LINE",
"0 818 LINE",
"600 818 LINE",
"600 -495 LINE"
);
}
);
};
layerId = m01;
paths = (
{
closed = 1;
nodes = (
"126 282 LINE",
"159 310 OFFCURVE",
"194 333 OFFCURVE",
"234 333 CURVE SMOOTH",
"271 333 OFFCURVE",
"291 311 OFFCURVE",
"291 282 CURVE SMOOTH",
"291 221 OFFCURVE",
"209 166 OFFCURVE",
"135 156 CURVE",
"91 70 LINE",
"98 61 LINE",
"222 98 OFFCURVE",
"354 87 OFFCURVE",
"354 -19 CURVE",
"403 43 LINE",
"403 137 OFFCURVE",
"337 186 OFFCURVE",
"221 164 CURVE",
"239 140 LINE",
"316 191 OFFCURVE",
"360 277 OFFCURVE",
"360 339 CURVE SMOOTH",
"360 400 OFFCURVE",
"325 426 OFFCURVE",
"280 426 CURVE SMOOTH",
"222 426 OFFCURVE",
"159 374 OFFCURVE",
"108 304 CURVE"
);
}
);
width = 600;
}
);
},
{
export = 0;
glyphname = _part.avst.null.pahlavi;
layers = (
{
background = {
paths = (
{
closed = 1;
nodes = (
"251 109 LINE",
"233 66 OFFCURVE",
"238 -9 OFFCURVE",
"297 -9 CURVE SMOOTH",
"356 -9 OFFCURVE",
"384 64 OFFCURVE",
"384 117 CURVE SMOOTH",
"384 188 OFFCURVE",
"315 211 OFFCURVE",
"265 160 CURVE",
"239 103 LINE",
"250 90 LINE",
"296 132 OFFCURVE",
"358 121 OFFCURVE",
"358 83 CURVE",
"350 68 OFFCURVE",
"333 55 OFFCURVE",
"306 55 CURVE SMOOTH",
"279 55 OFFCURVE",
"260 78 OFFCURVE",
"271 109 CURVE"
);
},
{
closed = 1;
nodes = (
"0 -495 LINE",
"0 818 LINE",
"626 818 LINE",
"626 -495 LINE"
);
}
);
};
layerId = m01;
paths = (
{
closed = 1;
nodes = (
"251 109 LINE",
"233 66 OFFCURVE",
"238 -9 OFFCURVE",
"297 -9 CURVE SMOOTH",
"356 -9 OFFCURVE",
"384 64 OFFCURVE",
"384 117 CURVE SMOOTH",
"384 188 OFFCURVE",
"315 211 OFFCURVE",
"265 160 CURVE",
"239 103 LINE",
"250 90 LINE",
"296 132 OFFCURVE",
"358 121 OFFCURVE",
"358 83 CURVE",
"350 68 OFFCURVE",
"333 55 OFFCURVE",
"306 55 CURVE SMOOTH",
"279 55 OFFCURVE",
"260 78 OFFCURVE",
"271 109 CURVE"
);
}
);
width = 626;
}
);
},
{
export = 0;
glyphname = _part.avst.peh.ending;
layers = (
{
anchors = (
{
name = "#entry";
position = "{282, 0}";
}
);
background = {
paths = (
{
closed = 1;
nodes = (
"50 -136 OFFCURVE",
"116 -231 OFFCURVE",
"282 -231 CURVE",
"304 -192 OFFCURVE",
"315 -153 OFFCURVE",
"317 -114 CURVE",
"174 -114 OFFCURVE",
"102 -56 OFFCURVE",
"102 41 CURVE",
"85 33 OFFCURVE",
"67 15 OFFCURVE",
"50 -13 CURVE"
);
},
{
closed = 1;
nodes = (
"102 41 LINE",
"102 142 OFFCURVE",
"202 279 OFFCURVE",
"263 279 CURVE SMOOTH",
"310 279 OFFCURVE",
"340 214 OFFCURVE",
"349 191 CURVE",
"326 168 OFFCURVE",
"264 144 OFFCURVE",
"197 144 CURVE SMOOTH",
"163 144 OFFCURVE",
"139 151 OFFCURVE",
"122 164 CURVE",
"74 70 LINE",
"82 42 OFFCURVE",
"122 27 OFFCURVE",
"162 27 CURVE SMOOTH",
"238 27 OFFCURVE",
"292 66 OFFCURVE",
"322 100 CURVE SMOOTH",
"351 134 OFFCURVE",
"391 194 OFFCURVE",
"391 248 CURVE SMOOTH",
"391 307 OFFCURVE",
"360 396 OFFCURVE",
"308 396 CURVE SMOOTH",
"234 396 OFFCURVE",
"50 134 OFFCURVE",
"50 -13 CURVE"
);
},
{
closed = 1;
nodes = (
"0 -495 LINE",
"0 818 LINE",
"709 818 LINE",
"709 -495 LINE"
);
}
);
};
components = (
{
name = _part.avst.gereh.peh;
}
);
layerId = m01;
paths = (
{
closed = 1;
nodes = (
"50 -136 OFFCURVE",
"116 -231 OFFCURVE",
"282 -231 CURVE",
"304 -192 OFFCURVE",
"315 -153 OFFCURVE",
"317 -114 CURVE",
"174 -114 OFFCURVE",
"102 -56 OFFCURVE",
"102 41 CURVE",
"85 33 OFFCURVE",
"67 15 OFFCURVE",
"50 -13 CURVE"
);
}
);
width = 709;
}
);
},
{
export = 0;
glyphname = _part.avst.peh.vasl;
layers = (
{
anchors = (
{
name = "#entry";
position = "{430, 0}";
},
{
name = "#exit";
position = "{-282, 0}";
}
);
background = {
paths = (
{
closed = 1;
nodes = (
"293 121 OFFCURVE",
"335 30 OFFCURVE",
"308 -54 CURVE",
"236 -92 OFFCURVE",
"126 -114 OFFCURVE",
"35 -114 CURVE",
"0 -231 LINE",
"154 -231 OFFCURVE",
"277 -175 OFFCURVE",
"324 -96 CURVE SMOOTH",
"357 -41 OFFCURVE",
"368 20 OFFCURVE",
"376 66 CURVE",
"338 51 LINE",
"355 21 OFFCURVE",
"385 0 OFFCURVE",
"430 0 CURVE",
"462 39 OFFCURVE",
"473 78 OFFCURVE",
"465 117 CURVE",
"381 117 OFFCURVE",
"361 181 OFFCURVE",
"324 271 CURVE SMOOTH",
"286 362 LINE",
"274 362 LINE",
"226 269 LINE"
);
},
{
closed = 1;
nodes = (
"-282 -495 LINE",
"-282 818 LINE",
"430 818 LINE",
"430 -495 LINE"
);
}
);
};
layerId = m01;
paths = (
{
closed = 1;
nodes = (
"293 121 OFFCURVE",
"335 30 OFFCURVE",
"308 -54 CURVE",
"236 -92 OFFCURVE",
"126 -114 OFFCURVE",
"35 -114 CURVE",
"0 -231 LINE",
"154 -231 OFFCURVE",
"277 -175 OFFCURVE",
"324 -96 CURVE SMOOTH",
"357 -41 OFFCURVE",
"368 20 OFFCURVE",
"376 66 CURVE",
"338 51 LINE",
"355 21 OFFCURVE",
"385 0 OFFCURVE",
"430 0 CURVE",
"462 39 OFFCURVE",
"473 78 OFFCURVE",
"465 117 CURVE",
"381 117 OFFCURVE",
"361 181 OFFCURVE",
"324 271 CURVE SMOOTH",
"286 362 LINE",
"274 362 LINE",
"226 269 LINE"
);
}
);
width = 430;
}
);
},
{
export = 0;
glyphname = _part.avst.reh.last;
layers = (
{
background = {
paths = (
{
closed = 1;
nodes = (
"171 226 LINE",
"153 261 OFFCURVE",
"133 306 OFFCURVE",
"110 362 CURVE",
"98 362 LINE",
"50 269 LINE",
"118 140 LINE SMOOTH",
"154 71 OFFCURVE",
"161 20 OFFCURVE",
"161 -45 CURVE SMOOTH",
"161 -100 OFFCURVE",
"150 -165 OFFCURVE",
"137 -235 CURVE",
"166 -244 LINE",
"199 -149 OFFCURVE",
"220 -70 OFFCURVE",
"218 0 CURVE SMOOTH",
"216 57 LINE"
);
},
{
closed = 1;
nodes = (
"0 -495 LINE",
"0 818 LINE",
"274 818 LINE",
"274 -495 LINE"
);
}
);
};
layerId = m01;
paths = (
{
closed = 1;
nodes = (
"171 226 LINE",
"153 261 OFFCURVE",
"133 306 OFFCURVE",
"110 362 CURVE",
"98 362 LINE",
"50 269 LINE",
"118 140 LINE SMOOTH",
"154 71 OFFCURVE",
"161 20 OFFCURVE",
"161 -45 CURVE SMOOTH",
"161 -100 OFFCURVE",
"150 -165 OFFCURVE",
"137 -235 CURVE",
"166 -244 LINE",
"199 -149 OFFCURVE",
"220 -70 OFFCURVE",
"218 0 CURVE SMOOTH",
"216 57 LINE"
);
}
);
width = 274;
}
);
},
{
export = 0;
glyphname = _part.avst.reh.tail;
layers = (
{
anchors = (
{
name = "#entry";
position = "{275, 0}";
},
{
name = "#exit";
position = "{705, 0}";
}
);
background = {
paths = (
{
closed = 1;
nodes = (
"163 -183 OFFCURVE",
"126 -239 OFFCURVE",
"126 -305 CURVE SMOOTH",
"126 -379 OFFCURVE",
"191 -440 OFFCURVE",
"272 -440 CURVE SMOOTH",
"369 -440 OFFCURVE",
"493 -382 OFFCURVE",
"588 -382 CURVE SMOOTH",
"629 -382 OFFCURVE",
"652 -394 OFFCURVE",
"671 -400 CURVE",
"705 -335 LINE",
"665 -311 OFFCURVE",
"629 -294 OFFCURVE",
"560 -294 CURVE SMOOTH",
"492 -294 OFFCURVE",
"391 -323 OFFCURVE",
"304 -323 CURVE SMOOTH",
"224 -323 OFFCURVE",
"186 -284 OFFCURVE",
"181 -227 CURVE",
"220 -131 OFFCURVE",
"234 -58 OFFCURVE",
"222 15 CURVE",
"237 6 OFFCURVE",
"255 1 OFFCURVE",
"276 1 CURVE",
"308 30 OFFCURVE",
"319 79 OFFCURVE",
"311 118 CURVE",
"190 118 OFFCURVE",
"169 209 OFFCURVE",
"110 363 CURVE",
"98 363 LINE",
"50 270 LINE",
"114 129 OFFCURVE",
"163 15 OFFCURVE",
"163 -104 CURVE SMOOTH"
);
},
{
closed = 1;
nodes = (
"-332 -495 LINE",
"-332 818 LINE",
"268 818 LINE",
"268 -495 LINE"
);
}
);
};
layerId = m01;
paths = (
{
closed = 1;
nodes = (
"162 -184 OFFCURVE",
"125 -240 OFFCURVE",
"125 -306 CURVE SMOOTH",
"125 -380 OFFCURVE",
"190 -441 OFFCURVE",
"271 -441 CURVE SMOOTH",
"368 -441 OFFCURVE",
"492 -383 OFFCURVE",
"587 -383 CURVE SMOOTH",
"628 -383 OFFCURVE",
"651 -395 OFFCURVE",
"670 -401 CURVE",
"704 -336 LINE",
"664 -312 OFFCURVE",
"628 -295 OFFCURVE",
"559 -295 CURVE SMOOTH",
"491 -295 OFFCURVE",
"390 -324 OFFCURVE",
"303 -324 CURVE SMOOTH",
"223 -324 OFFCURVE",
"185 -285 OFFCURVE",
"180 -228 CURVE",
"219 -132 OFFCURVE",
"233 -59 OFFCURVE",
"221 14 CURVE",
"236 5 OFFCURVE",
"254 0 OFFCURVE",
"275 0 CURVE",
"307 29 OFFCURVE",
"318 78 OFFCURVE",
"310 117 CURVE",
"189 117 OFFCURVE",
"168 208 OFFCURVE",
"109 362 CURVE",
"97 362 LINE",
"49 269 LINE",
"113 128 OFFCURVE",
"162 14 OFFCURVE",
"162 -105 CURVE SMOOTH"
);
}
);
width = 275;
}
);
},
{
export = 0;
glyphname = _part.avst.right.connector;
layers = (
{
anchors = (
{
name = "#entry";
position = "{453, 0}";
},
{
name = "#exit";
position = "{327, 0}";
}
);
background = {
paths = (
{
closed = 1;
nodes = (
"325 87 LINE",
"347 25 OFFCURVE",
"397 0 OFFCURVE",
"453 0 CURVE",
"485 39 OFFCURVE",
"496 78 OFFCURVE",
"488 117 CURVE",
"430 117 OFFCURVE",
"390 129 OFFCURVE",
"372 158 CURVE"
);
},
{
closed = 1;
nodes = (
"0 -495 LINE",
"0 818 LINE",
"453 818 LINE",
"453 -495 LINE"
);
}
);
};
layerId = m01;
paths = (
{
closed = 1;
nodes = (
"325 87 LINE",
"347 25 OFFCURVE",
"397 0 OFFCURVE",
"453 0 CURVE",
"485 39 OFFCURVE",
"496 78 OFFCURVE",
"488 117 CURVE",
"430 117 OFFCURVE",
"390 129 OFFCURVE",
"372 158 CURVE"
);
}
);
width = 453;
}
);
},
{
export = 0;
glyphname = _part.avst.secondpart.kafalter;
layers = (
{
background = {
paths = (
{
closed = 1;
nodes = (
"190 299 LINE",
"239 299 OFFCURVE",
"278 164 OFFCURVE",
"265 69 CURVE SMOOTH",
"246 -73 OFFCURVE",
"123 -176 OFFCURVE",
"123 -273 CURVE SMOOTH",
"123 -347 OFFCURVE",
"193 -378 OFFCURVE",
"272 -378 CURVE SMOOTH",
"356 -378 OFFCURVE",
"430 -347 OFFCURVE",
"476 -346 CURVE SMOOTH",
"539 -345 OFFCURVE",
"525 -418 OFFCURVE",
"453 -486 CURVE",
"482 -495 LINE",
"525 -460 OFFCURVE",
"575 -382 OFFCURVE",
"577 -316 CURVE SMOOTH",
"578 -268 OFFCURVE",
"557 -229 OFFCURVE",
"503 -229 CURVE SMOOTH",
"461 -229 OFFCURVE",
"386 -261 OFFCURVE",
"299 -261 CURVE SMOOTH",
"230 -261 OFFCURVE",
"186 -245 OFFCURVE",
"176 -211 CURVE",
"222 -136 OFFCURVE",
"340 -8 OFFCURVE",
"340 158 CURVE SMOOTH",
"340 272 OFFCURVE",
"304 416 OFFCURVE",
"217 416 CURVE"
);
},
{
closed = 1;
nodes = (
"219 338 OFFCURVE",
"228 377 OFFCURVE",
"217 416 CURVE",
"139 416 OFFCURVE",
"50 229 OFFCURVE",
"50 140 CURVE",
"89 170 LINE",
"99 217 OFFCURVE",
"149 299 OFFCURVE",
"190 299 CURVE"
);
},
{
closed = 1;
nodes = (
"0 -495 LINE",
"0 818 LINE",
"352 818 LINE",
"352 -495 LINE"
);
}
);
};
layerId = m01;
paths = (
{
closed = 1;
nodes = (
"190 299 LINE",
"239 299 OFFCURVE",
"278 164 OFFCURVE",
"265 69 CURVE SMOOTH",
"246 -73 OFFCURVE",
"123 -176 OFFCURVE",
"123 -273 CURVE SMOOTH",
"123 -347 OFFCURVE",
"193 -378 OFFCURVE",
"272 -378 CURVE SMOOTH",
"356 -378 OFFCURVE",
"430 -347 OFFCURVE",
"476 -346 CURVE SMOOTH",
"539 -345 OFFCURVE",
"525 -418 OFFCURVE",
"453 -486 CURVE",
"482 -495 LINE",
"525 -460 OFFCURVE",
"575 -382 OFFCURVE",
"577 -316 CURVE SMOOTH",
"578 -268 OFFCURVE",
"557 -229 OFFCURVE",
"503 -229 CURVE SMOOTH",
"461 -229 OFFCURVE",
"386 -261 OFFCURVE",
"299 -261 CURVE SMOOTH",
"230 -261 OFFCURVE",
"186 -245 OFFCURVE",
"176 -211 CURVE",
"222 -136 OFFCURVE",
"340 -8 OFFCURVE",
"340 158 CURVE SMOOTH",
"340 272 OFFCURVE",
"304 416 OFFCURVE",
"217 416 CURVE"
);
},
{
closed = 1;
nodes = (
"219 338 OFFCURVE",
"228 377 OFFCURVE",
"217 416 CURVE",
"139 416 OFFCURVE",
"50 229 OFFCURVE",
"50 140 CURVE",
"89 170 LINE",
"99 217 OFFCURVE",
"149 299 OFFCURVE",
"190 299 CURVE"
);
}
);
width = 352;
}
);
},
{
export = 0;
glyphname = _part.avst.tail.ain;
layers = (
{
background = {
paths = (
{
closed = 1;
nodes = (
"347 -511 OFFCURVE",
"368 -450 OFFCURVE",
"368 -406 CURVE SMOOTH",
"368 -254 OFFCURVE",
"91 -227 OFFCURVE",
"91 -109 CURVE SMOOTH",
"91 -48 OFFCURVE",
"186 19 OFFCURVE",
"275 73 CURVE",
"207 120 LINE",
"119 41 OFFCURVE",
"50 -48 OFFCURVE",
"50 -140 CURVE SMOOTH",
"50 -330 OFFCURVE",
"314 -342 OFFCURVE",
"317 -482 CURVE SMOOTH",
"317 -494 OFFCURVE",
"313 -511 OFFCURVE",
"310 -524 CURVE",
"339 -533 LINE"
);
},
{
closed = 1;
nodes = (
"0 -495 LINE",
"0 818 LINE",
"600 818 LINE",
"600 -495 LINE"
);
}
);
};
layerId = m01;
paths = (
{
closed = 1;
nodes = (
"347 -511 OFFCURVE",
"368 -450 OFFCURVE",
"368 -406 CURVE SMOOTH",
"368 -254 OFFCURVE",
"91 -227 OFFCURVE",
"91 -109 CURVE SMOOTH",
"91 -48 OFFCURVE",
"186 19 OFFCURVE",
"275 73 CURVE",
"207 120 LINE",
"119 41 OFFCURVE",
"50 -48 OFFCURVE",
"50 -140 CURVE SMOOTH",
"50 -330 OFFCURVE",
"314 -342 OFFCURVE",
"317 -482 CURVE SMOOTH",
"317 -494 OFFCURVE",
"313 -511 OFFCURVE",
"310 -524 CURVE",
"339 -533 LINE"
);
}
);
width = 600;
}
);
},
{
export = 0;
glyphname = _part.avst.the.ending;
layers = (
{
background = {
paths = (
{
closed = 1;
nodes = (
"314 -192 OFFCURVE",
"325 -153 OFFCURVE",
"317 -114 CURVE",
"174 -114 OFFCURVE",
"111 -56 OFFCURVE",
"111 41 CURVE SMOOTH",
"111 186 OFFCURVE",
"255 310 OFFCURVE",
"255 489 CURVE SMOOTH",
"255 601 OFFCURVE",
"184 674 OFFCURVE",
"130 713 CURVE",
"118 713 LINE",
"68 614 LINE",
"146 551 OFFCURVE",
"189 498 OFFCURVE",
"189 416 CURVE SMOOTH",
"189 299 OFFCURVE",
"50 147 OFFCURVE",
"50 -13 CURVE SMOOTH",
"50 -136 OFFCURVE",
"116 -231 OFFCURVE",
"282 -231 CURVE"
);
},
{
closed = 1;
nodes = (
"0 -495 LINE",
"0 818 LINE",
"600 818 LINE",
"600 -495 LINE"
);
}
);
};
layerId = m01;
paths = (
{
closed = 1;
nodes = (
"314 -192 OFFCURVE",
"325 -153 OFFCURVE",
"317 -114 CURVE",
"174 -114 OFFCURVE",
"111 -56 OFFCURVE",
"111 41 CURVE SMOOTH",
"111 186 OFFCURVE",
"255 310 OFFCURVE",
"255 489 CURVE SMOOTH",
"255 601 OFFCURVE",
"184 674 OFFCURVE",
"130 713 CURVE",
"118 713 LINE",
"68 614 LINE",
"146 551 OFFCURVE",
"189 498 OFFCURVE",
"189 416 CURVE SMOOTH",
"189 299 OFFCURVE",
"50 147 OFFCURVE",
"50 -13 CURVE SMOOTH",
"50 -136 OFFCURVE",
"116 -231 OFFCURVE",
"282 -231 CURVE"
);
}
);
width = 600;
}
);
},
{
export = 0;
glyphname = _part.avst.torreh.zeh;
layers = (
{
background = {
paths = (
{
closed = 1;
nodes = (
"151 158 LINE",
"163 209 OFFCURVE",
"266 299 OFFCURVE",
"347 299 CURVE SMOOTH",
"375 299 OFFCURVE",
"382 286 OFFCURVE",
"382 265 CURVE",
"394 265 LINE",
"429 330 OFFCURVE",
"445 416 OFFCURVE",
"374 416 CURVE SMOOTH",
"284 416 OFFCURVE",
"167 312 OFFCURVE",
"136 225 CURVE SMOOTH",
"130 208 OFFCURVE",
"124 187 OFFCURVE",
"122 170 CURVE"
);
},
{
closed = 1;
nodes = (
"0 -495 LINE",
"0 818 LINE",
"474 818 LINE",
"474 -495 LINE"
);
}
);
};
layerId = m01;
paths = (
{
closed = 1;
nodes = (
"151 158 LINE",
"163 209 OFFCURVE",
"266 299 OFFCURVE",
"347 299 CURVE SMOOTH",
"375 299 OFFCURVE",
"382 286 OFFCURVE",
"382 265 CURVE",
"394 265 LINE",
"429 330 OFFCURVE",
"445 416 OFFCURVE",
"374 416 CURVE SMOOTH",
"284 416 OFFCURVE",
"167 312 OFFCURVE",
"136 225 CURVE SMOOTH",
"130 208 OFFCURVE",
"124 187 OFFCURVE",
"122 170 CURVE"
);
}
);
width = 474;
}
);
},
